{"glyphs":{"0":{"ha":1194,"x_min":34,"x_max":1160,"o":"m 1126 458 q 1097 450 1118 459 q 1125 492 1133 479 q 1122 494 1124 494 q 1117 494 1119 495 q 782 296 857 333 q 989 432 814 324 q 1129 520 1098 498 q 1126 458 1128 489 m 1004 160 q 879 66 956 107 q 750 21 828 40 q 772 35 756 25 q 1030 193 983 176 q 1004 160 1017 174 m 680 23 l 677 18 q 572 9 621 9 q 567 11 569 10 l 565 11 l 562 13 q 536 28 545 21 l 536 34 q 532 37 534 37 l 526 36 q 522 41 524 39 q 513 52 518 45 q 516 64 518 61 q 508 66 513 70 l 505 65 q 479 119 492 87 l 482 121 q 484 130 487 125 q 475 131 480 134 l 475 131 q 448 233 458 172 q 439 303 443 266 q 440 311 442 308 l 438 313 q 431 441 432 376 l 431 456 q 441 478 446 470 q 433 484 438 482 l 432 507 l 436 510 q 438 518 441 513 q 432 521 436 522 q 453 817 437 709 q 475 906 461 867 q 516 990 484 929 l 517 992 q 521 1000 519 996 q 565 1004 547 1003 q 576 1000 570 1000 l 582 1001 q 585 1001 584 1001 l 618 1003 q 625 999 621 1000 q 629 998 627 998 q 655 980 642 991 q 654 968 652 970 q 658 965 655 966 q 668 968 661 964 q 684 950 677 958 q 683 943 681 946 q 686 940 684 941 l 691 941 q 713 901 705 922 q 718 892 715 897 q 713 877 710 882 q 717 874 714 875 l 723 875 q 739 817 731 850 q 729 810 732 812 q 727 802 724 807 q 731 800 728 800 q 741 803 734 799 q 745 783 743 793 q 738 767 734 773 q 742 764 739 765 q 746 765 744 764 l 748 766 q 758 698 754 733 q 764 626 762 666 q 759 613 755 618 q 764 609 761 610 q 766 582 766 597 q 766 574 764 578 l 767 540 q 767 534 766 537 l 766 447 q 751 242 764 331 q 725 119 741 166 q 696 54 717 96 q 687 41 688 45 l 687 37 q 682 27 683 29 l 680 23 m 493 3 q 513 16 505 11 q 538 -2 524 6 q 493 3 519 -1 m 449 60 q 441 50 445 54 q 419 19 423 26 q 391 26 404 23 l 449 60 m 392 106 q 337 46 334 56 q 311 59 323 52 q 392 106 339 73 m 189 156 q 302 226 206 161 q 416 298 389 284 l 416 293 q 203 140 363 246 q 200 144 198 145 q 189 156 199 144 m 373 354 q 155 197 301 301 q 142 216 148 206 q 373 354 295 311 m 125 244 q 258 326 144 245 q 388 410 358 395 l 134 228 q 125 244 129 237 m 102 290 q 94 310 97 301 q 296 426 140 334 l 102 290 m 232 899 q 241 896 236 892 q 332 954 301 937 q 157 823 294 917 q 232 899 189 863 m 446 998 q 477 1004 457 1001 l 476 1004 q 207 843 314 904 q 352 967 362 950 l 351 969 q 446 998 390 984 m 452 914 q 449 905 451 911 l 408 882 q 454 919 438 903 l 452 914 m 429 852 q 123 665 220 716 q 134 673 127 667 q 146 680 141 677 q 441 880 395 842 q 435 852 438 867 l 429 852 m 408 534 l 408 507 q 155 357 252 413 l 408 534 m 80 351 q 87 350 83 348 l 297 471 l 88 326 q 80 351 84 336 m 408 578 q 81 360 357 522 q 78 357 79 359 q 76 363 75 369 q 72 383 75 367 q 408 578 343 541 m 416 706 q 235 595 389 680 q 59 488 91 514 l 58 498 q 416 706 114 523 m 64 586 q 317 734 216 676 l 64 559 q 63 551 60 555 q 68 547 65 548 q 134 573 80 544 q 59 519 79 535 q 64 586 60 552 m 429 821 q 427 802 429 813 q 423 806 426 805 l 417 804 q 164 659 391 791 q 433 840 275 735 q 429 821 431 831 m 387 727 q 421 750 404 739 q 419 722 420 735 q 90 528 189 583 q 387 727 174 587 m 422 766 q 383 740 416 761 q 100 568 179 607 l 426 795 q 422 766 425 780 m 416 680 q 313 613 401 673 q 60 460 98 468 l 59 473 q 241 585 86 498 q 416 691 384 664 l 416 680 m 349 515 q 410 563 390 544 q 409 550 408 524 l 349 515 m 411 592 q 69 395 374 573 l 68 398 q 412 621 131 463 l 411 592 m 413 642 q 361 625 398 642 q 414 659 399 649 l 413 642 m 401 629 q 66 412 136 478 q 64 420 64 420 q 401 629 327 608 m 61 450 q 83 457 71 451 q 62 439 70 446 q 61 450 62 444 m 392 859 q 139 690 321 809 q 76 642 73 647 q 81 637 77 638 q 170 677 94 635 q 66 605 89 622 q 82 680 72 648 l 392 859 m 134 791 q 305 886 165 803 l 112 753 q 134 791 122 772 m 106 740 q 113 739 109 736 q 460 945 419 945 l 460 945 q 361 864 459 928 q 156 740 298 823 q 89 701 105 710 q 106 740 96 720 m 408 478 q 349 449 385 470 l 408 490 l 408 478 m 414 310 q 296 236 389 298 q 192 170 212 180 q 412 329 228 209 l 414 310 m 277 252 q 176 170 188 189 q 163 186 172 176 l 277 252 m 412 343 l 252 252 q 410 368 383 346 l 412 343 m 408 410 l 409 385 q 252 298 378 373 l 408 410 m 408 427 q 395 425 403 428 q 408 435 401 429 l 408 427 m 118 257 q 107 279 111 269 q 180 325 112 279 q 407 467 355 444 l 407 450 q 118 257 330 386 m 415 262 l 338 218 q 418 279 392 256 q 420 262 418 275 l 415 262 m 425 227 l 288 147 l 421 252 q 425 229 423 240 l 425 227 m 353 144 q 429 205 410 185 q 433 189 431 197 l 353 144 m 347 210 l 229 117 q 212 132 219 125 l 347 210 m 413 205 q 269 98 376 173 q 260 92 263 94 q 241 106 250 99 l 413 205 m 292 71 q 273 83 282 76 l 383 147 l 292 71 m 436 176 q 442 153 439 163 q 315 75 363 101 l 436 176 m 361 62 q 431 124 380 80 q 447 138 444 135 q 452 121 450 129 l 454 118 q 361 62 392 79 m 366 35 q 347 42 356 38 q 413 78 360 46 q 366 35 380 50 m 465 83 l 387 39 q 460 103 414 64 q 469 83 465 92 l 465 83 m 439 27 q 451 42 444 33 q 473 75 471 69 q 484 53 479 63 l 439 27 m 492 40 q 475 6 477 14 q 440 14 459 9 l 490 43 q 492 40 490 44 m 503 26 q 504 24 500 28 q 494 18 500 22 q 500 29 497 24 l 503 26 m 498 1008 q 496 1004 497 1006 q 470 954 479 972 q 465 957 468 956 q 366 914 448 961 l 482 994 q 484 1002 487 998 q 479 1005 482 1005 q 498 1008 490 1006 m 654 1015 q 655 1010 654 1012 q 648 1015 651 1013 l 654 1015 m 711 1007 q 681 989 694 996 q 671 997 676 994 q 675 1013 673 1008 q 704 1008 691 1011 l 711 1007 m 1013 849 q 996 838 1005 844 q 847 745 910 783 q 987 869 1000 848 q 983 872 986 871 q 979 871 981 873 q 842 789 903 825 q 959 895 966 882 q 955 897 958 897 q 819 821 951 899 l 823 824 q 937 916 932 899 q 992 870 966 896 q 1013 849 1002 861 m 1095 723 q 1090 726 1093 726 q 898 619 1083 728 q 1074 753 1078 746 q 1067 757 1072 756 q 985 722 1053 760 q 1054 776 1042 764 l 1056 778 q 1058 785 1060 783 q 1054 788 1057 787 q 1050 787 1052 789 q 789 628 861 663 q 861 674 806 641 q 1046 807 1032 780 q 1072 770 1061 788 q 1095 723 1086 746 m 1105 694 q 1061 664 1067 668 q 794 502 856 523 q 940 596 874 553 q 1096 720 1099 701 q 1101 707 1099 713 q 1105 694 1102 702 m 906 497 l 1114 644 q 1116 650 1116 646 q 1122 621 1120 635 l 906 497 m 784 323 q 816 336 795 327 q 783 313 796 323 q 784 323 784 317 m 1012 402 q 864 309 961 372 q 822 283 837 292 q 779 258 800 269 l 778 256 q 781 283 779 269 q 1105 472 842 310 q 1012 402 1082 450 m 1005 362 q 772 213 911 307 q 775 239 774 227 l 777 250 q 781 246 779 247 q 832 275 786 245 q 961 354 903 317 q 1017 391 993 375 q 1117 445 1096 439 q 1005 362 1099 426 m 1121 419 q 1093 410 1111 418 q 1124 435 1114 425 q 1121 419 1122 423 m 1112 369 q 1076 356 1101 368 q 1114 382 1100 371 q 1112 369 1113 374 m 1094 314 q 758 105 867 184 l 749 103 q 930 224 844 166 q 1105 345 1077 323 q 1094 314 1100 330 m 850 153 q 949 215 896 182 q 850 153 894 179 m 759 149 q 1093 351 1012 315 q 750 117 1020 298 q 759 149 755 133 m 913 262 q 772 172 848 221 q 913 262 799 197 m 1118 399 q 953 298 1093 377 q 766 182 798 211 l 769 196 q 948 310 866 256 q 1009 351 983 332 q 1119 408 1094 400 l 1118 399 m 789 616 q 913 686 827 633 q 790 599 855 644 l 789 616 m 790 584 q 1048 741 982 714 q 791 557 989 698 l 790 584 m 791 541 q 1070 705 1002 667 q 791 514 1010 652 l 791 541 m 791 490 q 850 517 810 495 q 791 472 800 481 l 791 490 m 1120 578 q 1039 528 1080 553 q 1120 578 1094 565 m 1126 593 q 956 485 1092 580 q 801 389 817 389 q 1002 524 808 412 q 1125 598 1097 579 q 1126 593 1125 600 m 1004 581 l 796 433 q 794 425 791 430 q 802 423 798 420 l 1063 574 q 996 535 1041 561 q 789 392 797 420 q 791 382 788 387 q 797 377 793 378 q 819 382 804 376 q 787 357 799 368 q 790 446 789 401 l 790 460 l 795 460 l 1004 581 m 1116 651 q 1107 654 1112 657 l 886 527 q 1073 658 961 580 q 1108 682 1091 670 q 1116 651 1112 667 m 786 663 q 935 749 804 671 q 1031 806 1012 794 q 854 684 1008 779 q 787 642 806 655 q 786 663 787 649 m 780 716 q 777 740 779 728 q 965 848 806 752 q 780 716 920 806 m 783 698 q 822 718 797 703 q 784 685 796 698 l 783 698 m 1036 821 q 929 759 1025 816 q 798 682 829 699 q 993 821 846 725 q 1021 840 1008 831 q 1036 821 1029 830 m 921 867 q 774 754 871 825 q 770 779 772 766 q 921 867 869 837 m 798 838 q 919 910 895 899 q 816 833 902 892 q 766 799 781 810 q 763 816 765 807 q 798 838 775 823 m 907 934 q 923 924 915 930 q 866 894 909 920 q 907 934 897 919 m 754 853 q 838 900 765 850 q 898 939 884 932 q 760 831 876 911 q 754 853 757 843 m 791 916 q 837 944 823 935 l 751 865 q 745 887 748 876 q 791 916 758 895 m 739 967 q 722 938 732 955 q 713 951 717 945 q 739 967 723 958 m 735 911 q 731 920 734 914 q 769 942 742 925 q 735 911 748 923 m 885 946 q 831 910 871 937 q 785 880 800 889 l 867 955 q 885 946 876 951 m 846 964 q 785 926 828 953 q 741 899 753 906 q 809 961 760 918 q 823 973 819 969 q 846 964 835 968 m 697 971 q 690 980 694 975 q 710 992 699 985 q 697 971 705 983 m 729 1002 q 806 979 766 993 q 788 968 799 975 q 733 935 749 943 q 758 986 761 980 q 753 989 756 988 q 749 988 751 989 q 705 962 724 972 q 729 1002 724 991 m 701 12 l 703 16 q 709 26 706 21 q 733 35 719 28 q 703 11 713 20 l 701 12 m 1080 281 q 1067 257 1074 271 q 884 137 966 192 q 807 85 839 108 q 715 39 742 47 q 730 71 724 55 q 766 96 746 82 q 1084 292 848 127 q 1080 281 1081 285 m 1039 206 q 976 178 1020 203 q 1055 233 1016 205 q 1039 206 1047 219 m 1129 541 q 785 336 850 357 l 785 340 q 1128 569 841 394 q 1129 541 1129 555 m 1153 555 q 1152 578 1152 566 l 1152 583 q 1154 591 1157 587 q 1150 595 1153 594 q 1147 616 1149 606 q 1154 625 1152 621 l 1153 632 q 1145 634 1149 637 q 1123 715 1136 678 q 1092 783 1111 751 q 1008 888 1055 844 q 901 965 961 934 q 709 1031 815 1010 q 619 1040 671 1040 l 570 1040 q 515 1035 551 1040 l 512 1036 q 501 1034 506 1037 l 498 1032 q 441 1021 460 1027 q 277 960 336 996 q 136 836 193 909 q 59 687 83 767 q 35 493 34 607 q 47 384 35 440 q 48 376 47 380 q 53 357 53 359 q 68 311 58 336 q 67 304 65 307 q 71 301 68 302 q 101 237 85 267 q 115 214 106 229 l 113 213 q 112 205 109 210 q 120 203 115 199 q 182 127 149 161 q 211 100 195 114 q 212 96 211 98 q 218 94 214 93 q 275 53 245 72 q 275 50 275 51 q 279 47 277 47 l 283 47 q 299 38 292 42 q 356 12 326 24 q 362 10 359 9 q 413 -5 384 3 q 555 -27 494 -26 l 570 -27 q 722 -9 640 -27 q 890 45 828 13 q 1022 144 970 88 q 1101 272 1064 191 q 1141 395 1131 334 q 1153 539 1154 461 q 1158 552 1160 547 l 1153 555 z "},"1":{"ha":892,"x_min":34,"x_max":859,"o":"m 605 26 q 640 47 626 39 l 642 26 l 605 26 m 265 27 l 265 35 q 377 106 288 49 q 640 266 593 248 l 640 258 q 374 81 595 220 q 290 27 305 37 l 265 27 m 566 254 q 267 55 457 178 l 268 79 l 268 81 l 566 254 m 270 124 q 630 338 573 321 q 269 97 597 299 l 270 124 m 374 849 q 272 776 302 802 q 271 790 271 810 l 374 849 m 270 827 q 443 928 292 825 q 562 1004 545 998 q 271 804 543 966 q 270 827 271 814 m 336 1007 l 269 968 l 269 1003 l 265 1006 q 261 1006 264 1006 l 336 1007 m 469 1008 q 288 899 415 981 q 360 954 309 917 q 412 1002 416 995 q 406 1006 410 1006 q 330 963 394 1008 q 294 938 305 945 q 356 1005 315 964 l 357 1007 l 469 1008 m 269 872 q 452 985 383 947 q 269 848 299 877 l 269 872 m 277 918 q 337 954 285 916 q 368 975 357 968 q 353 964 362 970 q 268 897 287 915 q 266 953 267 931 l 318 983 q 272 922 267 929 l 277 918 m 542 1008 q 436 938 518 995 q 277 839 299 844 q 502 1006 311 871 l 542 1008 m 498 935 q 575 1008 576 990 l 625 1008 l 498 935 m 648 1004 q 646 979 648 998 q 273 758 355 799 l 272 761 q 642 1004 346 825 q 644 1008 644 1005 l 646 1008 l 648 1004 m 279 427 q 439 532 311 450 q 640 670 631 654 l 640 640 q 279 422 361 453 l 279 427 m 640 559 q 548 506 593 533 l 393 417 l 634 584 q 636 591 639 587 q 631 595 634 594 q 500 517 621 597 q 296 390 334 405 l 640 625 l 640 559 m 630 64 q 640 75 635 70 l 640 61 q 614 46 631 56 q 630 64 619 51 m 589 58 q 636 89 623 81 q 621 72 631 83 q 589 26 587 34 l 539 26 q 589 58 554 35 m 640 231 q 603 215 627 227 q 640 243 625 231 l 640 237 l 640 231 m 640 104 q 583 68 627 98 q 572 62 569 60 q 640 130 633 113 l 640 104 m 625 176 q 579 149 620 174 q 418 52 467 79 q 640 211 492 106 l 640 136 q 635 139 638 139 q 631 138 633 140 q 460 31 519 62 l 633 168 q 635 173 635 170 q 631 178 634 177 l 625 176 m 640 277 q 583 251 621 271 q 640 290 621 277 l 640 277 m 640 309 l 503 231 q 640 332 618 307 l 640 309 m 479 270 q 635 383 641 372 q 627 385 631 389 l 522 325 q 640 407 604 379 l 638 351 q 448 251 619 355 q 479 270 451 252 m 272 167 l 510 304 q 472 280 497 296 q 271 146 298 171 l 272 167 m 279 393 l 279 410 q 372 457 309 420 l 279 393 m 279 352 l 279 376 q 279 376 280 376 q 394 432 299 372 l 279 352 m 282 315 q 283 304 280 309 q 292 298 286 300 q 302 299 296 298 q 279 271 281 281 q 280 261 277 265 q 288 256 282 257 l 291 255 q 275 242 282 248 q 278 336 277 295 l 340 372 q 282 315 287 332 m 640 476 q 309 270 409 345 q 290 267 294 264 q 333 310 290 277 q 636 502 426 351 q 637 510 641 505 q 629 511 635 515 q 326 319 418 391 q 294 311 298 307 q 552 494 286 336 l 640 545 l 640 476 m 393 313 q 512 388 446 348 q 393 313 444 344 m 274 214 q 275 226 273 176 q 318 262 288 239 q 640 459 402 295 q 640 433 640 446 q 274 214 340 233 m 274 202 q 591 387 332 217 q 273 181 479 308 l 274 202 m 278 468 q 282 465 279 466 l 287 466 l 566 627 q 433 542 528 602 q 279 441 311 465 l 278 468 m 279 547 q 400 617 286 545 q 611 745 562 720 q 277 518 527 686 l 279 547 m 290 581 q 277 566 281 573 q 277 575 277 569 q 290 581 283 578 m 276 599 q 439 711 319 634 q 580 799 493 745 q 612 819 601 812 q 641 837 627 829 l 641 814 q 450 699 614 810 q 277 587 314 606 l 276 599 m 276 621 q 298 631 285 625 q 276 614 286 622 l 276 621 m 276 711 q 643 921 288 709 q 401 764 602 883 q 274 688 302 706 q 273 713 274 701 l 276 711 m 273 721 l 273 745 q 493 871 321 768 q 274 722 396 804 l 273 721 m 644 935 q 384 782 490 844 q 467 839 428 812 q 646 963 627 948 q 644 935 644 949 m 642 893 l 545 837 q 642 903 614 880 l 642 893 m 275 667 l 512 804 q 458 768 483 784 q 275 642 298 659 l 275 667 m 640 850 l 639 850 q 602 827 633 847 q 438 725 511 772 q 298 644 340 665 q 642 877 387 705 l 640 850 m 641 768 q 584 744 628 769 q 641 783 624 768 l 641 768 m 536 716 q 393 627 488 688 q 288 562 307 572 q 479 684 307 587 q 536 716 515 704 m 473 694 q 428 669 450 682 q 456 688 439 677 q 641 802 618 798 l 641 800 q 473 694 625 780 m 278 494 q 298 502 287 496 q 278 479 282 488 l 278 494 m 640 722 l 634 722 q 451 610 526 657 q 351 543 391 571 q 284 508 307 517 q 456 624 374 569 q 640 752 622 737 l 640 722 m 640 677 q 632 680 637 682 l 300 488 q 358 532 317 504 q 640 712 465 593 l 640 677 m 315 27 q 616 210 535 170 q 368 27 384 43 l 315 27 m 399 27 q 546 114 437 47 l 435 27 l 399 27 m 477 27 q 604 105 523 52 q 510 27 567 72 l 477 27 m 839 37 q 823 37 831 41 q 665 38 788 38 l 665 48 q 663 267 663 85 q 663 275 665 272 l 663 275 l 663 429 q 667 444 670 437 l 663 446 l 664 642 l 672 647 q 673 656 677 650 q 665 657 671 661 q 667 912 665 848 l 667 939 q 670 969 669 955 q 671 1006 672 998 q 674 1015 674 1010 l 673 1019 q 654 1033 670 1033 l 654 1033 q 648 1032 650 1033 l 422 1031 q 67 1029 103 1031 l 52 1027 q 36 1008 34 1025 q 54 991 37 991 l 69 994 q 239 995 97 995 l 239 993 q 231 988 241 994 q 229 980 226 985 q 237 978 232 975 l 240 980 q 248 790 243 926 l 238 785 q 236 777 233 781 q 244 774 239 771 l 248 776 l 248 753 q 248 741 245 747 q 251 669 250 703 q 250 659 247 664 q 251 658 250 659 l 252 593 q 245 574 241 581 q 252 569 248 570 l 253 569 l 255 422 q 251 411 248 416 q 255 408 252 409 l 255 371 q 244 92 254 284 l 244 81 q 240 79 241 80 l 236 77 l 237 77 q 234 68 232 73 l 237 66 l 243 67 l 241 39 l 169 39 q 75 37 85 38 l 71 36 q 58 14 54 32 q 75 0 60 0 l 81 1 q 167 3 90 2 l 267 3 q 823 1 434 3 l 838 1 q 854 12 849 1 q 851 31 859 23 q 844 36 848 35 l 839 37 z "},"2":{"ha":1177,"x_min":34,"x_max":1143,"o":"m 1019 33 l 979 32 q 1025 58 1009 50 l 1019 33 m 367 261 q 395 286 378 271 l 396 284 q 400 281 397 282 q 421 290 404 280 q 278 185 379 254 q 363 258 327 226 l 367 261 m 416 304 q 407 296 411 298 l 408 297 q 416 304 410 299 m 610 490 q 917 668 646 498 q 1061 755 1040 745 q 1017 710 1055 740 q 903 646 973 686 q 590 467 711 543 q 610 490 600 478 m 707 655 q 712 671 709 662 q 844 755 739 686 q 1029 865 1010 864 q 994 829 1029 857 q 830 726 940 800 q 810 714 825 723 q 706 639 701 649 q 710 636 707 637 q 803 693 716 635 q 837 715 825 708 q 998 819 956 787 q 1047 845 1029 837 q 1056 829 1052 837 q 1030 807 1046 819 q 678 591 921 753 q 707 655 695 623 m 725 726 q 754 744 730 729 q 981 879 918 844 q 720 699 904 822 q 725 726 722 712 m 705 883 q 854 975 802 948 q 838 964 879 994 q 713 863 728 882 q 705 883 709 873 m 691 911 q 779 963 719 926 q 699 897 745 935 q 691 911 695 905 m 646 970 q 711 1008 668 983 q 668 959 696 991 q 663 954 664 955 q 646 970 655 962 m 614 995 q 633 1006 624 1001 q 622 989 627 997 q 614 995 619 991 m 578 1015 q 590 1023 583 1019 l 593 1023 l 597 1006 q 578 1015 588 1010 m 566 1022 l 564 1021 q 562 1022 560 1023 l 566 1022 m 637 1023 q 609 1006 628 1017 l 605 1023 l 637 1023 m 780 1008 q 781 1010 781 1008 q 819 1002 804 1006 q 700 930 743 955 l 780 1008 m 684 960 q 733 1017 723 1003 q 766 1013 749 1015 q 684 960 714 975 m 632 982 q 657 1020 643 1000 l 658 1022 q 705 1019 681 1021 q 636 979 661 994 q 632 982 631 983 m 675 939 q 672 943 676 937 q 722 968 686 945 l 681 928 q 675 939 677 935 m 858 990 q 770 939 828 976 q 836 997 824 985 q 848 994 850 993 q 858 990 846 994 m 771 851 q 902 954 820 892 q 904 962 907 957 q 896 963 901 966 q 731 865 779 890 q 846 954 755 888 q 882 981 874 975 q 941 951 913 968 q 771 851 895 928 m 739 789 q 899 901 773 819 q 958 941 945 931 q 977 927 968 935 l 739 789 m 1039 859 q 1042 854 1034 866 l 1034 851 q 1039 859 1037 855 m 1027 877 q 878 791 1002 872 q 1016 891 987 866 q 1027 877 1021 884 m 865 829 q 994 913 970 892 q 1002 905 1002 906 l 1004 904 q 759 761 958 882 q 865 829 788 781 m 730 770 l 969 909 q 859 839 941 889 q 728 753 753 774 l 730 770 m 730 819 q 734 817 731 817 q 752 825 736 816 q 888 908 835 877 q 728 796 760 824 l 728 802 q 719 846 726 823 q 799 890 734 852 q 730 819 724 830 m 1073 851 l 1073 848 l 1071 851 l 1073 851 m 665 567 q 1036 798 931 716 q 1064 811 1053 806 l 639 528 q 665 567 653 547 m 1073 785 q 1076 739 1078 763 q 1057 730 1069 736 q 1072 753 1069 744 q 1071 767 1074 761 q 1067 770 1069 769 q 911 678 1060 772 q 646 518 711 552 l 1069 798 q 1073 785 1071 791 m 1044 631 q 1039 633 1042 633 q 909 570 1017 638 l 1054 665 q 1063 671 1060 669 q 1044 631 1056 649 m 861 498 q 700 416 795 459 q 784 472 731 436 q 1036 622 1019 631 q 882 511 1006 585 l 861 498 m 793 492 q 777 481 783 486 q 643 393 682 417 l 793 492 m 768 551 q 896 627 837 593 q 768 551 840 593 m 541 418 q 548 416 545 414 q 1003 685 863 581 q 1074 722 1040 704 q 1072 707 1074 714 q 1068 689 1070 698 l 443 328 q 541 418 505 382 m 523 345 q 479 329 497 336 q 472 315 470 326 q 484 306 474 306 l 494 306 q 370 235 431 271 q 450 315 459 300 l 905 581 q 578 365 805 515 q 524 345 557 357 l 523 345 m 279 98 l 572 296 q 574 304 577 299 q 570 307 573 306 l 566 306 l 566 305 q 87 30 524 289 q 94 37 90 33 q 154 85 127 64 q 309 185 212 126 l 517 305 l 519 307 q 643 309 574 308 l 279 98 m 933 310 l 572 102 l 871 302 q 873 310 876 305 l 933 310 m 1074 307 q 620 26 747 83 l 606 26 q 802 156 711 96 q 1021 306 1006 291 q 1025 309 1024 308 q 1074 307 1063 309 m 1069 257 q 1061 259 1066 262 l 894 163 q 1077 288 1037 256 l 1069 257 m 737 31 q 1067 249 814 95 l 1061 218 l 737 31 m 1048 158 q 1046 161 1047 159 q 1043 163 1045 163 l 1038 163 q 896 73 961 111 q 946 105 923 90 q 1053 182 1019 155 l 1048 158 m 1029 106 q 1005 83 1022 100 q 961 32 960 39 l 903 31 q 1029 106 995 89 m 951 92 q 869 31 883 45 l 847 30 q 954 94 886 51 q 951 92 954 94 m 1040 124 q 928 61 1020 118 q 958 82 937 68 q 1046 151 1039 138 l 1040 124 m 826 109 q 717 28 741 52 l 684 28 l 826 109 m 943 309 l 941 310 l 1005 310 q 829 202 918 256 q 943 298 937 274 l 943 309 m 369 94 q 293 22 291 38 l 241 21 q 369 94 267 35 m 228 27 q 225 21 224 25 q 168 20 178 20 l 558 246 q 228 27 432 160 m 305 24 q 653 258 315 58 q 731 304 684 277 q 734 309 734 306 l 792 310 q 305 24 349 13 m 861 310 q 600 161 829 294 q 816 310 793 288 l 861 310 m 660 304 q 663 309 662 307 l 716 309 q 677 286 699 299 q 388 118 512 190 q 449 158 420 139 q 660 304 645 288 m 94 20 q 457 233 317 152 l 140 20 l 94 20 m 342 22 q 465 88 384 41 q 363 23 414 56 l 342 22 m 388 23 q 738 227 597 146 l 435 24 q 388 23 427 24 m 463 24 l 928 294 q 512 25 882 233 l 463 24 m 550 26 q 823 184 630 67 q 584 26 713 111 l 550 26 m 648 27 q 728 71 680 43 q 659 27 695 50 l 648 27 m 758 28 l 1056 201 q 806 29 998 149 l 758 28 m 1029 74 q 991 53 1023 71 q 1014 75 999 60 q 1033 94 1027 87 l 1029 74 m 475 766 q 455 699 477 735 q 448 690 452 694 q 382 645 441 691 q 355 623 367 632 q 472 746 399 671 q 473 755 476 750 q 466 759 470 759 q 256 610 445 762 q 469 796 306 669 q 475 766 474 780 m 267 602 q 431 724 373 686 q 322 608 345 637 l 267 602 m 235 604 q 220 608 227 606 q 273 649 239 621 q 235 604 245 622 m 321 731 q 191 619 260 677 q 176 627 184 623 q 321 731 226 654 m 143 846 q 148 844 144 844 l 160 848 q 110 786 123 803 q 142 848 121 818 l 143 846 m 191 889 q 151 861 163 867 q 164 873 159 868 q 191 889 172 880 m 259 911 q 272 916 267 910 l 308 919 q 136 793 193 836 q 211 886 167 833 q 210 897 215 891 l 208 897 q 253 913 238 910 l 259 911 m 372 910 q 174 768 251 823 l 323 912 l 326 920 q 359 916 347 920 q 372 910 363 914 m 216 744 l 388 901 q 410 884 399 892 l 216 744 m 115 708 q 296 837 144 727 l 126 682 q 115 708 120 694 m 107 739 q 106 756 106 747 q 236 848 119 762 l 111 725 l 107 739 m 146 650 q 134 667 140 657 l 422 871 q 152 644 364 804 q 146 650 149 648 m 441 850 q 165 635 249 684 q 431 861 376 793 q 440 852 436 856 l 441 850 m 451 835 q 459 821 455 828 q 454 806 463 814 q 238 642 286 674 q 451 835 420 795 m 519 1044 q 516 1045 518 1046 l 507 1043 q 348 1003 412 1026 q 235 956 283 981 q 145 896 186 930 q 82 796 102 859 q 77 734 72 766 q 124 631 89 670 l 129 626 q 127 616 123 621 q 137 611 130 612 l 145 612 q 210 581 170 593 q 286 573 246 569 l 289 573 q 398 605 355 580 q 480 684 450 635 q 505 768 507 728 q 493 816 503 789 q 494 826 498 820 q 488 829 492 828 q 463 870 477 851 q 448 888 456 878 q 448 902 451 897 q 437 903 444 907 l 435 901 q 404 925 420 914 l 401 928 q 298 958 352 954 q 444 1003 399 995 q 529 1014 488 1011 q 591 981 564 1003 q 610 968 601 975 q 609 957 607 960 l 612 954 q 623 958 615 954 q 655 925 643 942 q 664 911 659 919 q 664 906 663 908 q 668 903 665 903 q 680 881 675 892 l 676 878 q 675 870 672 875 q 684 869 679 865 q 685 869 684 869 q 704 800 701 832 q 688 678 710 747 q 684 675 686 676 q 682 667 679 671 l 684 663 q 604 519 660 593 q 471 385 563 467 q 435 353 449 368 q 392 315 421 340 q 351 279 379 304 l 347 275 q 150 113 279 216 q 50 32 83 60 q 43 23 45 28 q 41 18 41 21 q 49 -5 34 3 q 57 -7 53 -7 q 66 -5 62 -7 l 73 -5 q 712 4 140 -5 q 1017 9 1013 8 l 1023 9 q 1042 25 1040 9 l 1107 315 q 1140 460 1136 444 q 1143 471 1143 465 q 1128 492 1143 490 l 1124 492 q 1107 476 1110 492 q 1093 416 1105 469 l 1074 331 q 792 334 1038 335 q 556 332 670 333 q 659 371 618 354 q 873 477 791 429 l 894 490 q 1058 610 1025 568 q 1096 703 1084 643 q 1096 791 1105 754 q 1089 811 1094 800 l 1096 816 q 1098 824 1101 819 q 1090 829 1095 827 l 1082 828 q 1078 837 1080 834 q 1084 847 1083 842 l 1083 857 q 1076 863 1081 861 q 1065 862 1072 863 q 1019 922 1044 898 q 1010 930 1018 924 q 1010 939 1012 935 q 1006 942 1008 941 l 1002 941 l 999 940 q 977 957 989 948 l 975 961 q 971 964 974 963 l 966 964 q 856 1016 918 996 q 607 1047 762 1047 l 606 1047 q 519 1044 561 1047 z "},"3":{"ha":1074,"x_min":33,"x_max":1039,"o":"m 452 -25 q 434 -25 443 -25 q 395 -25 413 -25 l 395 -23 q 231 4 317 -18 q 213 9 220 1 q 174 22 190 16 q 80 79 112 45 q 58 111 65 96 q 47 106 50 106 l 42 109 q 50 131 37 113 l 43 161 q 43 170 39 165 q 56 258 40 223 q 126 332 75 298 q 220 363 173 360 q 320 339 270 366 l 328 334 q 342 338 337 338 q 351 334 347 338 q 351 317 355 329 q 388 275 370 298 l 396 278 q 402 275 398 277 q 398 257 407 269 q 412 219 408 239 q 399 122 419 163 q 311 38 380 83 q 296 29 309 37 q 420 12 347 16 l 467 16 q 576 60 537 30 q 661 185 627 101 q 686 297 682 235 l 684 299 q 687 313 680 305 q 687 344 688 331 q 684 375 686 358 q 679 374 680 374 q 675 378 676 375 q 681 391 673 382 q 676 413 678 406 l 674 412 q 666 414 669 409 q 667 422 663 418 q 673 426 671 425 q 665 448 669 439 q 657 444 656 444 q 652 443 654 442 q 648 446 650 443 q 659 463 646 450 q 648 481 653 474 q 621 507 638 494 q 610 499 612 501 l 606 498 q 602 501 603 499 q 606 516 600 505 q 585 527 595 522 q 570 520 573 519 q 567 523 568 521 l 564 535 q 516 546 547 541 q 502 549 506 548 q 277 538 328 537 l 266 538 q 259 541 262 539 q 252 553 254 545 l 252 555 q 265 572 252 569 l 292 574 l 353 578 q 429 583 376 580 q 499 588 447 585 q 519 595 506 591 q 567 616 553 606 q 622 669 608 643 q 642 783 647 715 q 623 852 639 815 q 608 848 612 847 q 604 852 605 849 q 605 859 601 856 l 616 869 q 605 889 609 882 q 516 986 564 959 q 498 992 511 989 q 494 991 496 991 l 490 994 l 490 996 q 412 1008 451 1006 q 397 1007 405 1004 l 394 1007 q 330 997 388 1006 q 294 986 312 991 q 297 986 296 987 q 327 970 311 981 l 329 968 q 357 947 345 958 l 359 949 q 368 948 365 953 q 369 935 372 944 q 382 919 376 926 q 404 883 395 902 q 410 880 408 882 q 409 871 413 875 q 419 828 418 847 q 397 753 421 793 q 324 683 370 709 q 227 654 285 661 l 224 654 q 157 661 188 650 q 98 689 121 672 l 91 688 q 82 693 85 689 q 83 702 79 697 l 79 706 q 38 798 48 741 q 42 854 33 827 q 98 943 60 909 q 183 984 135 973 q 195 991 188 988 q 310 1027 223 1004 l 311 1027 l 310 1028 q 558 1057 473 1057 q 717 1043 648 1057 q 833 1005 780 1030 q 914 955 891 977 q 922 953 919 958 q 922 947 924 949 l 924 945 q 970 862 954 911 q 975 859 974 861 q 973 850 978 854 q 977 830 976 840 q 977 781 981 807 l 981 779 q 977 766 983 774 q 957 701 971 728 q 887 633 939 667 q 781 589 854 611 q 840 573 817 581 q 892 551 870 562 q 898 548 896 551 q 928 530 913 541 q 934 528 932 531 l 935 525 q 996 460 975 495 q 998 455 996 458 q 1002 448 1000 451 l 1004 448 l 1008 446 q 1008 435 1011 441 q 1029 358 1023 400 q 1031 255 1039 294 l 1034 252 q 1025 234 1037 245 q 920 102 998 164 q 755 22 865 58 q 523 -20 668 -5 q 452 -24 484 -23 l 452 -25 m 371 888 q 214 741 343 852 q 260 781 214 742 q 378 876 350 859 q 371 888 376 878 m 361 903 q 354 912 358 907 q 116 710 304 851 q 362 901 191 753 l 361 903 m 99 724 q 104 718 102 721 q 345 921 294 860 l 88 738 q 99 724 93 730 m 179 900 q 63 817 75 823 q 64 803 63 810 l 67 790 l 179 900 m 71 775 q 81 752 75 763 l 233 890 q 71 775 96 791 m 334 932 q 315 947 326 939 l 161 807 l 334 932 m 300 956 q 289 961 292 960 q 259 964 278 964 l 258 957 l 124 828 q 300 956 210 889 m 195 958 q 155 944 181 956 l 156 943 q 157 935 160 939 q 90 851 130 901 q 243 963 155 899 l 212 960 q 200 956 207 955 l 195 958 m 139 937 q 115 922 122 928 q 110 917 114 921 q 104 911 106 913 q 139 937 115 918 m 96 900 q 67 844 76 873 q 112 900 78 860 l 101 896 q 96 898 98 896 l 96 900 m 256 795 q 126 702 172 728 q 140 695 132 699 q 256 795 199 745 m 178 682 q 212 722 187 698 q 165 686 179 696 q 172 684 167 685 q 178 682 176 682 m 256 686 q 353 789 277 713 q 207 680 304 757 l 256 686 m 392 827 q 387 854 392 838 q 197 688 241 739 q 385 821 366 823 q 391 817 389 820 q 390 809 393 812 q 286 699 327 745 q 310 718 296 707 q 369 759 363 760 q 375 767 373 764 q 392 827 394 798 m 296 60 q 375 134 359 102 q 380 146 378 138 q 275 49 356 132 q 296 60 288 55 m 385 162 q 387 195 387 178 q 330 121 374 175 q 385 162 372 160 m 386 215 q 379 236 384 224 q 321 177 364 218 q 202 49 223 79 l 386 215 m 368 257 q 365 260 364 262 q 336 294 353 278 q 157 102 300 245 q 143 87 151 96 q 133 78 135 80 q 294 236 170 103 q 340 279 335 279 q 345 277 344 279 q 222 111 359 260 q 295 184 251 139 q 368 257 350 242 m 239 336 q 140 214 243 328 q 88 155 104 172 q 276 328 158 218 q 239 336 258 334 m 294 323 q 232 258 282 309 q 144 163 173 197 q 304 317 251 276 q 294 323 298 320 m 221 337 q 161 320 192 335 q 160 313 163 316 l 83 205 q 226 336 140 257 l 221 337 m 127 300 q 96 272 109 288 q 127 300 109 283 m 76 238 q 71 209 72 225 l 114 271 q 76 238 82 242 m 72 155 q 130 222 68 152 q 171 269 144 238 q 68 175 95 197 l 72 155 m 79 129 q 98 97 85 113 q 118 81 109 88 q 148 112 117 80 q 326 302 292 254 q 317 310 321 308 q 109 106 247 257 q 103 104 106 104 l 98 106 q 171 212 85 121 q 79 129 109 153 m 138 68 q 183 47 157 56 l 184 45 q 217 88 193 60 q 169 54 181 54 q 162 57 164 54 q 161 66 158 62 q 309 232 259 170 q 304 227 308 231 q 138 68 176 92 m 230 31 l 237 30 q 347 162 302 108 l 209 37 q 224 33 219 35 l 230 31 m 727 39 q 867 140 730 51 q 994 226 963 203 q 998 233 995 228 q 1001 239 1000 237 q 929 196 975 227 q 874 159 899 175 q 827 126 869 155 q 678 27 718 51 q 727 39 709 35 m 651 113 q 621 71 636 90 q 682 105 646 85 q 1006 312 982 273 l 658 111 q 651 113 654 109 m 678 165 q 659 126 669 145 q 970 334 876 264 l 678 165 m 711 345 q 711 334 711 344 q 801 392 741 354 q 930 480 913 463 q 711 350 884 459 l 711 345 m 629 530 q 632 528 627 532 q 722 579 700 573 q 718 587 718 583 q 728 599 718 597 q 732 600 724 598 l 732 600 q 938 747 871 694 l 610 558 q 603 560 606 555 q 604 568 600 565 l 912 783 q 735 672 868 760 q 570 568 610 589 l 572 557 q 579 555 575 556 q 584 553 583 553 q 590 551 586 553 q 596 548 594 549 q 648 575 642 576 q 652 572 650 574 q 637 544 654 568 q 629 530 627 527 m 939 718 q 946 739 943 729 q 825 650 905 705 q 934 717 882 684 l 939 718 m 774 566 q 732 574 756 570 q 732 570 733 572 l 685 515 l 774 566 m 821 554 q 794 562 814 556 q 703 486 737 515 q 821 554 793 541 m 838 548 q 744 466 827 532 l 867 536 q 838 548 850 544 m 905 517 q 882 530 893 524 q 705 398 754 439 q 905 517 767 432 m 807 423 q 935 494 909 486 q 918 508 926 502 l 807 423 m 756 336 q 711 308 726 317 q 709 283 710 294 l 913 432 q 756 336 869 408 m 705 256 q 693 205 701 232 q 817 292 733 237 q 972 389 880 334 q 711 225 907 368 q 707 224 709 224 l 703 227 q 835 327 695 240 q 979 422 947 396 q 928 389 972 418 q 705 256 743 269 m 1010 277 q 1011 300 1011 289 q 943 244 993 278 q 1000 281 969 261 l 1005 282 q 1009 279 1008 281 l 1010 277 m 1009 328 q 1006 346 1007 338 q 849 235 968 315 l 1009 328 m 997 394 q 994 389 997 391 q 686 185 761 248 l 1004 366 q 997 394 1001 380 m 996 397 q 990 416 993 408 q 970 400 985 411 q 988 403 982 404 q 996 397 994 401 m 534 5 q 544 7 536 6 q 881 205 629 47 q 688 95 821 169 q 534 5 564 26 m 993 262 q 577 11 701 75 q 620 17 601 14 l 620 18 l 623 22 q 868 170 758 98 q 928 210 898 191 q 993 262 978 245 m 996 250 q 1006 254 1001 252 q 1008 265 1005 253 q 996 250 1006 260 m 975 448 q 946 484 964 466 q 859 414 941 467 q 960 465 948 468 q 964 462 963 465 q 963 454 967 457 l 718 274 q 922 399 764 297 q 981 437 961 425 q 975 448 977 445 m 873 653 q 926 698 911 677 q 798 619 844 647 q 873 653 847 635 m 954 827 q 951 837 951 838 q 555 573 633 631 q 728 682 589 589 q 946 808 926 812 q 951 804 950 807 q 950 795 954 799 l 724 637 l 953 769 q 954 827 957 801 m 667 805 q 770 900 661 815 l 659 835 l 656 834 q 665 784 663 808 q 690 805 674 793 q 672 801 677 800 q 667 805 669 802 m 903 932 q 764 844 820 877 q 666 768 684 789 l 666 762 q 785 839 686 770 q 916 917 897 918 q 906 929 911 923 q 903 932 907 928 m 884 891 q 792 829 857 875 q 666 750 687 755 l 663 728 l 884 891 m 687 730 q 935 884 760 766 q 923 905 929 897 l 922 904 l 687 730 m 943 867 q 880 819 927 852 q 947 855 926 846 q 943 867 945 863 m 778 868 q 892 942 827 901 q 835 977 873 958 q 702 874 751 913 l 849 959 q 857 957 854 962 q 855 949 860 952 q 686 816 725 852 q 761 857 707 824 q 769 863 764 859 q 778 868 776 867 m 788 993 l 648 879 q 742 937 677 897 q 819 985 805 977 q 790 997 806 991 l 788 993 m 779 1001 q 712 1019 746 1013 q 701 1021 707 1020 q 692 1015 699 1019 q 628 955 647 975 q 651 970 623 951 q 728 1014 718 1016 q 734 1010 732 1013 q 732 1003 736 1006 q 661 931 683 953 q 779 1001 709 959 m 625 1024 q 595 978 611 1004 q 676 1025 628 997 q 625 1030 654 1029 l 625 1024 m 558 996 q 614 1031 575 1004 l 557 1033 l 558 996 m 494 1020 q 512 1014 503 1018 q 533 1026 522 1019 q 544 1032 543 1031 q 491 1030 518 1032 l 492 1025 l 494 1020 m 468 1028 q 458 1027 443 1026 l 469 1025 l 468 1028 m 526 1008 q 528 1006 531 1004 q 547 994 535 1003 q 545 1019 546 1010 q 526 1008 532 1012 m 559 983 q 575 968 566 977 q 598 1006 580 978 q 559 983 571 989 m 625 901 q 635 884 629 895 l 713 947 q 630 903 636 902 q 626 906 627 904 q 675 962 624 910 l 705 991 q 658 960 689 983 q 610 932 615 932 q 606 936 607 933 q 661 1002 599 947 q 584 958 590 962 q 625 901 606 933 m 749 928 q 645 863 677 882 q 652 845 650 852 q 755 932 663 861 l 749 928 m 643 657 q 633 642 639 650 q 684 675 644 650 q 746 717 720 700 q 876 802 787 743 q 765 732 846 784 q 659 671 665 669 l 654 673 q 681 698 652 679 q 869 825 799 775 q 661 711 685 706 q 643 657 654 679 m 523 569 q 530 568 520 570 q 541 577 534 572 q 526 572 537 576 l 519 570 l 523 569 m 609 542 q 618 536 613 540 q 627 551 623 543 q 631 555 623 544 q 609 542 624 551 m 642 521 q 660 504 652 513 l 708 561 q 642 521 686 549 m 669 492 q 677 479 673 487 q 742 534 697 498 l 669 492 m 686 461 q 693 441 689 454 q 806 532 770 501 q 686 461 765 510 m 698 425 q 701 410 699 421 q 791 479 729 434 l 698 425 m 831 458 q 707 385 747 406 q 709 364 709 363 l 831 458 m 905 121 q 946 159 924 136 q 831 88 928 153 q 789 60 807 72 q 905 121 863 87 m 956 170 q 979 200 969 185 q 911 154 949 180 q 952 171 942 173 q 956 170 954 171 z "},"4":{"ha":1205,"x_min":34,"x_max":1171,"o":"m 970 157 q 744 19 773 16 q 970 184 747 48 l 970 157 m 863 20 q 833 20 840 20 q 874 47 845 28 q 956 100 934 87 q 880 20 886 31 l 863 20 m 616 21 l 873 170 l 656 18 l 616 18 l 616 21 m 951 256 q 615 35 888 196 l 614 62 l 951 256 m 615 146 l 937 332 q 616 119 860 267 q 614 111 612 115 q 619 107 616 108 q 754 180 631 104 q 613 83 651 111 q 612 145 612 109 l 615 146 m 437 256 q 118 252 189 252 l 90 252 q 139 294 109 269 l 141 296 q 481 599 388 509 q 582 701 526 643 l 582 639 l 572 633 q 570 627 569 631 q 574 623 570 623 l 581 623 l 581 567 q 570 542 565 551 q 574 539 571 540 l 581 541 l 581 512 l 585 258 q 437 256 529 257 m 664 804 q 672 802 667 799 l 938 956 q 877 909 918 939 q 605 735 770 848 q 602 732 603 734 q 599 736 602 734 q 663 805 628 767 l 664 804 m 820 974 q 826 974 823 972 l 837 980 q 779 929 812 958 l 786 937 q 820 974 812 966 m 848 1004 l 853 1004 l 841 996 q 845 1000 843 998 l 848 1004 m 901 1005 q 930 1006 922 1006 q 791 924 845 955 q 880 1004 868 991 l 901 1005 m 744 887 q 838 937 749 885 l 680 822 q 741 888 709 854 l 744 887 m 958 1006 l 959 981 l 957 980 l 765 869 l 951 1004 q 952 1006 951 1005 l 958 1006 m 962 775 q 604 566 697 617 l 604 572 q 814 705 650 608 q 959 808 965 796 q 953 812 957 811 q 852 766 939 816 l 961 841 l 962 775 m 962 737 q 801 640 940 728 q 654 548 697 574 l 962 759 l 962 737 m 966 488 q 745 362 928 471 q 793 395 764 376 q 966 511 870 444 l 966 488 m 969 259 q 969 239 968 276 l 884 190 q 969 259 954 239 m 968 277 q 964 277 966 279 l 669 107 q 968 308 780 184 l 968 277 m 968 320 q 851 254 960 322 q 968 347 959 327 l 968 320 m 967 355 q 959 358 964 361 l 909 329 q 967 374 947 356 l 967 355 m 611 178 q 963 386 669 189 q 611 157 891 319 l 611 178 m 604 529 l 604 553 q 827 681 661 583 l 604 529 m 605 487 l 604 508 q 807 629 637 522 q 859 662 837 648 l 605 487 m 962 719 l 963 690 q 958 690 960 691 l 726 555 l 962 719 m 963 679 l 964 649 q 625 443 686 453 l 963 679 m 964 615 q 921 598 950 612 q 964 629 947 616 l 964 615 m 963 554 q 965 556 964 555 l 965 526 q 795 411 876 465 q 789 407 795 412 q 628 320 661 326 l 963 554 m 609 268 q 612 269 611 268 q 672 304 641 286 q 609 257 631 276 l 609 268 m 966 445 l 966 445 q 777 326 865 383 q 682 262 721 290 q 610 227 633 235 l 610 234 l 608 241 q 966 473 680 308 q 966 459 966 468 l 966 445 m 610 192 q 690 253 624 208 q 966 431 796 313 l 967 403 q 610 190 665 200 l 610 192 m 610 215 q 624 220 617 217 q 610 208 616 214 l 610 215 m 608 446 l 606 442 l 605 472 l 841 608 l 608 446 m 610 315 q 618 309 612 311 q 665 323 631 307 q 608 281 618 290 l 607 349 q 884 514 780 454 l 611 323 q 610 315 606 320 m 964 562 l 961 565 q 830 496 952 568 q 964 591 936 568 l 964 562 m 608 397 q 617 396 612 393 q 658 422 605 388 q 754 485 708 455 q 960 603 917 589 q 607 363 903 556 q 606 439 606 406 l 606 438 q 614 432 608 433 q 694 462 632 428 q 610 406 650 432 q 608 397 606 403 m 607 604 q 615 603 610 600 q 939 798 872 772 q 808 715 917 781 q 605 587 650 622 l 606 638 q 852 780 658 667 l 608 612 q 607 604 604 609 m 606 681 q 960 888 897 858 q 606 652 913 830 l 606 681 m 941 942 q 960 960 953 952 l 960 949 q 941 942 951 947 m 960 901 q 812 819 929 887 q 960 921 927 896 q 960 901 960 912 m 961 858 q 900 822 943 847 q 961 870 941 852 l 961 858 m 605 718 q 604 726 605 722 q 611 725 607 722 q 793 838 676 763 q 886 901 848 875 q 960 938 939 931 l 960 936 q 606 696 897 887 l 605 718 m 791 80 q 732 19 735 37 l 694 18 q 791 80 723 36 m 777 19 q 948 125 833 46 q 804 20 899 83 l 777 19 m 972 119 q 945 107 963 117 q 971 132 962 121 l 972 119 m 975 33 q 951 21 972 33 l 951 21 q 973 55 960 35 l 975 33 m 973 27 l 975 24 q 975 22 975 23 l 973 27 m 924 33 q 960 58 949 50 q 937 21 944 34 l 904 20 q 924 33 911 25 m 972 77 q 917 43 963 75 q 972 99 938 66 l 972 77 m 970 205 q 805 103 937 189 q 722 50 748 66 l 970 222 l 970 205 m 1147 251 q 1141 250 1144 251 q 1002 245 1035 246 l 998 245 l 998 249 q 993 252 996 251 q 989 528 991 350 q 992 530 991 528 q 994 538 997 533 q 989 541 992 540 l 987 649 q 992 661 995 656 l 987 664 l 987 721 l 986 775 l 988 777 q 990 785 993 780 q 986 787 989 787 l 985 857 l 989 861 q 991 869 994 864 q 985 871 989 872 q 983 985 983 964 l 982 1002 q 985 1015 986 1008 q 970 1029 983 1027 q 964 1030 967 1031 q 901 1029 954 1031 l 859 1027 q 849 1031 854 1031 q 831 1021 842 1031 l 827 1017 q 768 954 819 1008 l 760 944 q 456 625 549 715 q 119 326 364 536 l 107 315 q 45 261 52 268 l 42 258 q 35 246 36 252 q 37 235 34 241 q 44 220 36 224 q 62 218 52 214 q 71 217 64 218 l 113 216 q 361 218 160 216 l 500 220 l 583 222 l 584 218 q 586 216 585 216 q 590 64 588 121 q 582 50 579 55 q 590 48 585 45 l 591 30 l 407 31 q 384 28 395 39 q 385 3 373 15 q 391 -2 387 -1 q 415 -5 399 -5 l 495 -7 q 863 -4 585 -7 l 1139 -1 q 1157 16 1157 -1 q 1139 35 1157 35 l 998 33 q 994 198 997 62 l 996 199 q 998 208 1001 202 l 996 210 l 1003 210 q 1151 215 1131 212 l 1158 216 q 1171 233 1171 220 q 1151 251 1171 251 l 1147 251 z "},"5":{"ha":1067,"x_min":34,"x_max":1060,"o":"m 659 39 q 839 148 763 100 q 977 227 935 204 q 930 178 959 203 q 783 80 871 121 q 659 39 734 56 m 842 890 q 675 762 704 770 l 673 762 q 736 810 685 771 q 934 997 951 977 q 930 999 932 998 l 972 1000 q 964 985 969 994 q 842 890 947 983 m 869 764 q 866 758 869 768 q 861 760 864 760 l 869 764 m 803 760 q 867 808 812 767 q 863 805 859 802 q 880 817 867 808 l 871 803 q 846 763 847 767 l 844 762 l 844 760 l 803 760 m 474 760 l 458 760 q 475 770 467 764 q 474 760 471 764 m 233 754 q 373 857 310 808 l 470 926 l 273 755 l 233 754 m 178 751 q 348 881 208 759 q 495 994 477 995 q 361 863 496 966 l 209 754 q 178 751 184 753 m 241 1002 q 186 961 229 994 q 186 991 185 975 l 184 996 q 180 998 182 998 l 181 1003 l 241 1002 m 415 759 q 680 987 477 817 q 680 994 684 989 q 675 997 678 996 q 448 837 660 1000 q 341 757 366 774 l 336 757 q 342 765 338 760 q 446 847 378 789 q 498 886 478 871 q 627 994 629 978 l 625 1000 l 740 999 q 691 958 725 987 q 435 759 500 793 l 415 759 m 614 989 q 532 924 602 975 q 614 989 595 981 m 608 1000 q 491 905 587 989 q 437 857 456 873 q 336 774 359 801 q 304 756 318 763 l 291 755 l 575 1000 l 608 1000 m 178 781 q 445 998 233 847 l 447 1000 q 478 1000 397 1001 q 339 890 450 987 q 178 763 207 774 q 178 781 178 755 m 184 901 l 188 902 q 267 960 236 938 q 182 861 174 869 q 189 857 184 858 q 216 870 196 856 q 178 831 190 845 q 179 905 179 863 l 180 904 q 184 901 182 902 m 368 956 q 402 981 386 970 q 368 956 390 972 m 187 824 q 383 998 230 873 q 385 1001 385 998 q 412 1000 404 1001 q 259 883 375 981 q 187 824 205 837 m 353 1001 q 271 932 331 987 q 200 873 216 884 q 326 1001 232 910 l 353 1001 m 304 1002 q 196 924 273 980 q 254 993 212 947 q 261 1002 261 1000 l 304 1002 m 183 945 l 186 946 q 217 969 203 959 q 179 919 186 933 q 180 947 180 946 q 183 945 180 946 m 189 810 q 178 799 183 805 q 178 804 178 800 q 189 810 182 806 m 477 946 q 506 990 506 977 q 502 1000 506 996 l 553 1000 l 477 946 m 362 758 q 397 784 364 760 q 456 828 428 807 q 622 954 572 918 q 529 874 574 913 q 397 758 418 779 l 362 758 m 566 816 q 528 760 524 778 l 488 760 l 566 816 m 864 999 q 538 762 580 779 q 747 941 538 790 q 804 994 810 987 l 800 996 l 797 996 l 526 802 q 633 888 552 825 q 766 999 753 982 l 864 999 m 855 968 q 884 999 880 991 l 907 999 q 855 968 889 992 m 558 760 q 777 916 611 791 q 592 761 708 857 l 558 760 m 621 761 q 708 833 644 780 q 926 992 904 1000 q 728 819 924 971 q 657 762 661 767 l 621 761 m 943 940 q 905 905 930 926 q 717 762 850 874 l 701 762 q 850 882 738 783 q 957 969 936 956 q 943 940 949 952 m 739 762 q 855 847 805 808 q 774 761 785 784 l 739 762 m 901 846 q 858 817 899 846 q 792 768 819 787 q 919 887 824 806 q 901 846 917 882 m 871 781 l 880 796 l 877 785 l 871 781 m 607 45 q 880 201 639 42 q 1010 286 987 273 l 1008 279 q 835 159 972 245 q 621 30 698 77 q 578 21 593 24 q 583 24 580 22 q 607 45 594 31 m 671 260 q 673 287 673 274 q 781 351 692 297 q 930 439 869 404 l 671 260 m 675 328 q 696 333 682 327 q 675 318 682 323 l 675 328 m 669 406 l 837 503 l 672 384 l 671 392 q 669 406 671 398 m 829 587 l 658 456 q 651 476 655 466 l 655 477 q 829 587 772 559 m 687 563 q 633 522 644 531 q 626 536 629 532 q 711 589 648 549 q 780 633 736 606 q 687 563 758 614 m 575 610 q 561 622 571 614 q 609 650 576 629 q 575 610 587 625 m 463 661 q 459 661 453 662 q 458 661 457 661 q 465 662 460 661 l 463 661 l 463 661 m 543 667 q 534 662 541 666 q 520 653 524 654 l 465 662 q 533 667 500 667 l 543 667 m 686 656 q 708 652 698 654 l 718 650 q 633 600 689 635 l 686 656 m 765 638 q 705 600 751 630 q 622 547 644 560 q 619 551 622 547 q 739 646 656 586 q 765 638 745 644 m 667 608 q 613 562 632 580 q 608 570 606 574 q 667 608 643 593 m 600 582 q 589 596 595 589 q 642 629 602 602 q 650 635 654 638 l 600 582 m 591 610 q 637 664 604 627 q 667 660 654 662 q 635 640 656 653 q 591 610 604 618 m 613 666 q 552 629 568 637 q 554 637 553 631 q 557 649 556 644 q 562 668 562 666 q 613 666 587 668 m 541 652 q 547 656 547 656 q 546 652 546 653 q 547 652 546 651 q 541 633 544 642 q 524 642 534 637 q 541 652 527 644 m 754 557 q 817 618 821 612 q 846 606 833 612 q 754 557 823 601 m 793 629 q 812 622 806 624 q 745 591 800 624 q 793 629 779 616 m 791 603 q 648 487 755 573 q 639 509 643 499 q 791 603 741 578 m 870 568 q 745 476 858 551 q 666 422 680 434 q 664 433 665 429 q 770 503 688 446 q 870 568 854 562 m 751 467 q 882 575 891 558 q 876 579 880 578 q 763 513 863 583 q 663 446 690 460 l 858 595 q 860 598 859 597 q 916 562 890 581 l 746 463 q 751 467 745 463 m 673 370 l 927 552 q 941 541 937 545 q 819 463 920 532 q 673 370 708 387 m 674 359 q 826 454 706 372 q 859 477 840 464 q 882 492 878 490 l 675 342 l 674 359 m 954 529 q 960 522 956 526 q 967 515 965 517 q 859 446 942 501 q 704 349 743 370 l 954 529 m 858 432 q 866 437 864 435 q 975 506 950 492 q 848 425 949 485 q 858 432 852 428 m 983 496 q 989 487 986 492 q 775 361 951 467 q 711 323 747 344 q 674 300 681 304 q 674 304 676 349 q 835 404 710 330 q 983 496 954 475 m 1009 448 q 1005 451 1008 450 q 800 335 1000 452 l 999 473 q 1023 422 1015 448 q 854 319 939 370 q 1009 448 1021 427 m 1020 343 q 828 231 998 348 q 665 130 682 130 l 665 132 q 687 159 667 141 q 1030 372 779 195 q 1026 338 1029 355 q 1020 343 1023 342 m 835 221 q 1015 332 996 332 q 810 199 1004 315 q 746 161 773 178 q 835 221 774 180 m 816 189 q 1023 324 1005 302 q 1016 300 1020 313 q 873 212 998 294 q 618 56 659 70 q 630 74 626 66 q 816 189 671 103 m 655 123 q 662 119 657 119 q 695 130 670 117 q 643 96 665 111 q 653 130 649 110 l 655 123 m 658 151 l 664 152 q 655 139 659 145 q 657 147 656 143 l 658 151 m 728 191 q 939 323 802 244 q 728 191 810 235 m 1030 387 q 680 168 762 241 q 660 161 665 161 q 863 298 683 182 q 1027 407 999 387 q 1029 394 1029 400 l 1030 387 m 679 251 q 989 431 916 389 q 672 220 930 374 q 670 212 667 217 q 674 210 671 210 q 840 298 686 206 q 663 179 691 201 q 671 252 667 211 q 679 251 674 248 m 995 254 q 989 245 996 256 q 972 236 983 242 q 995 254 986 247 m 365 72 q 322 43 349 55 q 292 34 313 38 l 372 80 q 365 72 369 75 m 390 172 q 258 77 365 148 q 206 42 220 52 q 189 50 197 46 q 187 51 193 48 q 291 113 271 101 q 390 172 363 157 m 269 134 q 186 73 231 106 q 171 61 174 64 q 152 73 155 71 q 323 175 273 146 l 269 134 m 73 170 q 68 184 70 177 q 189 254 99 201 q 176 245 187 253 q 73 170 92 188 m 146 265 l 64 202 l 64 222 q 146 265 78 221 m 98 285 q 123 298 101 283 q 66 240 105 275 q 71 260 68 249 q 94 293 79 279 q 94 288 92 290 q 98 285 96 285 m 98 296 q 96 295 98 296 l 101 299 q 124 311 111 306 q 117 308 125 311 q 98 296 103 298 m 214 324 q 181 302 206 318 q 85 242 114 258 q 145 317 153 303 q 168 323 156 321 q 191 325 178 325 q 214 324 201 325 m 286 243 q 108 140 146 160 q 224 221 133 160 q 317 296 323 287 q 313 299 316 298 q 131 196 299 302 q 113 185 125 193 q 99 177 104 180 q 183 235 125 196 q 271 309 276 300 q 267 311 269 311 l 263 311 q 102 216 193 269 l 237 321 q 262 317 245 320 q 337 292 313 307 q 351 282 345 288 q 286 243 347 279 m 370 260 l 372 257 q 336 237 358 250 q 368 263 354 250 l 370 260 m 136 86 q 123 98 130 92 q 129 100 125 98 q 135 104 132 102 q 213 151 168 124 q 136 86 151 107 m 144 123 l 115 105 q 100 122 109 112 q 292 233 127 136 q 360 273 347 266 l 361 272 q 144 123 310 225 m 136 186 q 286 277 250 258 q 218 231 269 264 q 90 138 108 157 q 81 152 84 144 q 136 186 92 158 m 378 244 q 387 222 382 235 q 149 85 354 208 q 378 244 189 130 m 385 101 l 315 60 q 394 125 377 111 q 391 117 393 121 q 385 101 389 109 m 397 147 l 307 96 q 397 163 376 142 l 397 147 m 250 102 q 225 87 231 90 q 391 210 345 176 q 395 188 393 198 q 285 123 382 181 q 250 102 271 114 m 361 115 q 252 25 313 73 q 224 35 234 30 l 361 115 m 185 664 q 184 733 184 701 q 227 734 193 734 q 267 734 261 734 l 319 736 q 357 736 332 736 q 402 737 388 737 l 410 737 q 697 741 583 741 l 846 739 q 875 745 865 737 q 904 790 888 755 q 995 990 994 988 q 998 991 998 990 l 1001 993 q 1006 1007 1008 998 l 1003 1013 q 999 1016 1001 1015 q 988 1025 996 1023 q 981 1027 984 1027 q 970 1021 975 1027 l 835 1020 q 227 1023 664 1020 q 193 1024 217 1023 q 159 1025 170 1025 q 160 665 156 801 q 149 481 154 528 l 148 468 q 155 446 141 454 q 163 443 159 443 q 175 448 170 443 q 181 454 179 450 l 184 458 l 185 460 l 187 467 q 189 472 188 469 q 254 555 222 526 q 357 625 305 604 q 401 639 376 633 l 406 638 q 429 638 414 637 l 444 639 q 468 636 458 639 q 548 603 515 627 q 593 550 574 583 q 597 544 595 548 q 591 528 589 533 q 596 524 593 526 q 606 526 600 524 q 637 441 626 486 l 635 439 q 633 432 631 437 q 640 427 636 428 q 648 389 646 406 q 650 368 650 380 l 646 366 q 645 358 642 363 q 651 353 646 355 l 651 299 q 641 275 635 284 q 645 273 642 273 l 649 273 q 634 152 645 208 q 615 93 627 114 q 570 43 595 60 q 534 31 561 37 q 511 25 519 27 l 506 22 q 446 15 468 18 q 336 19 401 10 l 328 20 q 332 22 330 20 q 382 56 363 35 q 414 110 404 80 q 418 191 424 145 q 398 256 414 224 q 405 260 410 262 q 408 268 410 262 l 404 271 q 393 267 401 271 l 390 272 q 383 281 387 277 q 385 294 388 289 q 380 297 383 296 q 372 294 379 298 q 349 312 362 304 q 267 340 321 329 q 191 347 226 347 q 164 346 177 347 q 87 318 117 339 q 50 269 62 299 q 42 194 36 232 l 43 186 l 38 181 q 36 174 34 178 q 40 171 37 172 l 47 173 q 79 113 57 140 q 151 46 106 76 q 148 37 145 41 q 151 35 149 35 q 163 38 154 34 q 178 29 171 33 q 191 24 180 28 q 194 20 193 20 l 198 20 q 332 -16 257 -6 q 394 -20 362 -20 q 485 -16 431 -20 q 643 11 536 -13 q 793 59 739 33 q 947 160 883 102 q 1025 262 1002 212 q 1053 397 1060 338 q 1047 422 1051 408 q 1048 431 1051 427 q 1045 433 1047 433 q 1018 486 1035 460 q 1021 494 1023 490 q 1017 497 1019 496 l 1011 496 q 998 514 1004 507 q 997 522 999 518 q 992 525 996 524 l 989 525 q 865 623 941 580 q 806 648 838 637 q 806 651 806 650 q 801 654 804 654 q 794 653 798 655 q 713 675 758 665 q 532 690 619 694 q 343 656 414 686 q 229 581 286 634 q 205 549 224 576 q 179 513 183 517 q 184 664 186 591 l 185 664 z "},"6":{"ha":1135,"x_min":34,"x_max":1101,"o":"m 1064 283 q 1059 286 1062 286 q 923 203 1046 289 q 718 77 756 87 l 1067 319 q 1069 326 1072 321 q 1065 329 1067 329 l 1061 328 q 983 282 1054 326 q 747 141 808 174 q 1073 363 841 208 l 1074 358 q 1064 283 1075 325 m 1014 175 q 769 36 1010 176 q 1041 219 874 109 q 1036 208 1038 212 q 1014 175 1027 191 m 831 39 q 732 1 782 14 q 989 150 922 111 q 974 136 983 144 q 831 39 909 78 m 798 94 l 1061 273 q 1050 239 1057 256 l 798 94 m 642 -14 q 657 8 648 -5 l 658 6 q 666 4 661 1 l 897 136 q 859 112 873 121 q 684 -9 715 15 q 642 -15 661 -13 l 642 -14 m 618 -4 l 615 -1 q 604 5 611 1 l 600 9 l 594 12 l 596 13 l 593 18 l 595 24 q 583 20 593 25 l 578 24 l 572 28 q 559 38 566 33 q 557 42 559 41 l 553 43 q 537 61 544 52 q 538 70 541 66 l 535 73 q 530 72 532 73 q 518 92 524 81 l 518 100 q 513 102 516 103 q 504 124 508 113 l 511 130 q 512 138 515 134 q 507 142 511 141 q 498 140 505 142 q 498 143 500 134 q 493 160 496 151 l 500 166 q 502 174 505 169 q 498 176 500 176 q 490 174 495 177 q 476 277 481 216 l 475 284 q 470 356 472 317 l 473 358 q 475 366 478 361 q 471 369 474 368 l 469 370 q 467 431 467 397 q 474 448 478 441 q 471 452 473 451 l 467 451 l 468 555 q 496 583 478 564 q 552 629 530 617 q 637 662 592 650 q 655 637 644 652 l 652 632 q 653 625 650 628 q 660 624 656 621 l 664 626 l 664 625 q 714 543 703 575 q 721 518 719 529 q 715 503 726 507 q 714 496 712 500 q 718 492 715 493 q 725 494 720 492 q 731 347 734 434 l 727 344 q 725 336 722 340 q 730 332 726 333 l 730 332 q 729 310 729 315 l 728 304 l 723 300 q 722 292 718 296 q 727 289 724 289 q 689 106 718 178 q 646 33 677 77 q 621 -4 631 14 l 618 -4 m 555 -14 q 551 -13 562 -14 q 571 -1 560 -7 q 587 -12 578 -7 l 592 -15 q 594 -16 596 -18 q 555 -14 573 -16 m 355 41 q 480 119 436 96 l 384 29 q 361 38 372 34 q 355 41 366 37 m 302 67 q 281 81 290 75 q 413 159 361 130 l 302 67 m 353 162 q 262 94 283 114 q 252 102 256 98 q 353 162 280 118 m 221 128 q 364 209 252 142 l 236 115 q 221 128 229 121 m 170 183 q 363 300 279 251 q 191 161 182 178 q 195 158 193 159 l 200 159 q 449 308 399 289 q 211 138 414 268 q 170 183 189 159 m 113 274 q 443 464 150 281 q 217 313 405 427 q 123 253 130 261 q 113 274 119 262 m 323 645 l 66 469 q 64 461 62 466 q 68 458 66 459 q 189 527 72 457 q 442 675 400 654 q 68 429 386 618 l 67 427 q 60 493 61 462 l 323 645 m 146 793 q 525 1010 175 795 q 260 840 481 972 q 123 755 144 772 q 138 781 131 770 q 146 793 142 787 m 234 888 q 247 899 240 892 q 255 897 250 894 l 306 926 l 180 833 l 174 828 q 234 888 200 858 m 351 966 q 355 968 347 964 l 292 932 q 351 966 319 950 m 539 1033 q 195 829 304 888 q 394 977 317 920 q 395 985 399 981 l 395 987 q 539 1033 474 1021 m 643 1041 q 623 1033 632 1037 l 619 1036 l 614 1035 l 405 914 q 549 1032 561 1011 l 546 1034 q 631 1041 587 1041 l 643 1041 m 463 785 q 463 781 464 789 l 198 629 l 469 809 q 463 785 467 800 m 447 570 q 444 564 445 568 q 441 565 443 565 q 387 548 428 568 l 445 588 l 444 578 q 447 570 444 574 m 444 399 q 168 237 391 374 q 323 337 200 264 q 444 412 414 392 l 444 399 m 445 377 q 445 369 445 370 l 446 359 q 344 303 412 342 q 445 377 417 354 m 149 212 q 425 376 340 330 q 162 193 352 321 q 149 212 156 201 m 417 408 q 317 348 388 390 q 140 226 152 249 q 129 243 134 233 l 131 243 l 417 408 m 443 437 l 381 402 q 443 447 422 429 l 443 437 m 439 504 q 441 512 444 507 q 433 518 438 517 q 414 516 427 519 q 444 541 435 531 l 443 478 q 125 290 191 321 q 439 504 180 341 m 170 357 q 218 388 184 367 q 361 479 313 447 q 419 506 401 501 q 266 406 336 453 q 107 288 124 312 q 99 308 103 297 q 170 357 135 334 m 447 633 l 446 611 q 288 513 415 596 q 112 402 155 426 l 447 633 m 351 593 q 449 666 425 642 l 448 648 l 351 593 m 453 720 q 450 692 452 707 q 218 559 429 684 l 453 720 m 459 764 q 454 734 456 749 l 452 733 l 197 587 l 459 764 m 62 578 q 280 714 179 650 q 427 812 374 774 q 474 831 457 827 l 473 827 l 60 551 q 62 578 61 566 m 71 624 q 216 711 141 665 q 467 856 406 823 q 419 821 451 843 q 65 595 301 762 q 71 624 67 610 m 75 643 q 85 674 79 657 l 509 919 l 505 912 q 227 731 431 856 q 75 641 160 692 q 75 643 73 636 m 313 819 q 532 955 464 911 q 522 940 526 948 l 313 819 m 489 879 q 461 866 484 878 q 494 889 479 878 q 489 879 491 883 m 477 844 q 468 842 473 844 q 479 851 475 847 l 477 844 m 114 734 q 119 735 117 734 l 558 989 l 555 985 q 272 808 484 937 q 96 700 134 725 q 112 735 103 718 l 114 734 m 60 534 l 331 691 l 59 507 l 60 534 m 68 418 q 75 418 71 417 l 321 561 l 74 391 q 68 418 71 404 m 77 376 q 294 503 102 377 q 378 557 352 540 l 220 449 q 83 355 152 404 q 77 376 81 365 m 225 437 q 439 553 417 564 q 352 487 433 541 q 165 368 281 448 q 94 321 105 331 q 87 342 90 331 l 225 437 m 448 319 q 245 202 406 304 q 447 340 315 254 q 448 319 448 329 m 416 192 q 458 220 448 214 q 461 198 460 209 q 283 96 448 196 q 416 192 317 124 m 456 239 q 359 180 437 228 q 285 136 311 151 l 454 260 q 456 239 454 249 m 452 276 q 341 210 394 241 q 450 292 423 267 q 452 276 451 283 m 420 132 q 340 83 364 98 l 463 186 q 468 162 466 173 q 420 132 453 153 m 320 58 q 427 122 344 71 q 438 129 433 126 l 340 47 q 320 58 330 52 m 431 56 l 485 106 q 491 91 488 98 l 431 56 m 464 33 q 474 43 466 35 q 502 71 493 61 q 509 60 504 67 q 464 33 481 43 m 538 -9 l 538 -12 q 497 -4 519 -9 q 541 22 512 5 q 544 20 542 21 l 538 -9 m 431 14 q 399 24 416 18 l 492 78 q 465 52 484 69 q 431 14 433 20 m 511 47 l 498 32 q 473 1 479 9 q 446 9 459 5 q 488 34 453 13 l 511 47 m 561 7 q 552 2 601 30 l 554 12 q 557 9 553 12 l 561 7 m 532 31 q 494 9 511 18 q 507 24 499 14 q 522 41 517 35 q 532 31 527 35 m 475 136 q 476 131 469 156 q 417 96 454 119 l 473 142 l 475 136 m 656 677 l 656 678 q 660 679 650 677 l 656 677 m 668 661 q 663 667 669 659 q 676 674 669 670 l 668 661 m 677 648 l 675 650 l 694 683 l 703 683 q 735 681 717 683 l 677 648 m 876 637 q 747 557 792 581 l 836 642 q 836 650 840 646 q 828 652 833 654 q 745 597 778 614 q 749 600 768 618 q 814 664 800 648 q 867 642 842 654 q 876 637 867 642 m 909 490 q 977 564 987 549 l 974 568 q 937 547 970 568 q 794 458 836 481 l 954 585 l 955 587 q 1001 543 982 566 l 909 490 m 826 359 l 1019 498 q 1021 507 1023 502 q 1016 510 1019 509 q 854 418 1004 513 q 826 400 840 409 l 1010 532 q 1019 522 1018 523 q 1041 483 1031 505 l 826 359 m 741 205 q 888 289 774 216 l 739 184 q 738 176 734 181 q 746 174 741 172 q 955 298 861 243 q 888 252 915 271 q 726 140 760 165 q 741 205 734 170 m 704 82 q 711 98 709 92 q 717 113 713 102 q 898 216 749 126 l 704 82 m 698 69 q 705 64 701 65 q 761 83 720 61 l 663 16 q 665 20 670 26 q 698 69 686 48 m 748 256 q 848 320 766 264 q 1043 438 1019 436 q 745 231 1011 404 q 748 256 747 243 m 937 409 l 779 297 q 750 277 757 281 q 752 303 751 288 l 937 409 m 755 342 q 861 408 779 355 q 954 466 924 448 l 753 321 q 755 342 754 336 m 884 545 l 758 444 q 756 437 753 441 q 761 433 758 434 q 944 536 777 429 l 956 544 q 760 404 908 498 q 758 396 755 401 q 766 394 761 391 l 923 485 l 755 364 q 752 469 757 423 l 884 545 m 751 484 q 748 505 749 496 q 846 562 782 522 l 751 484 m 887 632 q 913 616 899 626 q 787 540 843 572 q 887 632 885 612 m 810 517 l 924 609 q 945 594 935 602 l 810 517 m 740 541 q 852 607 771 554 q 744 524 816 575 q 740 541 743 531 m 733 560 q 726 578 730 570 q 774 600 736 576 l 733 560 m 713 614 q 800 666 774 652 q 741 609 783 649 q 720 588 722 591 q 707 609 714 598 q 713 614 709 611 m 699 623 q 685 638 692 628 l 745 673 q 699 623 730 656 m 764 677 q 786 672 774 675 q 729 637 766 661 q 764 677 754 665 m 1072 377 q 876 265 1040 362 l 1068 400 q 1072 377 1071 389 m 1065 416 q 969 355 1046 406 q 759 226 810 252 q 1056 444 1067 426 q 1049 449 1054 448 q 924 385 1028 454 q 1046 473 1037 466 q 1065 416 1058 445 m 882 723 q 852 726 860 723 l 983 826 q 882 723 940 781 m 791 758 q 950 886 827 776 q 955 890 953 889 q 812 755 905 838 q 812 747 808 751 q 817 743 813 744 q 863 770 828 743 q 831 734 839 747 l 829 736 q 791 758 808 745 m 743 817 q 831 883 773 838 q 759 795 748 809 l 763 793 q 768 794 766 793 q 967 960 902 918 q 975 952 972 956 q 803 796 939 911 q 774 771 781 777 q 758 787 765 779 q 743 817 748 801 m 737 858 q 835 933 764 877 q 795 895 819 918 q 739 840 755 857 l 737 858 m 749 913 q 785 940 755 917 l 741 888 q 749 913 744 903 m 799 965 q 769 942 781 951 q 799 965 781 955 m 888 989 q 753 884 804 923 l 829 974 q 829 980 831 976 q 884 990 859 991 l 888 989 m 947 972 q 957 966 952 969 q 804 842 907 934 q 888 919 831 868 q 947 972 936 960 m 901 988 q 932 979 916 985 q 753 839 816 886 q 804 887 768 853 q 901 988 903 981 m 1008 909 q 939 850 989 895 q 868 789 891 808 q 990 928 1002 912 q 986 930 989 930 q 942 895 982 930 q 787 767 823 787 q 810 787 794 773 q 983 944 948 903 q 1006 911 997 928 q 1008 909 1006 913 m 846 736 q 962 841 868 762 q 1017 889 1002 875 q 1021 870 1021 879 l 846 736 m 1017 823 q 965 791 1006 823 q 1021 852 1008 835 q 1017 823 1020 837 m 930 739 q 911 731 922 735 q 1011 810 988 798 q 1006 799 1008 803 q 930 739 989 772 m 913 1008 q 800 993 844 1015 q 732 932 751 967 q 714 856 715 902 q 713 848 710 852 l 718 820 q 709 801 705 806 l 713 799 q 723 802 715 798 q 741 772 729 787 q 819 715 766 739 q 862 704 833 707 q 928 712 891 701 q 942 719 935 715 q 1026 787 1006 754 q 1045 871 1047 821 q 1036 907 1043 889 q 1040 922 1044 916 q 1035 925 1038 924 l 1027 923 q 998 963 1015 944 q 851 1054 937 1030 q 689 1074 766 1077 q 534 1057 612 1071 q 340 988 444 1040 q 218 905 274 954 q 118 794 156 851 q 52 650 74 726 q 35 510 34 585 q 60 347 36 431 q 120 212 83 268 q 142 180 130 196 q 142 173 140 176 q 149 171 144 169 q 216 100 180 132 l 208 94 q 206 86 203 90 q 210 83 208 83 q 229 90 214 82 q 248 75 238 82 l 249 69 l 252 66 q 257 67 255 66 q 352 16 299 39 q 553 -37 454 -27 q 604 -41 576 -41 q 705 -31 654 -41 q 842 17 773 -17 q 990 118 923 58 q 1058 197 1039 161 q 1097 359 1101 282 q 1038 536 1093 457 q 1029 547 1034 541 l 1029 553 q 1023 555 1027 557 q 878 664 968 620 q 703 707 789 707 l 697 707 q 535 661 617 705 q 474 611 510 648 l 473 614 q 470 617 472 616 q 473 676 472 652 q 486 780 478 738 q 498 829 493 811 l 500 831 q 503 839 505 834 l 501 841 q 518 884 509 865 q 544 931 529 907 q 551 941 550 937 q 589 986 571 970 q 634 1016 610 1004 q 684 1034 659 1028 q 913 1008 774 1055 z "},"7":{"ha":1121,"x_min":1,"x_max":1115,"o":"m 1059 956 q 882 848 1038 954 q 640 699 677 709 l 639 699 q 729 755 655 710 q 1029 970 1042 947 q 1026 973 1027 972 l 1074 974 q 1059 956 1067 966 m 865 703 q 859 695 870 710 q 854 696 857 696 l 865 703 m 787 698 q 879 752 812 713 q 898 763 859 741 l 882 747 q 837 701 842 707 l 836 700 l 834 697 l 787 698 m 412 709 q 408 696 406 701 l 390 696 q 412 709 401 703 m 127 691 q 328 808 239 754 l 467 888 l 174 692 l 127 691 m 63 688 q 309 837 100 696 q 522 968 502 968 q 317 816 512 935 l 100 690 q 63 688 73 690 m 162 978 l 232 976 q 152 929 210 964 q 163 964 156 944 l 163 969 q 160 972 162 971 l 162 978 m 339 696 q 732 959 431 761 q 734 967 737 962 q 730 970 733 970 q 406 786 713 975 q 253 694 286 713 l 247 694 q 258 703 251 698 q 408 798 309 732 q 484 843 433 813 q 673 966 669 949 l 673 974 l 806 973 q 733 925 785 960 q 362 696 450 736 l 339 696 m 656 962 q 538 887 637 945 q 656 962 633 952 m 616 974 l 653 974 q 483 865 625 962 q 402 809 431 828 q 254 714 291 744 q 211 693 229 701 l 195 692 l 616 974 m 75 722 q 465 971 162 798 l 468 975 q 504 975 411 975 q 302 847 467 959 q 68 701 105 714 q 75 722 66 695 m 123 863 q 127 861 125 861 l 132 861 q 245 928 192 897 q 110 814 104 823 q 115 810 111 810 q 152 824 124 808 q 94 780 114 797 q 123 864 106 817 l 123 863 m 410 953 q 360 924 384 938 q 410 953 389 941 m 207 839 q 101 771 125 785 q 394 971 170 827 q 397 975 396 972 q 428 975 419 975 q 207 839 379 953 m 360 975 q 239 897 330 960 q 135 828 159 842 q 330 975 186 871 l 360 975 m 304 976 q 150 886 267 955 q 243 966 176 912 q 255 976 254 974 l 304 976 m 140 913 q 142 911 141 911 l 147 911 q 191 939 168 925 q 128 880 142 897 q 140 913 139 911 m 84 749 q 98 755 89 751 q 82 743 90 750 q 84 749 82 744 m 591 974 l 482 911 q 532 963 528 947 q 532 975 534 970 l 591 974 m 278 694 q 412 776 312 715 q 652 920 583 881 q 515 829 578 871 q 319 695 348 718 l 278 694 m 423 697 l 535 762 q 470 698 473 718 l 423 697 m 949 973 q 482 700 537 720 q 791 907 494 732 q 878 967 882 960 l 874 970 l 870 969 l 484 746 q 641 846 528 775 q 836 973 814 954 l 949 973 m 927 938 q 972 973 966 965 l 999 973 q 927 938 975 965 m 505 698 q 817 878 579 734 q 544 699 700 800 l 505 698 m 577 699 q 705 781 610 719 q 1017 965 996 975 q 723 766 1008 941 q 620 699 625 705 l 577 699 m 1017 905 q 960 864 994 887 q 689 699 885 829 l 671 699 q 889 838 721 724 q 1044 939 1014 922 q 1017 905 1031 922 m 714 699 q 880 798 806 751 q 753 699 776 726 l 714 699 m 934 797 q 873 762 930 797 q 778 707 804 722 q 970 844 830 751 q 934 797 951 819 m 873 722 l 890 739 q 882 726 888 736 l 873 722 m 1112 993 q 1102 1004 1109 1001 q 1095 1006 1098 1006 q 1080 998 1088 1006 l 924 997 q 223 1000 710 997 l 182 1001 q 186 1013 184 1008 q 195 1037 193 1032 q 200 1052 199 1048 l 202 1058 q 201 1072 205 1065 q 191 1081 198 1079 q 168 1070 174 1086 l 161 1049 q 1 579 6 597 l 1 574 l 1 572 q 2 566 1 569 q 6 560 3 562 q 18 558 12 556 l 23 560 q 36 569 33 559 q 55 627 37 572 l 67 663 q 71 665 69 663 l 79 665 q 160 668 104 667 l 220 669 q 316 671 260 670 l 325 671 q 659 675 526 675 l 829 673 q 570 285 752 562 q 400 29 456 112 q 405 3 389 15 q 415 0 409 0 q 430 8 423 0 q 600 265 505 119 q 916 732 831 615 q 1096 963 1016 870 q 1101 964 1099 963 l 1105 966 q 1115 982 1115 971 l 1114 988 q 1112 993 1113 991 z "},"8":{"ha":1019,"x_min":7,"x_max":1012,"o":"m 939 194 q 932 198 937 197 q 868 172 918 201 l 913 203 q 966 238 939 220 q 939 194 955 216 m 894 145 q 697 32 821 79 q 661 20 680 26 q 742 75 686 36 q 930 187 916 193 l 932 184 q 894 145 916 164 m 576 17 l 565 16 q 347 39 472 12 q 186 96 254 60 q 103 155 133 123 q 57 226 72 187 q 44 296 43 262 q 62 362 47 336 q 121 418 81 396 q 200 441 141 429 q 244 450 227 446 q 264 441 255 446 l 274 437 q 394 395 306 422 l 399 393 q 457 374 438 381 q 458 372 457 373 q 463 368 460 369 q 474 369 467 367 q 541 342 516 355 l 549 338 q 616 302 595 315 l 616 296 q 621 293 617 294 q 629 294 623 292 q 646 281 637 288 q 645 272 643 276 l 649 269 q 654 270 651 269 l 656 272 q 665 262 661 266 q 693 174 695 222 q 659 74 691 117 q 576 17 626 31 m 162 528 q 435 694 361 661 l 183 511 q 167 524 174 517 q 162 528 173 519 m 153 538 q 138 555 146 546 q 358 686 276 640 l 153 538 m 118 585 q 124 588 119 585 q 396 757 334 734 l 130 567 q 118 585 122 578 m 197 713 q 104 625 94 641 q 112 622 106 619 l 244 699 q 113 595 126 615 l 106 608 q 92 652 98 627 l 197 713 m 172 912 q 199 935 183 924 l 201 930 l 199 924 q 225 937 202 924 q 127 858 189 906 q 172 912 146 888 m 255 968 q 204 939 219 947 q 255 968 227 955 m 275 977 q 399 1008 328 999 q 132 846 208 884 q 267 968 274 956 q 263 971 266 970 l 261 971 q 275 977 269 975 m 481 1014 q 439 991 454 1002 q 425 980 433 986 l 419 980 q 380 954 426 984 q 291 895 333 923 q 100 788 130 792 q 326 944 118 811 q 429 1011 417 1002 q 483 1015 454 1013 q 481 1014 471 1010 m 526 1003 q 654 995 599 1003 q 806 949 739 982 q 883 894 857 924 q 925 817 917 855 q 920 739 935 771 q 850 671 906 708 q 802 651 836 662 q 778 642 792 648 q 656 675 744 656 l 647 677 q 503 720 540 701 q 377 817 400 773 l 382 820 q 385 828 387 823 q 376 830 381 833 l 372 828 q 378 896 362 859 q 454 972 391 926 q 490 991 466 981 q 511 1001 501 996 l 526 1003 m 684 74 q 723 87 697 75 l 669 50 q 684 74 676 60 m 709 130 q 719 134 713 131 q 707 124 713 130 q 709 130 706 120 m 945 396 q 842 332 919 378 q 705 240 724 262 q 698 255 702 247 q 741 279 704 258 l 945 396 m 943 444 q 809 350 935 428 q 690 267 700 283 q 684 276 686 273 q 676 286 682 279 q 943 444 906 440 m 616 330 q 899 494 671 357 q 637 317 820 434 q 616 330 627 324 m 886 529 q 654 371 847 492 q 602 338 610 344 q 577 351 589 345 l 886 529 m 835 544 q 564 357 751 481 l 559 359 l 552 363 q 538 370 547 366 q 835 544 744 493 m 538 402 q 515 379 522 389 q 505 383 510 381 q 538 402 520 391 m 462 398 q 608 484 502 417 l 478 393 q 462 398 469 396 m 434 408 q 412 414 425 410 q 612 533 449 429 l 434 408 m 705 631 q 390 422 659 576 l 389 422 q 363 429 374 426 q 705 631 443 467 m 458 546 q 486 564 472 555 q 646 653 609 642 l 651 652 l 657 650 q 342 437 642 608 q 311 448 324 443 q 458 546 391 500 m 562 633 q 477 574 528 608 q 296 453 394 521 q 283 459 289 456 l 275 463 q 271 465 277 462 l 562 633 m 421 593 q 262 469 256 488 q 250 474 256 471 q 240 474 245 477 q 233 482 239 479 l 231 484 l 421 593 m 236 512 q 219 490 220 498 q 203 498 212 494 q 236 512 216 503 m 248 507 q 315 556 269 524 q 494 672 390 602 q 517 688 510 683 q 545 678 531 683 l 248 507 m 560 674 q 594 665 574 670 l 291 490 q 450 597 325 517 q 560 674 556 664 m 627 657 q 595 642 613 652 q 616 660 609 653 l 627 657 m 698 641 q 558 555 628 597 q 669 648 659 623 q 698 641 684 644 m 661 578 q 720 635 713 618 q 744 629 732 632 q 661 578 730 623 m 684 547 q 456 408 506 432 l 755 620 q 758 625 758 621 q 774 618 767 621 l 783 618 q 788 612 784 614 q 684 547 781 610 m 668 499 q 504 396 547 420 l 794 601 q 796 608 798 604 q 821 594 809 601 q 668 499 789 578 m 713 443 q 871 559 842 531 q 888 544 881 551 l 713 443 m 794 406 q 930 504 899 476 q 938 494 935 498 q 799 409 911 481 l 794 406 m 718 238 q 848 322 741 259 q 976 410 964 391 q 980 389 979 399 l 718 238 m 985 351 l 746 213 q 983 375 823 270 l 985 351 m 985 334 q 984 313 985 323 q 876 243 964 302 q 729 151 765 170 l 985 334 m 717 182 l 895 284 l 715 156 q 717 174 717 165 l 717 182 m 842 296 q 715 203 749 232 q 711 220 713 211 l 842 296 m 952 471 q 971 425 963 451 l 968 425 q 739 292 810 333 q 815 340 762 307 q 954 450 965 432 q 947 455 952 454 q 755 351 924 460 q 857 418 789 374 q 949 478 931 465 q 952 471 951 474 m 907 528 q 917 518 911 524 q 775 434 844 475 q 903 532 884 505 q 907 528 912 523 m 857 569 q 530 379 797 538 q 837 584 583 435 q 857 569 847 577 m 376 778 q 389 766 382 772 q 244 684 347 750 q 374 774 307 728 l 376 778 m 357 804 q 370 785 362 794 l 368 783 l 128 646 q 357 804 182 694 m 243 766 q 346 833 323 817 q 351 816 348 825 l 92 666 q 243 766 127 693 m 85 692 q 90 692 88 692 l 252 786 q 236 777 241 779 q 87 677 122 704 q 85 692 86 684 m 356 905 q 355 902 357 909 q 153 786 311 879 q 292 881 205 823 q 377 937 332 907 q 356 905 362 920 m 186 762 l 347 879 q 345 854 345 866 l 186 762 m 109 825 q 150 843 121 827 q 100 805 115 819 q 106 820 104 817 l 109 825 m 94 777 q 142 793 104 774 q 86 747 94 758 q 92 777 87 761 l 94 777 m 85 737 l 88 735 l 93 736 q 290 852 206 803 l 85 704 l 85 737 m 465 708 q 458 713 463 711 q 325 647 440 717 l 427 721 q 429 729 431 724 q 425 732 427 731 q 238 630 414 734 l 408 750 q 492 699 441 725 q 504 694 496 697 l 488 684 q 452 660 476 675 q 307 565 356 599 q 199 509 227 516 l 463 701 q 465 708 467 703 m 654 305 q 772 377 685 321 q 661 299 687 321 q 654 305 660 300 m 902 210 q 691 86 736 100 q 699 102 694 94 q 982 292 764 158 q 973 258 979 274 l 902 210 m 1008 365 q 1004 391 1007 376 q 1004 397 1006 394 q 974 482 994 445 q 966 496 970 490 l 964 498 q 946 522 956 511 q 945 529 947 525 q 942 532 944 531 l 938 531 q 923 546 932 538 q 823 621 873 592 q 869 642 852 631 q 953 723 935 684 q 960 825 973 768 q 910 918 951 871 q 821 981 878 954 q 660 1031 751 1017 q 526 1040 602 1040 q 412 1034 463 1040 q 267 1000 327 1025 q 155 929 199 972 q 84 829 110 886 q 60 723 61 778 q 66 660 60 693 q 57 639 53 647 q 66 637 60 634 l 71 640 q 84 598 77 616 q 110 553 94 575 l 99 545 q 98 537 94 542 q 106 536 100 532 q 117 543 99 532 q 134 523 126 532 q 135 517 134 519 q 142 515 138 513 q 151 506 152 505 q 193 476 169 490 q 103 449 129 463 q 31 380 56 422 q 9 298 11 347 q 24 213 7 254 q 77 130 41 166 q 170 63 111 94 q 338 5 245 25 q 543 -20 448 -20 l 567 -20 q 706 9 640 -16 q 910 127 833 58 q 993 241 969 180 q 1000 262 996 250 l 1001 263 q 1002 271 1006 267 q 1008 365 1012 314 z "},"9":{"ha":1090,"x_min":34,"x_max":1056,"o":"m 1021 450 q 1019 429 1021 439 l 662 223 l 664 231 q 857 361 718 275 q 1022 458 926 402 l 1021 450 m 869 176 l 708 83 l 926 232 q 873 177 903 205 q 869 176 871 178 m 650 37 l 834 142 q 691 54 774 94 q 650 37 673 45 m 568 26 l 572 33 l 833 184 l 584 14 q 557 6 568 9 q 562 14 557 7 l 568 26 m 669 488 q 648 460 657 469 l 643 455 q 565 399 599 411 q 524 389 549 394 q 515 400 522 393 l 514 401 q 492 430 499 418 q 486 442 493 429 l 486 448 l 482 451 l 480 451 q 445 532 456 494 q 443 539 445 530 l 452 547 q 454 555 457 550 q 446 557 450 559 l 439 553 q 426 612 431 581 q 432 625 435 621 l 428 628 l 423 627 q 418 688 419 659 q 433 868 413 789 q 472 960 442 901 l 478 972 q 492 1002 488 991 l 498 1004 q 524 1006 508 1005 l 546 1006 q 553 1004 549 1005 l 557 1004 l 562 999 q 625 875 594 952 q 616 854 612 861 q 620 852 617 852 q 632 857 623 851 q 640 836 636 845 q 648 803 644 821 q 635 783 633 789 q 640 780 637 781 q 644 781 642 779 l 652 785 q 673 646 666 721 q 664 640 669 643 q 662 632 659 637 q 666 629 663 630 l 670 630 q 672 631 669 629 l 675 632 q 680 515 680 570 l 680 503 q 671 490 676 498 l 669 488 m 498 377 l 496 377 l 496 385 l 497 385 q 506 374 503 378 q 502 374 510 375 q 498 377 500 376 m 456 423 q 408 368 435 399 l 404 368 q 361 369 382 368 q 456 423 376 377 m 370 458 l 281 380 q 253 390 268 385 l 370 458 m 398 602 q 168 438 333 550 q 149 455 159 445 q 398 602 328 563 m 376 627 q 140 465 315 576 q 125 482 132 472 l 376 627 m 115 589 q 83 548 77 559 q 87 545 85 545 q 393 719 112 538 q 102 524 332 656 q 99 521 100 523 l 100 517 q 78 557 86 538 q 72 574 76 562 q 115 589 83 574 m 106 802 q 290 908 127 797 q 427 994 408 989 q 79 761 403 952 q 83 770 81 768 q 100 805 90 787 q 106 802 102 802 m 178 895 l 182 890 q 222 909 189 889 l 111 823 q 130 847 120 836 q 178 895 149 871 m 284 961 q 189 905 209 913 q 215 923 203 915 q 284 961 245 943 m 413 1002 q 283 918 387 989 q 121 815 152 829 l 318 968 q 320 974 321 970 l 319 975 q 342 984 332 981 q 413 1002 370 993 m 451 970 q 448 972 449 972 q 373 934 439 975 q 438 1002 447 987 q 435 1006 437 1004 q 470 1011 452 1008 q 456 982 465 1000 l 451 970 m 154 766 q 67 711 83 720 q 155 781 80 730 q 290 867 199 808 q 318 884 319 885 q 444 958 380 922 q 426 919 433 936 q 154 766 401 925 m 409 868 q 90 682 185 737 q 309 827 142 720 q 418 898 402 887 q 410 873 413 885 q 409 868 412 882 m 150 681 q 405 850 247 749 q 400 822 402 838 q 150 681 372 820 m 401 616 q 328 576 376 604 q 399 632 381 614 l 401 616 m 394 677 q 396 652 395 665 l 214 547 l 394 677 m 394 760 l 393 733 q 96 557 144 574 q 241 662 113 579 q 337 724 286 690 q 394 760 382 751 m 395 776 q 331 734 361 753 q 328 732 328 732 q 305 718 319 726 q 396 789 372 763 l 395 776 m 62 695 q 161 755 69 697 q 401 901 351 879 q 302 837 380 887 q 60 675 100 707 l 62 695 m 71 736 q 80 740 76 738 q 69 730 74 734 l 71 736 m 223 745 q 63 620 56 633 q 67 617 64 618 l 72 618 q 396 809 351 795 q 68 587 378 761 q 59 652 60 617 q 223 745 88 667 m 393 701 l 393 693 q 346 661 382 686 q 130 526 178 547 q 393 701 330 644 m 107 511 q 193 547 125 507 l 117 492 q 101 515 109 502 q 107 511 103 512 m 406 575 l 296 511 q 405 593 372 565 q 408 576 406 584 q 406 575 407 576 m 275 458 l 411 564 q 417 540 414 553 l 275 458 m 235 397 q 212 408 222 402 l 370 498 l 235 397 m 337 522 l 200 415 q 178 430 190 422 l 337 522 m 330 406 l 425 489 q 426 497 429 493 q 418 499 422 502 l 300 431 l 422 524 q 443 472 430 498 l 330 406 m 449 459 q 459 439 455 448 q 388 398 417 415 l 449 459 m 301 376 l 414 441 l 349 376 q 347 370 347 374 q 301 376 322 372 m 486 399 l 484 372 q 432 368 458 370 l 485 399 l 486 399 m 477 409 l 441 387 q 470 421 460 410 q 472 417 475 412 q 477 409 475 413 m 584 1009 l 583 1010 l 587 1010 l 584 1009 m 614 985 q 591 1008 610 989 l 588 1010 q 612 1006 598 1008 q 640 1002 627 1004 q 614 985 630 996 m 745 895 q 695 861 709 871 q 787 947 727 892 q 788 954 790 950 q 784 957 787 956 q 664 890 775 959 q 649 881 657 886 l 648 882 q 749 966 685 916 q 750 974 753 969 l 749 975 q 758 971 757 971 q 813 939 785 958 q 745 895 797 930 m 711 575 q 966 759 741 608 q 968 767 970 762 q 960 772 965 771 q 857 722 941 777 l 955 794 q 982 741 970 768 q 925 703 967 732 q 711 575 737 577 m 726 542 l 987 727 q 994 707 991 718 q 726 542 808 583 m 773 537 q 846 584 799 554 q 1000 687 966 662 q 1004 671 1002 679 l 773 537 m 1023 473 q 854 373 932 422 q 736 305 779 330 q 1024 500 831 373 q 1023 473 1024 487 m 818 467 q 1003 576 978 567 q 692 366 977 533 q 696 393 694 378 q 818 467 714 402 m 852 568 q 701 458 728 484 l 701 481 l 858 572 l 852 568 m 865 547 q 707 448 728 451 q 1008 657 741 483 q 1011 637 1010 648 q 865 547 989 634 m 700 437 l 701 437 q 759 461 715 434 q 699 416 717 431 l 700 437 m 1015 587 q 1011 590 1014 589 q 812 477 998 593 q 741 434 763 447 q 1015 620 834 500 q 1022 555 1019 588 q 937 507 979 531 q 1015 587 1026 569 m 1024 517 q 1010 511 1019 515 q 1024 524 1017 517 l 1024 517 m 1023 543 l 1023 538 q 787 385 985 500 q 686 323 701 335 q 690 350 688 337 q 1023 543 726 370 m 703 519 q 804 572 730 528 q 703 504 730 523 l 703 519 m 701 604 q 779 655 714 610 q 943 758 908 743 q 702 581 731 615 l 701 604 m 703 566 l 705 564 q 790 602 722 561 l 703 540 l 703 566 m 700 621 l 698 644 q 854 734 741 668 l 700 621 m 874 831 q 777 761 844 808 q 695 692 691 699 l 700 689 q 813 755 711 686 q 930 829 907 819 q 933 825 935 824 q 696 659 899 783 q 688 723 692 691 l 874 831 m 756 838 q 679 772 682 779 q 673 798 676 785 q 802 874 754 846 q 756 838 786 861 m 684 764 q 688 765 686 764 q 881 879 834 854 q 779 809 864 862 q 684 744 701 760 q 680 767 682 756 l 684 764 m 923 838 q 806 765 898 827 q 768 739 780 747 q 785 751 780 748 q 916 848 890 827 q 923 838 922 840 m 871 759 q 940 817 922 795 q 948 804 945 810 q 871 759 911 782 m 711 750 q 786 799 732 765 q 892 873 876 856 q 903 861 896 870 l 711 750 m 746 814 q 764 829 751 819 q 846 904 850 897 q 842 907 844 907 q 683 819 835 909 q 829 928 736 861 q 876 889 854 909 q 746 814 842 873 m 628 939 l 632 941 q 692 978 668 964 q 675 962 687 972 q 634 915 638 924 q 600 982 618 949 l 608 974 l 611 972 q 616 972 614 971 q 644 990 632 983 q 624 943 621 948 q 628 939 625 940 m 692 991 q 642 961 675 982 q 661 994 649 974 l 663 998 q 692 991 677 995 m 684 953 q 715 986 711 979 q 743 977 731 982 q 690 945 733 977 q 651 920 662 926 q 684 953 660 928 m 668 916 q 644 894 654 904 q 640 903 642 898 q 668 916 647 901 m 653 869 q 670 880 671 881 q 747 926 722 912 q 666 842 662 849 q 671 839 668 840 q 730 870 680 837 q 668 821 691 841 q 663 842 665 833 q 653 869 659 854 m 656 206 l 998 404 q 643 171 917 336 q 656 206 651 191 m 932 335 q 754 225 816 262 q 839 279 800 254 q 1013 401 975 366 q 1007 381 1010 391 q 932 335 1001 378 m 647 123 l 1001 362 q 987 327 994 344 q 647 123 761 186 m 916 269 q 637 89 833 212 q 585 56 596 63 q 602 87 593 72 q 916 269 663 113 m 638 155 q 769 220 653 151 l 618 118 q 636 155 628 138 l 638 155 m 965 287 q 951 266 960 278 l 795 176 q 967 290 920 256 l 966 289 l 965 287 m 679 262 q 692 267 681 262 q 669 250 680 259 q 682 305 677 279 l 686 306 q 954 469 850 409 q 675 265 667 278 q 679 262 676 263 m 407 71 q 400 62 403 65 q 356 33 384 45 q 325 23 345 27 l 407 71 m 323 105 q 426 166 404 153 q 290 68 401 142 q 235 31 248 40 q 218 39 226 35 q 216 41 221 38 q 323 105 244 58 m 357 169 l 300 127 q 215 63 251 90 q 199 51 204 56 q 179 64 188 58 q 357 169 284 127 m 205 242 q 97 164 117 182 q 92 178 94 170 q 217 251 127 197 q 205 242 212 248 m 88 218 q 173 262 102 217 l 89 197 l 88 218 m 119 286 q 123 283 121 283 q 150 296 127 281 q 90 237 131 273 q 96 258 93 249 q 119 292 104 277 q 119 286 117 289 m 144 307 q 123 294 127 296 q 121 294 123 294 l 127 298 q 151 311 136 305 q 144 307 149 310 m 220 324 q 243 323 231 324 q 210 300 232 315 q 111 239 137 253 q 172 316 180 302 q 195 323 183 321 q 220 324 206 324 m 386 280 q 319 240 370 271 q 134 132 174 154 q 254 217 160 154 q 351 294 356 285 q 346 298 349 297 q 157 191 332 301 q 125 171 138 179 q 212 232 149 189 q 302 308 308 298 q 298 311 301 310 l 294 310 q 127 212 196 252 l 267 321 q 293 316 280 319 q 371 290 346 307 q 386 280 378 286 m 403 260 l 406 257 l 408 254 q 370 233 392 246 q 403 260 391 249 m 243 144 q 163 77 178 99 q 150 89 156 83 q 161 96 155 92 q 243 144 204 121 m 396 270 q 171 115 343 221 l 141 97 q 126 115 134 105 q 325 230 155 129 q 395 271 378 262 l 396 270 m 106 145 q 163 181 117 152 q 319 275 280 255 q 248 227 301 262 q 115 130 134 151 q 106 145 109 138 m 176 76 q 414 241 218 123 q 422 218 418 231 q 176 76 390 204 m 427 109 q 420 92 425 101 l 348 50 q 430 118 408 99 q 427 109 429 113 m 433 140 l 340 87 q 433 157 412 136 l 433 140 m 317 115 q 255 78 275 90 q 427 205 316 123 q 431 182 429 193 q 317 115 414 174 m 254 24 l 397 106 q 283 14 351 68 q 254 24 266 18 m 1021 703 q 1029 719 1032 713 q 1025 722 1027 722 l 1021 721 l 1016 718 q 1008 741 1013 730 q 1010 750 1013 745 l 1006 753 l 1003 753 q 931 866 977 812 l 930 870 l 926 873 q 768 993 857 951 q 614 1030 724 1013 q 576 1036 585 1034 q 560 1040 570 1038 q 553 1041 555 1040 l 543 1043 q 534 1042 538 1044 l 522 1042 q 492 1039 505 1041 l 488 1038 q 334 1006 382 1023 q 202 943 260 982 q 111 863 149 908 q 60 779 78 824 q 35 663 36 718 q 56 547 34 597 q 119 452 78 497 l 117 450 l 115 449 q 113 441 110 446 q 121 439 117 435 l 128 442 q 153 420 141 429 q 215 380 182 395 q 216 375 214 377 q 224 373 219 370 l 227 374 q 294 353 258 360 q 404 344 340 344 q 576 366 515 344 q 669 429 619 380 l 673 435 l 676 437 q 635 220 667 319 q 627 206 628 212 q 627 197 625 201 q 547 38 607 144 l 541 26 q 534 14 536 18 q 528 12 530 13 q 370 7 446 -2 l 361 9 q 366 10 363 9 q 418 46 398 24 q 450 102 441 71 q 455 185 461 138 q 435 253 450 220 q 441 257 445 258 q 444 265 447 260 l 440 268 q 429 264 438 269 l 426 270 q 419 279 424 273 q 420 293 424 287 q 416 296 419 295 q 408 293 414 296 q 384 311 397 302 q 298 340 355 329 q 220 348 254 348 q 192 347 205 348 q 113 317 143 339 q 73 267 86 298 q 65 189 59 229 l 67 180 l 61 176 q 59 168 57 172 q 63 165 60 165 l 71 167 q 103 104 81 134 q 178 35 132 66 q 175 26 172 30 q 178 24 176 24 q 191 27 182 23 q 207 18 199 22 q 219 12 211 16 q 223 8 221 9 l 227 8 q 366 -28 289 -19 q 430 -33 397 -33 q 534 -23 480 -33 l 547 -20 l 550 -20 q 701 33 621 -5 q 853 127 790 75 q 986 275 944 203 q 1045 447 1035 358 l 1047 473 q 1051 475 1048 474 q 1053 484 1056 479 q 1048 487 1051 487 q 1021 703 1050 600 z "},"\u0000":{"ha":0,"x_min":0,"x_max":0,"o":""}," ":{"ha":375,"x_min":0,"x_max":0,"o":""},"!":{"ha":444,"x_min":34,"x_max":410,"o":"m 367 119 q 346 66 366 94 q 340 60 343 63 q 283 28 334 61 q 259 14 269 20 q 363 103 298 49 q 365 111 367 106 q 359 114 363 113 q 178 11 342 118 q 365 144 223 54 q 367 119 368 130 m 186 3 q 328 89 279 62 q 231 4 252 26 l 186 3 m 161 7 q 149 12 155 9 q 195 41 165 21 q 161 7 170 21 m 241 103 q 127 23 187 64 q 115 31 121 26 q 241 103 157 49 m 106 210 q 110 208 107 208 l 120 210 q 75 164 86 177 q 106 212 85 189 l 106 210 m 148 241 q 114 221 124 226 q 125 231 121 227 q 148 241 132 235 m 205 253 q 216 256 211 252 l 245 256 q 96 168 146 197 q 164 237 124 197 q 164 245 168 241 l 163 246 q 200 256 188 254 l 205 253 m 296 243 q 125 144 191 182 l 257 249 l 259 255 q 286 250 276 254 q 296 243 290 248 m 157 122 l 308 235 q 324 219 316 227 l 157 122 m 73 101 q 229 191 97 114 l 79 79 q 73 101 75 90 m 68 127 q 68 140 68 134 q 181 204 80 144 l 70 115 l 68 127 m 93 52 q 84 66 89 58 l 333 208 q 97 47 281 158 q 93 52 95 50 m 347 189 q 107 39 178 71 q 340 199 290 149 q 346 191 343 195 l 347 189 m 353 176 q 359 164 356 170 q 243 90 332 152 q 198 58 214 68 q 353 176 326 147 m 387 165 q 382 169 386 168 q 366 203 376 187 q 355 219 361 211 q 356 231 359 227 q 348 233 353 235 l 346 231 q 323 253 335 243 l 321 255 q 295 271 307 266 q 239 280 276 280 l 202 279 q 112 250 155 279 q 53 175 74 224 q 44 125 42 151 q 73 38 48 73 l 77 34 q 75 26 72 31 q 82 21 77 22 l 89 21 q 139 -9 108 4 q 199 -22 167 -22 l 201 -22 q 292 -5 255 -22 q 365 52 337 16 q 391 118 390 85 q 386 157 392 136 q 387 165 390 161 m 379 972 l 378 974 q 374 977 377 976 q 279 926 369 978 q 368 1002 358 983 l 382 1000 q 385 995 382 997 l 379 972 m 250 406 q 208 380 226 390 l 254 425 q 250 406 254 420 m 240 360 l 237 359 l 240 362 l 240 360 m 232 338 l 225 338 q 236 345 229 340 l 236 342 l 232 338 m 187 338 l 184 354 q 246 389 199 359 l 245 386 q 201 338 227 364 l 187 338 m 239 512 q 166 448 211 486 q 163 468 163 465 l 239 512 m 282 578 q 159 484 243 544 q 155 505 156 503 l 282 578 m 261 650 q 150 551 146 557 q 154 548 151 549 l 159 549 q 263 616 218 589 q 151 531 180 557 q 141 581 145 562 l 261 650 m 134 618 q 279 705 218 670 l 138 597 l 134 618 m 275 863 q 344 907 328 897 q 115 745 290 857 q 113 737 111 743 q 121 735 117 732 l 310 844 q 237 794 288 828 q 117 708 134 723 l 107 760 q 275 863 147 780 m 368 923 l 367 926 q 363 928 366 928 q 269 873 357 930 q 109 774 150 795 l 377 966 l 378 967 l 368 923 m 363 903 q 360 886 359 885 l 271 836 q 366 913 353 894 l 363 903 m 341 806 q 336 784 338 789 q 330 788 334 787 q 160 692 304 794 q 313 801 199 726 q 342 828 346 823 q 336 833 340 832 q 294 819 326 835 q 354 861 334 846 q 341 806 353 855 m 240 702 q 334 772 323 760 q 328 745 332 762 q 193 668 298 732 q 240 702 207 678 m 125 668 l 122 680 q 120 693 121 688 q 308 812 245 781 l 306 811 q 130 664 117 686 q 134 661 131 661 q 138 662 136 661 q 320 776 277 764 q 233 711 305 763 q 131 635 148 651 l 125 668 m 317 700 q 316 695 318 704 l 191 623 l 322 723 q 317 700 315 693 m 306 650 q 233 612 287 645 q 269 641 244 621 q 311 675 301 667 l 306 650 m 276 519 q 273 503 275 512 l 271 503 l 201 463 q 279 542 283 534 l 275 545 l 271 544 l 231 521 q 287 567 267 549 q 276 519 285 557 m 268 483 q 261 454 267 477 q 199 416 224 429 l 268 483 m 177 392 q 235 422 191 395 l 181 370 l 177 392 m 170 431 l 237 469 l 174 407 l 170 431 m 155 519 q 280 613 186 546 q 300 628 296 625 q 294 600 300 624 l 155 519 m 98 806 q 291 919 213 874 l 102 784 q 100 795 102 788 l 98 806 m 275 988 q 285 995 269 985 q 89 856 245 955 q 86 873 90 850 q 275 988 131 895 m 78 913 q 147 956 96 923 l 81 899 q 78 913 90 852 m 100 972 q 127 989 118 984 l 74 937 q 71 954 72 946 q 100 972 81 960 m 72 998 l 64 987 q 64 993 72 945 l 72 998 m 136 1009 q 93 983 123 1002 q 68 966 77 972 l 68 971 l 96 1010 l 136 1009 m 83 886 l 213 996 q 214 1004 217 999 q 210 1006 213 1006 q 153 974 205 1008 q 83 930 104 942 l 163 1008 q 278 1004 198 1008 q 269 998 277 1004 q 83 885 131 909 l 83 886 m 133 870 q 307 1004 292 973 l 346 1002 q 133 870 212 914 m 93 837 q 315 968 142 855 q 96 819 241 911 q 94 828 96 822 l 93 837 m 408 1006 q 391 1025 408 1025 q 281 1029 352 1026 q 102 1034 137 1034 l 74 1032 l 72 1032 l 63 1030 l 52 1027 l 49 1027 q 37 1008 35 1021 l 38 1002 l 39 997 l 39 992 l 37 991 l 39 986 l 38 980 l 41 980 l 45 961 l 36 949 q 36 942 34 945 l 40 939 q 49 941 43 939 q 54 916 51 930 q 53 910 52 913 q 55 909 54 909 q 60 882 60 884 l 54 876 q 52 868 50 873 q 58 865 54 865 q 63 865 59 864 q 75 804 66 847 q 75 798 73 801 l 81 769 l 71 761 q 68 753 66 758 q 75 749 71 750 l 85 750 q 101 663 102 655 l 115 591 l 116 586 q 117 581 117 583 l 109 576 q 108 568 105 572 q 116 566 111 563 l 119 568 q 130 511 126 530 q 126 495 123 501 l 130 492 l 134 493 q 138 469 136 476 q 132 465 137 468 q 131 456 127 461 q 139 454 134 452 l 140 455 q 145 431 142 444 l 144 429 q 142 421 140 426 q 147 419 144 419 l 163 332 q 166 326 164 329 q 175 315 169 319 q 184 313 179 313 q 191 315 188 313 l 227 314 q 252 323 247 314 q 258 332 256 327 l 258 335 q 264 361 260 338 l 269 363 q 271 371 273 366 q 267 374 269 374 q 273 401 271 389 q 281 418 283 414 q 286 455 281 435 l 290 458 q 290 467 293 462 q 300 514 306 543 q 340 695 332 659 q 365 800 349 734 q 387 898 380 868 l 409 994 q 408 1005 410 1000 l 408 1006 z "},"\"":{"ha":576,"x_min":34,"x_max":543,"o":"m 185 644 q 159 598 155 604 q 163 595 161 595 l 166 596 l 177 602 q 168 571 172 584 q 149 623 161 593 l 185 644 m 89 788 q 81 808 85 800 q 199 876 148 847 l 89 788 m 73 838 q 213 920 109 855 q 82 825 171 888 q 77 821 43 797 q 73 838 75 829 m 68 854 q 65 871 66 863 q 171 932 98 888 l 68 854 m 65 935 q 72 951 68 943 q 91 963 77 954 q 94 965 100 969 q 66 918 62 926 q 74 916 69 913 l 144 957 q 62 890 113 930 q 65 935 60 916 m 109 987 q 90 975 103 984 l 93 978 q 109 987 99 983 m 85 935 q 121 981 98 954 q 121 987 123 983 l 117 989 l 115 989 q 159 998 138 998 q 189 995 174 998 l 85 935 m 198 988 q 200 991 199 990 q 227 979 217 987 q 83 893 136 924 q 197 987 186 977 l 198 987 l 198 988 m 245 952 q 102 866 159 899 l 236 968 q 245 952 241 961 m 248 844 q 168 795 237 844 q 129 769 141 777 l 252 865 q 248 844 251 854 m 233 790 q 228 793 231 793 q 162 760 217 796 q 244 826 197 789 q 234 787 240 808 l 233 790 m 222 751 q 208 744 220 752 q 132 698 154 710 q 180 736 144 709 q 233 782 227 773 q 223 751 229 767 l 222 751 m 158 678 q 182 699 166 686 q 217 729 208 721 q 210 709 216 726 l 158 678 m 111 725 q 105 742 109 732 q 174 787 121 750 q 199 804 189 798 q 111 725 117 740 m 119 718 q 217 780 187 766 q 174 745 208 771 q 120 701 131 713 q 114 718 116 712 l 119 718 m 256 908 l 256 888 q 174 837 237 880 q 135 811 148 820 l 256 908 m 252 919 q 222 903 247 916 q 155 863 199 889 q 252 937 227 915 q 255 920 254 928 l 252 919 m 93 776 q 180 828 104 778 q 229 861 213 850 l 99 759 q 93 776 96 766 m 131 673 q 129 678 130 675 l 127 684 q 191 721 142 690 q 175 707 185 715 q 132 668 140 677 l 131 673 m 195 687 l 144 636 q 138 654 144 639 l 195 687 m 174 650 l 201 677 l 196 663 l 174 650 m 178 615 q 184 623 180 618 l 182 617 l 178 615 m 277 911 q 269 954 275 935 q 268 960 269 957 q 265 962 267 961 q 254 981 260 972 l 258 985 q 260 993 262 988 q 252 994 256 997 q 245 990 249 992 l 242 994 q 159 1019 213 1019 q 80 995 113 1019 q 44 940 55 977 q 43 874 37 914 q 37 870 36 869 q 36 863 34 867 q 40 861 37 861 l 45 861 q 50 840 47 851 q 50 833 48 837 q 52 831 50 833 q 59 808 55 821 q 58 807 58 807 q 54 799 52 802 q 62 797 57 794 q 111 665 76 758 l 115 654 q 152 553 141 585 q 159 545 154 547 q 165 541 161 542 l 170 540 q 186 552 182 540 q 223 677 195 591 l 224 682 q 277 884 272 832 l 277 911 m 451 644 q 425 597 421 604 q 429 595 427 595 l 432 595 l 443 602 q 434 571 437 584 q 415 623 427 592 l 451 644 m 355 788 q 348 808 351 800 q 465 876 414 846 l 355 788 m 338 838 q 479 920 374 855 q 348 825 437 887 q 343 821 309 797 q 338 838 341 829 m 334 854 q 331 871 332 863 q 437 932 363 888 l 334 854 m 331 934 q 338 951 334 943 q 357 963 343 954 q 360 965 366 968 q 333 918 328 925 q 340 916 336 913 l 410 956 q 328 890 378 930 q 331 934 326 915 m 374 987 q 356 975 369 983 l 359 978 q 374 987 365 982 m 351 935 q 387 980 364 954 q 387 987 389 983 l 383 989 l 380 989 q 425 998 404 998 q 455 994 439 998 l 351 935 m 464 988 q 467 991 466 990 q 492 978 483 986 q 349 893 402 923 q 463 987 452 976 l 464 987 l 464 988 m 511 952 q 368 866 425 898 l 502 968 q 511 952 508 961 m 514 844 q 433 795 503 844 q 395 768 407 777 l 518 865 q 514 844 517 854 m 499 789 q 494 793 497 793 q 428 760 483 795 q 510 826 463 789 q 500 787 506 808 l 499 789 m 488 751 q 474 744 486 751 q 398 698 420 709 q 446 736 410 709 q 498 781 494 772 q 489 751 494 767 l 488 751 m 424 678 q 448 699 432 686 q 483 729 474 720 q 476 708 481 726 l 424 678 m 377 725 q 371 741 374 732 q 439 787 387 749 q 465 804 455 798 q 377 725 383 740 m 385 718 q 483 780 453 766 q 439 745 473 771 q 386 701 397 712 q 380 718 382 712 l 385 718 m 522 908 l 522 888 q 439 837 503 879 q 401 811 414 819 l 522 908 m 517 918 q 488 902 513 916 q 420 863 465 889 q 517 936 492 915 q 521 920 519 928 l 517 918 m 359 776 q 446 827 370 778 q 495 860 479 850 l 365 759 q 359 776 362 765 m 397 673 q 395 677 396 674 l 393 683 q 457 721 408 690 q 441 707 451 715 q 399 668 406 677 l 397 673 m 460 686 l 410 635 q 404 654 410 639 l 460 686 m 439 650 l 467 677 l 462 663 l 439 650 m 444 615 q 450 623 446 618 l 448 617 l 444 615 m 543 911 q 534 954 541 935 q 534 959 535 956 q 531 962 533 960 q 519 981 526 972 l 524 985 q 526 992 528 988 q 518 994 522 997 q 511 989 515 991 l 508 994 q 425 1019 479 1019 q 346 995 378 1019 q 311 940 321 976 q 309 874 302 914 q 303 869 302 868 q 302 863 300 867 q 306 860 303 861 l 311 861 q 316 839 313 850 q 316 833 314 836 q 318 831 317 832 q 325 808 321 821 q 324 807 324 807 q 320 799 318 802 q 328 797 323 794 q 376 665 342 757 l 380 654 q 418 552 407 585 q 425 544 420 547 q 431 541 427 542 l 436 540 q 452 551 448 540 q 489 677 461 590 l 490 682 q 543 884 538 832 l 543 911 z "},"#":{"ha":1057,"x_min":34,"x_max":1023,"o":"m 925 566 q 932 570 928 568 l 931 566 l 925 566 m 736 571 l 897 664 q 784 574 856 628 l 783 571 l 736 571 m 724 570 q 720 567 722 569 l 717 566 l 726 572 l 728 570 l 724 570 m 878 423 l 878 420 q 871 414 873 418 q 870 410 871 412 q 760 344 854 407 q 686 295 707 308 l 674 296 q 725 336 690 311 q 833 411 774 368 q 835 418 838 414 l 832 420 q 836 424 834 422 l 878 423 m 825 286 q 819 288 823 287 l 815 288 q 819 291 816 289 q 829 296 831 298 q 827 291 829 297 l 825 286 m 705 294 q 766 335 724 307 q 845 386 823 372 q 734 293 749 307 q 705 294 718 294 m 844 354 q 793 330 838 356 q 861 385 823 353 q 848 351 855 370 q 844 354 847 353 m 834 312 q 822 304 831 310 q 842 333 835 323 q 834 312 838 322 m 755 292 q 833 339 809 328 q 798 290 821 321 q 755 292 779 291 m 661 296 l 660 296 l 662 297 l 661 296 m 524 151 q 553 180 535 163 q 545 161 549 170 q 524 151 540 162 m 523 106 q 516 108 519 110 l 484 89 q 486 95 485 92 q 538 142 508 116 q 534 134 533 130 l 523 106 m 513 82 q 505 65 507 68 l 505 64 q 503 57 503 60 l 494 58 q 481 60 487 59 l 473 60 q 475 66 473 62 l 477 71 l 478 73 l 519 97 l 513 82 m 536 219 l 562 233 q 526 202 539 214 q 532 218 530 212 q 536 219 534 218 m 543 185 q 505 146 515 160 q 513 168 511 163 l 543 185 m 503 127 q 495 119 499 122 q 496 121 496 122 q 499 130 493 114 q 503 127 500 127 m 527 189 q 575 231 544 204 q 567 212 572 222 l 527 189 m 526 288 l 624 345 q 564 279 555 293 q 568 276 566 277 q 637 318 572 275 q 806 425 768 406 l 822 425 q 686 325 798 399 q 630 300 638 298 q 623 301 627 304 q 620 296 619 300 l 614 295 q 605 292 609 294 q 601 286 603 290 q 598 283 599 284 q 589 264 595 277 q 537 232 563 248 q 553 272 548 260 q 553 283 556 277 q 544 288 550 288 l 526 288 m 516 294 l 514 292 l 511 288 l 466 290 q 640 391 576 354 q 516 294 529 307 m 245 169 q 237 163 241 166 q 291 211 257 182 q 283 193 300 232 q 245 169 276 189 m 229 66 l 227 62 l 214 64 q 233 75 224 69 l 229 66 m 298 420 l 146 300 q 106 302 129 301 q 150 332 130 318 q 298 420 255 399 m 134 355 q 243 421 227 416 q 136 336 233 402 q 86 302 112 320 l 68 303 l 66 306 q 62 307 64 307 q 64 311 63 309 q 134 355 73 315 m 175 426 q 88 374 119 391 l 134 428 l 175 426 m 235 397 q 254 428 258 419 q 294 429 279 429 q 235 397 272 418 m 230 427 q 130 366 208 417 q 200 427 187 412 l 230 427 m 159 404 q 71 332 125 374 q 81 358 75 344 q 159 404 103 369 m 103 410 l 106 412 l 101 407 l 103 410 m 336 429 l 336 427 q 342 423 338 424 l 346 422 q 370 429 353 422 l 370 428 l 199 329 l 325 426 l 326 429 l 336 429 m 402 532 q 394 510 398 522 l 364 490 q 377 521 371 506 q 402 532 381 521 m 268 570 q 471 692 406 655 q 310 568 416 649 l 268 570 m 213 570 q 300 625 238 585 q 378 673 355 659 l 246 570 l 213 570 m 170 580 q 176 595 172 586 l 178 593 l 182 593 l 309 667 q 182 571 256 627 l 168 572 q 168 576 168 574 l 170 580 m 227 707 q 220 703 222 704 l 223 707 l 227 707 m 411 704 q 294 633 391 695 q 228 592 248 604 q 279 631 275 627 q 374 704 363 694 l 411 704 m 289 699 q 282 701 286 704 l 222 667 l 226 671 q 248 705 245 699 l 352 704 l 210 622 q 279 684 233 644 q 289 699 292 695 m 221 691 q 230 696 243 705 q 217 678 227 691 q 200 648 198 652 q 203 645 201 646 l 208 646 l 241 665 q 180 608 192 621 q 212 685 199 659 q 221 691 214 687 m 474 711 q 475 715 475 713 l 476 718 q 478 724 477 720 l 479 730 l 481 731 q 522 756 503 745 q 509 724 511 728 l 508 721 l 507 719 q 323 616 489 718 l 426 697 q 428 704 429 700 q 463 703 454 703 q 474 711 472 702 m 566 943 q 602 947 579 946 q 597 941 599 945 q 585 913 593 932 q 566 904 583 914 q 538 888 549 894 l 539 888 q 576 935 554 909 q 576 943 580 939 q 569 943 573 946 q 564 939 566 941 q 562 939 563 939 l 560 937 q 562 943 562 940 l 566 943 m 538 793 l 536 791 q 529 772 532 781 q 507 760 520 767 l 538 793 m 520 790 l 488 753 q 496 777 491 763 l 520 790 m 529 847 q 578 896 548 867 q 568 869 572 882 q 529 847 555 864 m 549 847 q 507 805 519 818 q 514 825 511 817 q 549 847 533 838 m 543 817 l 519 802 q 555 837 533 816 q 547 817 552 831 l 543 817 m 544 878 q 529 863 536 870 q 532 871 530 865 q 544 878 536 874 m 559 932 q 555 926 559 931 q 559 936 557 931 l 559 932 m 545 703 q 330 568 392 595 l 328 568 q 509 707 496 696 q 517 703 512 703 l 545 703 m 842 945 q 840 943 843 945 l 842 945 m 829 900 q 861 943 842 918 l 861 946 l 876 947 q 864 920 873 939 q 829 900 850 912 m 778 795 q 793 809 783 800 q 829 843 820 834 q 827 840 819 823 q 816 817 821 829 l 778 795 m 801 700 q 610 578 703 635 l 582 577 q 774 706 733 675 q 777 702 775 703 q 786 701 781 699 l 801 700 m 692 566 q 684 572 689 570 q 842 694 851 679 q 835 696 840 699 l 643 585 q 819 700 729 640 l 893 698 q 694 568 859 680 l 692 566 m 703 545 q 686 534 694 540 l 686 542 l 688 543 q 694 553 693 546 l 713 564 q 711 561 711 563 q 703 545 707 555 m 660 489 q 667 507 663 498 q 696 527 684 519 q 688 505 692 517 l 660 489 m 676 476 q 669 457 671 464 l 642 441 q 650 465 645 451 l 680 486 l 676 476 m 664 429 q 673 425 667 425 l 678 426 q 519 334 642 406 q 538 345 519 334 q 664 429 637 407 m 579 416 l 597 416 l 489 353 l 579 416 m 282 275 l 283 277 q 287 279 289 280 q 282 275 285 277 m 438 421 l 465 420 l 301 316 q 252 295 272 301 q 229 296 242 296 q 438 421 334 359 m 650 577 l 806 667 q 670 576 767 637 q 650 577 663 576 m 536 418 l 433 358 q 529 418 475 384 l 536 418 m 317 286 q 298 275 311 283 q 316 288 305 281 l 317 286 m 281 287 l 279 290 l 310 309 q 494 419 377 342 q 484 412 488 414 q 328 310 382 348 q 281 287 299 294 m 334 301 q 337 304 366 323 q 347 309 340 305 l 334 301 m 639 427 l 661 440 q 637 422 652 433 l 639 427 m 491 576 l 481 576 q 543 612 509 592 l 491 576 m 686 698 q 688 701 688 699 l 702 701 q 636 663 673 686 l 686 698 m 743 726 q 785 749 760 734 q 779 736 781 741 l 779 734 q 742 722 766 732 l 743 726 m 768 752 l 766 751 l 802 787 q 793 766 798 777 q 768 752 786 762 m 517 576 q 722 700 648 661 l 726 699 q 735 703 731 699 q 738 708 737 705 q 775 724 763 720 l 774 719 q 562 577 731 687 l 517 576 m 802 833 q 786 817 797 827 q 781 812 774 806 q 785 823 783 817 q 802 833 792 826 m 833 863 q 817 854 831 863 q 846 880 832 868 q 837 861 842 871 q 833 863 836 863 m 810 877 q 813 878 812 877 q 854 902 835 890 q 800 854 833 884 l 810 877 m 832 926 q 837 929 833 927 q 828 916 833 924 l 832 926 m 788 789 l 755 755 q 764 774 759 764 l 788 789 m 672 702 q 490 594 572 642 l 499 600 q 612 699 621 684 q 605 701 610 703 l 457 615 q 556 703 562 692 q 672 702 623 703 m 353 568 q 469 638 395 589 q 371 568 425 606 l 353 568 m 421 572 q 410 554 417 568 q 385 536 397 545 q 391 552 388 545 q 391 562 394 557 l 389 564 l 585 677 q 448 578 546 644 q 434 576 439 579 q 421 572 427 577 m 357 471 q 387 492 370 480 q 385 487 389 496 q 375 458 378 467 q 346 439 362 450 q 357 471 347 446 m 368 441 l 368 438 q 358 435 362 436 q 368 441 366 440 m 378 420 q 398 419 387 412 l 400 421 l 418 421 q 210 298 313 358 q 170 300 192 299 l 378 420 m 264 243 q 267 249 267 248 l 270 247 q 291 258 273 246 q 307 267 298 262 q 252 218 288 248 q 264 243 259 232 m 273 210 q 231 174 247 188 q 239 190 235 182 l 273 210 m 207 114 q 217 139 212 126 q 251 160 222 141 q 258 165 256 163 l 207 114 m 229 121 l 271 161 q 261 140 268 155 q 229 121 243 130 m 199 93 q 234 111 205 94 q 193 66 199 79 q 199 93 193 73 m 233 87 q 215 77 201 68 q 248 110 227 90 q 241 92 246 104 q 233 87 239 91 m 275 223 q 309 255 296 242 q 303 239 307 248 l 275 223 m 347 296 l 556 417 l 562 416 l 385 294 l 347 296 m 407 294 l 612 412 l 623 413 q 532 355 594 393 q 436 292 454 307 l 407 294 m 785 425 q 631 327 742 401 q 579 292 591 300 q 764 425 614 332 l 785 425 m 743 425 l 578 330 q 703 426 631 371 l 743 425 m 877 632 q 934 691 939 682 q 930 694 932 693 l 926 693 l 812 627 l 921 696 q 985 694 963 695 q 877 632 956 682 m 865 582 q 936 635 882 597 q 966 656 955 648 q 957 636 962 646 q 865 582 897 600 m 864 569 q 941 614 883 580 q 911 567 908 575 q 864 569 889 568 m 975 676 q 930 644 962 667 q 842 570 844 584 q 800 571 819 570 q 976 677 924 652 l 975 676 m 929 581 q 940 595 933 587 q 937 586 939 591 q 929 581 932 584 m 996 715 q 798 722 952 718 q 800 728 798 724 q 846 831 807 748 q 886 918 876 894 q 892 930 895 926 q 898 946 897 941 l 897 959 q 878 968 892 971 l 844 966 q 831 967 838 969 l 829 966 q 823 960 825 964 q 819 949 819 955 l 779 859 q 727 743 734 761 q 721 725 724 734 l 720 722 q 536 725 671 725 l 533 725 q 542 747 535 730 q 552 772 549 764 q 554 773 553 772 q 556 780 559 776 l 556 783 q 614 927 600 893 q 624 939 622 930 q 629 952 630 945 q 617 968 629 964 l 614 968 q 565 965 585 968 q 551 962 557 968 q 540 952 542 958 q 539 943 538 947 q 508 869 529 924 q 465 754 484 809 q 459 735 463 747 l 457 729 l 456 724 l 356 726 q 244 727 264 726 l 223 729 q 215 728 219 730 q 149 587 199 723 l 148 582 q 145 573 146 576 l 144 570 q 155 551 141 555 l 205 549 l 274 548 q 365 546 335 547 q 326 450 336 482 q 237 449 310 451 l 137 449 l 127 450 l 109 450 q 96 444 102 450 q 93 441 95 443 l 92 439 l 92 438 q 63 372 83 420 q 44 290 34 300 q 54 285 48 286 q 65 281 59 281 q 72 280 68 278 l 80 281 q 249 273 202 278 q 254 271 251 271 l 255 271 q 245 253 251 264 q 173 55 159 82 q 196 43 178 43 q 207 43 202 41 q 222 41 216 41 q 243 42 233 34 q 245 45 244 43 l 246 46 q 251 61 253 52 l 256 73 l 264 93 l 269 96 l 267 99 q 327 240 309 197 l 330 242 q 331 250 334 245 q 340 275 338 267 l 404 272 l 425 271 l 427 269 q 431 270 429 269 l 432 271 q 528 267 504 267 q 475 129 514 234 q 463 94 471 115 l 460 87 q 457 79 459 84 l 456 78 q 452 68 452 71 l 450 62 q 448 54 448 58 q 465 38 448 38 l 480 38 q 492 37 484 38 l 506 35 q 516 38 513 35 q 524 47 522 41 q 526 58 528 52 q 532 74 528 62 l 554 125 q 591 212 577 180 q 594 215 602 222 q 595 222 598 218 q 614 267 608 254 q 626 275 611 265 l 652 275 q 656 271 654 272 l 659 271 q 669 274 663 271 q 813 267 755 272 q 821 263 817 264 l 828 262 q 842 269 837 262 q 845 277 844 272 l 846 279 l 846 281 l 847 284 q 890 401 877 367 q 899 412 897 404 l 899 416 q 906 429 906 420 q 895 444 906 440 q 889 446 892 446 q 884 448 887 448 q 877 445 880 448 l 812 446 q 688 448 714 448 q 696 469 690 452 l 701 480 q 728 547 718 525 q 732 549 730 547 q 761 549 740 549 q 928 545 844 549 l 936 544 q 950 549 945 544 q 955 561 955 554 l 955 563 q 953 568 954 566 l 954 569 q 1000 677 962 601 q 1006 683 1003 679 q 1013 686 1010 684 q 1016 708 1023 697 q 1007 714 1014 713 l 996 715 m 437 553 l 658 550 l 617 446 l 399 451 l 437 553 z "},"$":{"ha":1028,"x_min":34,"x_max":1006,"o":"m 856 102 q 906 149 883 123 q 714 31 780 66 q 856 102 795 55 m 710 113 q 684 83 702 99 q 935 230 861 193 q 966 254 953 243 q 969 273 968 264 q 847 198 939 256 q 712 117 732 127 l 710 113 m 708 239 q 718 220 714 230 q 949 383 901 341 q 708 239 891 355 m 930 414 q 685 268 865 382 q 695 257 690 262 q 850 363 722 282 q 930 414 911 401 m 655 290 q 674 277 666 283 q 749 329 689 288 q 926 453 892 427 q 766 360 884 434 q 655 290 715 327 m 657 363 q 591 326 616 340 q 610 317 602 321 q 657 363 612 328 m 436 389 l 444 386 q 556 463 460 399 q 675 543 640 519 l 418 395 l 425 393 l 436 389 m 269 498 q 229 477 246 486 q 281 452 248 466 q 552 637 477 578 q 259 465 467 589 l 254 465 q 251 467 252 465 q 269 498 245 478 m 149 546 q 172 520 161 531 q 274 595 191 542 l 168 534 q 163 533 165 532 q 159 536 161 534 q 318 665 153 548 q 145 561 242 621 q 140 557 157 568 q 149 546 144 551 m 121 587 q 133 567 125 577 q 151 578 144 574 q 383 739 336 692 l 121 587 m 108 615 q 114 601 111 608 l 302 734 q 256 706 286 725 q 108 617 127 623 q 108 615 109 614 m 173 869 q 130 825 145 846 q 119 804 125 817 q 306 941 264 902 q 258 909 292 932 q 178 863 189 861 q 174 867 175 865 l 173 869 m 246 917 q 182 875 205 893 q 251 918 191 877 q 264 927 260 924 q 246 917 253 921 m 423 987 q 327 956 376 977 q 223 862 335 941 q 448 992 332 924 q 423 987 433 990 m 491 991 q 510 998 500 995 q 460 992 483 996 q 462 982 463 988 q 458 975 461 979 q 491 991 474 984 m 382 760 q 375 772 378 765 l 191 641 l 386 754 l 382 760 m 155 655 q 250 715 184 673 q 369 789 347 778 q 364 808 366 799 l 155 655 m 96 677 q 227 762 119 698 q 348 838 317 815 q 104 700 124 694 q 99 703 101 701 q 101 711 97 707 l 367 901 q 187 791 326 882 q 100 738 106 737 q 96 709 97 724 l 96 677 m 219 825 q 110 755 127 774 q 180 800 124 764 q 219 825 201 814 m 269 867 q 445 977 422 952 q 281 882 345 919 q 158 811 197 833 q 111 784 119 788 q 105 766 107 774 q 269 867 130 790 m 391 920 q 398 928 394 923 q 386 920 390 922 l 391 920 m 363 865 q 372 891 366 878 l 146 729 q 363 861 220 769 l 363 865 m 361 833 q 334 814 351 825 q 362 823 355 823 q 361 833 361 827 m 98 656 q 103 632 100 644 l 337 803 q 98 656 266 768 m 443 706 q 398 739 414 723 q 350 696 387 724 q 406 724 400 725 q 410 720 408 723 q 408 713 412 716 q 211 572 281 626 l 443 706 m 404 572 q 276 489 303 511 q 557 652 494 618 q 532 661 543 657 q 404 572 526 645 m 494 677 q 229 490 460 637 q 517 667 314 531 q 494 677 503 673 m 452 701 q 352 630 452 691 q 186 519 216 547 q 472 689 406 661 q 452 701 461 695 m 188 506 q 209 491 197 498 q 484 682 447 642 q 188 506 431 665 m 642 624 q 578 645 601 637 q 304 453 536 604 q 600 635 390 492 l 605 636 q 608 633 607 635 q 449 511 616 621 q 331 430 351 446 q 568 572 370 444 q 646 623 636 617 l 642 624 m 814 560 q 793 570 806 564 q 673 491 787 558 q 488 369 514 397 l 490 368 q 664 470 523 386 q 816 559 782 540 l 814 560 m 849 529 q 628 360 859 511 q 869 507 722 414 q 882 515 873 509 q 837 547 865 530 q 702 459 813 527 q 570 375 601 398 l 841 532 q 849 529 846 534 m 543 347 q 570 336 557 341 q 808 499 738 445 l 546 347 l 543 347 m 538 350 q 696 469 528 367 q 818 547 789 526 q 670 460 785 528 q 505 362 538 381 q 538 349 524 355 l 538 350 m 517 408 q 465 378 483 387 q 477 373 474 374 q 517 408 488 387 m 744 547 q 686 512 723 534 q 744 547 724 535 m 459 473 l 692 608 q 659 618 677 612 q 656 614 659 615 l 459 473 m 305 441 q 318 435 312 438 q 392 487 332 447 q 305 441 335 454 m 346 424 q 362 418 353 421 l 477 499 q 346 424 382 440 m 377 412 q 391 406 382 410 q 564 518 416 433 q 667 579 639 561 l 377 412 m 739 587 q 563 454 746 576 q 493 407 516 422 q 614 481 528 427 q 776 578 751 567 q 712 601 750 588 q 570 508 701 583 q 403 401 430 427 l 731 589 q 739 587 736 592 m 627 308 q 644 297 635 303 q 766 374 710 340 q 878 456 845 427 q 627 308 674 320 m 907 489 q 891 507 900 498 q 862 488 876 497 q 624 319 647 351 q 899 484 668 328 l 903 485 q 907 482 905 484 q 879 441 913 471 q 924 465 907 458 q 907 489 916 479 m 944 433 q 936 447 940 440 q 834 374 913 429 q 944 433 917 423 m 726 159 q 802 216 753 182 q 728 170 765 193 l 726 159 m 745 209 q 725 199 734 203 q 727 192 726 196 q 745 209 734 199 m 964 382 q 731 214 930 346 q 843 279 768 233 q 963 359 919 332 q 969 361 966 361 q 964 382 968 370 m 958 399 q 951 416 956 407 q 857 353 937 404 q 711 256 743 281 q 958 399 916 385 m 971 287 q 970 349 975 319 q 846 268 905 304 q 751 198 783 224 q 967 320 952 323 q 971 317 970 319 q 969 309 974 312 q 722 142 785 197 q 720 134 721 138 q 841 208 747 149 q 971 287 942 271 m 852 161 q 595 11 748 94 q 654 17 626 12 q 816 135 658 26 q 852 161 829 145 m 929 178 q 951 214 942 195 q 684 28 747 75 q 928 177 753 61 l 929 178 m 181 98 l 185 96 l 191 93 q 311 188 263 149 l 169 105 q 181 98 176 101 m 113 144 q 148 118 127 130 l 149 117 q 185 147 159 128 q 137 127 147 125 q 132 131 133 128 q 133 139 129 136 q 292 255 237 210 q 287 252 290 254 q 113 144 151 158 m 73 210 q 84 178 76 193 q 98 160 90 169 q 130 181 104 165 q 321 313 279 277 q 313 322 317 318 q 94 184 243 289 q 90 183 92 182 l 85 186 q 168 264 77 201 q 73 210 105 227 m 71 233 q 135 280 90 248 q 179 313 161 300 q 73 251 102 267 l 71 233 m 91 304 q 80 280 85 294 l 130 326 q 91 304 98 307 m 147 349 q 115 330 129 341 q 147 349 127 338 m 235 363 q 180 360 210 367 q 178 354 181 356 l 91 275 q 239 362 147 307 l 235 363 m 296 337 q 230 292 283 327 q 136 227 166 249 q 304 330 250 304 q 296 337 300 334 m 251 359 q 142 271 253 351 q 86 230 102 242 q 281 345 154 269 q 251 359 267 354 m 348 267 q 347 269 346 271 q 328 304 339 287 q 136 171 288 269 q 111 155 118 159 q 280 261 148 170 q 328 290 324 291 q 332 288 331 290 q 193 166 342 271 q 271 217 218 182 q 348 267 328 255 m 355 227 q 354 245 356 235 q 292 205 337 233 q 165 117 190 139 l 355 227 m 345 180 q 353 209 350 193 q 290 155 338 193 q 345 180 334 181 m 248 109 q 331 157 311 133 q 338 168 334 161 q 228 102 313 159 q 248 109 239 105 m 835 937 q 794 928 822 934 l 791 927 q 726 911 745 918 q 729 908 728 910 q 728 901 732 904 q 649 822 672 849 q 804 915 679 834 q 844 941 831 932 q 842 943 838 945 q 835 937 840 939 m 898 894 q 865 926 886 911 q 713 813 831 888 q 868 914 781 854 q 876 913 873 918 q 875 905 880 908 l 787 838 q 899 892 881 896 q 898 894 894 899 m 698 732 q 916 861 768 771 q 905 883 911 872 q 903 880 904 881 q 698 732 765 783 m 798 707 q 926 785 853 739 q 927 814 928 799 q 798 707 920 793 m 890 720 q 916 753 905 734 l 870 712 q 884 721 876 716 q 890 720 887 723 m 812 683 q 822 686 817 684 l 899 754 q 772 678 817 703 q 812 683 792 679 m 819 762 q 713 691 771 729 q 727 685 721 687 q 741 681 732 682 q 914 814 894 787 q 840 777 899 812 q 819 762 828 768 m 925 829 q 923 838 925 830 q 903 822 914 831 q 920 825 914 826 q 926 821 924 824 l 925 829 m 684 711 q 700 699 692 704 q 833 786 778 753 q 912 844 886 823 q 684 711 736 738 m 728 810 q 649 768 672 775 q 653 753 650 760 l 728 810 m 670 724 q 873 873 708 758 q 658 741 808 843 q 670 724 662 732 m 857 932 q 855 934 859 932 q 810 905 844 927 q 648 809 675 818 q 647 787 646 798 q 857 932 810 886 m 682 885 q 659 850 667 870 q 687 878 671 863 q 683 881 684 879 q 682 885 682 883 m 715 907 q 695 897 703 902 l 690 892 q 715 907 707 903 m 998 298 q 1002 294 1001 297 q 1004 282 1006 289 q 991 264 1002 275 q 986 242 989 253 q 985 237 987 240 q 978 216 981 226 q 869 83 947 143 q 673 -3 785 19 q 551 -14 621 -14 q 368 5 455 -14 q 182 72 278 23 q 167 79 172 72 q 135 98 149 90 q 64 166 85 130 q 51 198 55 182 q 41 195 43 195 l 37 198 q 48 216 34 203 l 47 244 q 50 252 45 248 q 77 326 56 298 q 152 376 100 357 q 239 386 198 393 q 322 346 283 378 l 328 340 q 340 341 336 342 q 347 336 345 340 q 344 321 351 331 q 368 278 359 300 l 376 279 q 381 275 379 278 q 374 260 385 269 q 379 224 380 242 q 349 143 375 174 q 257 87 326 113 q 242 82 250 84 q 376 39 313 52 q 513 22 440 25 q 516 23 515 22 l 528 25 q 550 30 543 27 q 585 43 568 35 q 644 80 616 58 q 690 125 680 109 q 705 180 706 153 q 702 194 705 186 q 695 198 697 195 q 697 206 692 203 l 699 207 q 686 229 694 217 q 683 231 684 229 q 682 237 682 233 q 665 254 674 246 q 659 251 665 255 q 654 250 656 250 l 650 253 q 652 260 648 256 q 654 262 675 275 q 614 288 642 272 q 563 313 596 298 q 550 310 553 309 q 545 313 547 311 q 546 320 543 317 q 427 367 508 336 l 416 371 q 393 380 391 381 l 387 379 q 383 382 385 380 l 382 385 q 213 460 252 435 q 201 468 208 463 l 196 468 q 190 472 192 469 q 189 476 189 474 q 131 531 157 498 q 100 576 112 554 l 90 569 q 81 571 85 566 q 83 579 79 576 l 94 587 q 86 608 90 597 q 73 711 68 658 q 111 838 79 791 q 234 937 141 883 q 418 1010 326 990 q 572 1022 473 1022 l 637 1021 q 670 1016 648 1019 q 739 1004 713 1011 q 851 964 814 986 q 867 954 857 961 q 874 956 871 957 q 878 954 877 956 l 878 946 q 916 908 903 928 q 937 873 928 892 q 941 873 939 874 q 945 871 943 873 q 942 857 948 865 q 948 833 946 845 q 951 800 951 817 q 960 799 956 804 q 958 791 962 795 l 949 783 q 945 762 947 770 q 903 701 932 726 q 817 660 868 671 q 769 654 792 654 q 733 659 749 654 l 723 656 l 722 656 q 718 659 720 656 q 718 663 717 661 q 690 677 705 669 l 686 674 q 677 675 681 671 q 680 684 675 680 l 680 684 q 638 728 652 704 q 633 730 635 728 q 633 738 630 734 q 627 832 615 781 q 681 915 640 884 q 786 950 707 934 l 794 951 q 730 970 768 961 q 669 981 710 976 l 666 981 q 640 985 657 983 l 631 984 q 627 985 629 985 l 572 985 q 546 981 556 982 q 500 969 515 976 q 426 924 452 950 q 387 861 391 888 q 393 793 380 830 l 393 792 q 394 789 394 791 q 402 772 398 779 q 490 706 418 746 q 650 646 525 686 l 654 644 q 825 581 784 603 q 840 572 833 576 l 846 573 l 850 570 l 850 566 q 925 504 897 537 q 949 470 938 488 l 951 467 l 953 464 q 992 365 984 412 q 996 298 998 332 l 998 298 m 527 1086 l 527 1112 q 532 1141 527 1137 l 534 1143 q 545 1146 538 1147 q 559 1128 558 1145 l 559 1112 q 559 1092 559 1106 l 559 1021 l 526 1019 q 527 1086 526 1079 m 558 901 q 557 673 557 780 l 525 686 q 526 901 526 820 l 526 982 l 559 984 q 558 901 558 951 m 553 -102 q 552 -123 553 -117 l 552 -135 l 551 -139 q 545 -147 549 -144 q 532 -150 539 -152 q 520 -132 517 -146 l 519 -127 q 520 -122 520 -123 l 520 -112 q 521 -102 521 -106 l 522 -12 l 553 -12 l 553 -102 m 524 338 l 555 326 l 553 28 l 522 21 l 524 338 z "},"%":{"ha":1168,"x_min":7,"x_max":1161,"o":"m 941 932 q 954 949 950 945 l 957 953 q 960 958 959 956 l 964 962 l 964 962 q 964 985 975 977 q 953 990 960 990 l 951 990 q 928 968 944 989 l 924 963 q 911 947 917 955 q 804 807 886 915 q 631 584 743 729 q 220 52 256 98 q 214 43 217 49 q 207 36 209 38 q 203 31 205 35 l 201 28 q 199 6 190 18 q 212 0 203 0 q 221 3 217 0 l 224 5 l 226 7 l 227 9 l 228 10 l 231 14 l 232 16 q 245 31 236 20 q 829 787 300 100 q 937 927 916 900 l 941 932 m 259 454 q 298 497 287 483 l 353 529 q 271 452 264 467 q 263 453 267 453 l 259 454 m 243 469 q 199 478 218 471 l 197 479 q 187 494 191 487 q 195 498 193 498 l 193 504 l 194 509 q 184 505 192 509 q 182 553 181 522 l 182 564 q 190 576 192 573 l 186 579 q 184 579 186 580 q 190 612 186 593 q 222 727 201 665 q 306 926 262 841 q 332 970 319 952 q 366 1007 340 981 l 368 1009 l 369 1010 q 383 1007 376 1008 l 385 1005 l 387 1004 l 391 1002 l 395 1002 l 402 1000 q 405 999 404 999 q 408 996 406 997 l 409 994 q 413 987 411 991 q 408 984 410 986 l 403 981 l 402 981 q 401 974 398 978 q 413 975 404 969 q 418 977 414 975 q 420 972 418 978 q 418 960 419 969 q 416 945 415 947 q 420 943 418 943 q 426 944 422 943 l 427 933 q 421 884 427 915 q 420 873 417 878 q 408 817 415 846 q 389 753 401 789 q 385 743 385 747 q 370 701 378 724 q 368 696 368 699 q 362 680 365 686 q 316 572 337 614 q 281 511 297 534 q 243 469 271 497 m 164 481 q 169 484 172 486 q 172 477 170 480 q 164 481 170 478 m 151 511 l 142 496 q 134 501 139 497 l 151 511 m 111 525 l 157 551 q 121 511 130 522 q 105 524 112 518 l 111 525 m 88 543 q 85 547 91 540 q 155 588 128 572 q 115 545 143 574 q 102 527 100 530 q 88 543 94 536 m 67 577 q 70 576 68 576 q 130 608 79 574 q 79 558 109 587 q 67 577 73 566 m 116 715 q 205 772 179 758 q 43 650 153 733 q 41 667 41 659 q 116 715 60 678 m 39 708 q 237 825 190 802 q 115 742 216 806 q 39 691 60 706 l 39 708 m 321 1019 q 73 852 281 972 q 71 844 68 849 q 78 842 73 840 l 237 934 l 54 806 q 58 818 57 814 q 87 884 71 853 l 321 1019 m 157 968 q 161 966 158 966 q 174 971 163 965 l 104 913 q 105 915 106 916 q 157 971 126 946 l 157 968 m 192 995 q 168 980 174 983 q 205 1003 184 993 q 192 995 197 998 m 249 1021 q 304 1027 273 1027 l 313 1027 l 134 924 l 232 1006 q 233 1013 236 1008 l 231 1015 q 249 1021 241 1018 m 279 970 q 336 1026 333 1010 l 352 1024 l 350 1022 q 328 999 336 1007 l 279 970 m 279 931 q 275 931 277 932 l 142 854 l 304 968 q 286 936 296 956 q 283 928 285 933 l 279 931 m 263 887 q 62 771 241 876 q 228 886 96 800 q 278 920 272 914 q 263 887 271 905 m 42 750 l 43 749 q 47 749 45 749 q 134 800 91 775 q 40 732 70 757 l 42 750 m 134 837 q 45 768 60 787 q 50 788 46 777 l 134 837 m 243 839 q 59 733 211 827 q 256 869 125 783 q 243 839 250 854 m 225 795 q 110 725 203 786 q 43 682 62 692 q 121 732 64 696 q 229 805 203 785 q 225 795 227 799 m 199 738 q 133 705 189 741 l 210 763 q 214 766 213 765 q 203 736 208 749 l 199 738 m 187 687 q 184 690 186 689 q 129 661 180 690 q 197 719 180 701 q 187 687 192 703 m 46 635 q 93 666 57 642 q 189 725 168 715 q 52 616 159 694 q 46 635 48 626 m 64 583 q 55 605 59 595 q 144 656 105 634 l 66 586 l 64 583 m 169 616 q 167 607 168 610 q 112 575 161 604 q 172 641 174 637 q 168 644 170 643 q 132 623 163 645 q 96 599 109 607 l 185 680 q 169 616 175 645 m 161 529 l 139 517 q 161 540 148 526 l 161 529 m 161 566 l 138 553 q 163 581 155 570 l 161 566 m 162 509 q 165 494 163 500 q 153 488 158 490 l 151 490 l 162 509 m 449 990 q 464 979 455 985 l 461 977 q 444 966 450 970 q 439 983 441 975 q 431 1000 436 991 q 449 990 441 995 m 490 958 q 468 945 482 953 q 481 965 477 958 q 490 958 486 961 m 520 925 q 533 907 527 918 l 458 864 l 511 920 q 512 926 514 923 q 509 929 511 928 q 451 898 502 930 l 445 895 q 474 922 454 904 q 501 947 495 941 q 520 925 513 935 m 551 874 q 543 876 548 878 l 452 823 q 541 895 486 851 q 551 874 546 885 m 522 798 q 563 834 552 822 q 566 821 565 827 q 522 798 549 813 m 570 777 q 465 720 562 779 l 570 799 q 570 777 570 787 m 317 528 q 555 683 390 586 q 544 652 551 668 l 311 517 q 317 528 314 522 m 330 552 l 332 553 q 330 551 331 552 l 330 552 m 532 707 q 441 647 506 689 q 345 583 369 600 q 355 606 350 593 l 532 707 m 559 699 q 465 643 549 695 q 350 573 379 589 q 447 638 373 590 q 564 718 541 699 q 559 699 562 707 m 570 764 q 568 741 569 753 l 431 662 q 570 766 555 751 q 570 764 570 759 m 378 662 q 382 660 380 660 q 445 695 385 659 q 523 743 499 728 q 364 627 467 701 q 378 662 371 643 m 382 673 q 394 704 389 690 q 566 810 510 781 l 382 671 l 382 673 m 530 819 q 401 723 486 783 q 410 749 405 734 l 530 819 m 416 768 q 549 867 460 806 q 551 873 553 869 q 553 869 553 867 q 559 848 556 861 l 415 764 l 416 768 m 451 810 q 422 787 434 798 q 424 794 425 797 l 451 810 m 448 924 q 454 924 451 922 q 473 935 465 930 l 467 930 q 447 911 454 918 l 448 924 m 442 880 q 457 889 448 883 q 483 905 475 901 l 439 859 q 442 880 441 871 m 497 874 q 430 818 450 837 q 435 838 432 827 l 497 874 m 473 972 q 448 933 471 970 l 446 956 q 467 968 454 961 q 473 972 470 970 m 518 595 q 515 597 517 596 l 511 596 q 282 457 314 457 q 537 635 295 488 q 518 595 528 613 m 420 485 q 363 460 396 469 q 447 509 385 472 q 455 513 444 507 q 420 485 437 495 m 480 541 q 441 518 473 536 q 345 462 370 476 q 467 550 372 486 q 509 580 501 574 q 480 541 497 561 m 298 451 q 342 473 315 458 q 323 452 327 460 l 298 451 m 350 435 q 432 467 397 444 q 494 524 460 484 q 537 585 520 554 q 578 683 563 632 q 591 762 588 719 q 590 806 593 783 l 589 814 l 595 819 q 597 826 600 822 q 592 829 595 829 q 586 829 590 830 q 572 878 581 857 q 558 908 566 894 q 562 911 588 932 q 564 919 566 915 q 557 921 561 923 l 552 918 q 537 939 545 930 q 492 983 520 960 q 494 991 495 989 q 491 993 493 992 q 484 991 488 994 q 461 1008 471 1002 q 412 1030 442 1021 q 405 1032 409 1031 q 372 1042 397 1038 l 359 1044 q 332 1048 336 1048 l 304 1049 q 243 1041 269 1049 q 153 996 194 1027 q 87 927 115 967 q 38 825 60 886 q 20 748 24 787 q 17 709 18 729 q 14 699 12 703 q 17 696 15 697 q 18 675 17 686 q 10 660 7 665 q 14 656 12 657 l 20 657 q 34 599 24 627 q 71 530 47 562 q 116 487 87 509 q 130 477 122 482 l 127 471 q 128 465 125 468 q 132 463 130 463 l 134 464 q 143 469 138 466 q 179 450 162 457 q 260 432 214 436 q 300 429 280 429 q 350 435 328 429 m 1090 132 q 909 25 987 71 l 1103 160 q 1090 132 1097 144 m 988 14 q 927 -12 962 -2 q 1027 47 989 26 q 988 14 1006 26 m 1050 73 q 938 7 1024 59 q 1043 83 970 32 q 1075 106 1065 99 q 1050 73 1064 90 m 853 -19 q 999 65 897 5 q 892 -18 903 -3 q 869 -19 880 -19 l 853 -19 m 765 9 q 755 24 759 16 q 756 31 758 27 l 752 33 q 751 52 751 41 q 753 66 755 63 q 750 69 752 68 l 751 96 q 753 98 752 97 q 753 102 755 100 l 752 105 q 758 142 753 121 q 790 256 769 195 q 873 456 830 370 q 900 500 887 482 q 936 539 910 513 l 937 540 q 950 536 944 538 q 958 532 953 533 l 963 531 q 965 530 964 531 l 972 528 q 977 524 975 526 q 987 505 983 516 q 989 498 987 504 q 979 473 977 477 l 983 470 l 987 471 l 994 475 q 994 463 994 469 q 975 347 994 425 q 930 210 963 296 q 884 102 905 144 q 848 40 864 62 q 811 -1 838 26 l 810 -3 q 766 7 787 0 l 765 9 m 732 11 q 736 14 735 13 q 741 6 739 10 q 732 11 738 8 m 677 51 q 724 79 693 60 q 692 38 697 47 q 677 51 683 45 m 656 73 q 654 77 661 66 q 702 104 671 86 l 663 66 q 656 73 658 71 m 626 347 q 632 364 629 355 q 882 517 810 484 l 623 337 l 626 347 m 673 445 q 707 485 687 465 l 712 484 l 745 504 l 742 501 q 669 435 676 442 l 669 434 q 666 427 665 430 q 673 425 669 422 l 791 493 l 640 383 q 673 445 656 420 m 741 513 q 779 535 758 526 l 741 513 m 849 463 q 725 395 842 465 l 872 498 q 854 466 865 486 l 852 461 l 849 463 m 751 370 q 842 440 819 417 q 831 416 837 429 l 751 370 m 808 363 q 803 363 806 364 q 621 250 661 260 q 823 397 654 279 q 808 363 815 380 m 792 323 q 731 293 777 321 l 802 349 q 792 323 798 336 m 772 270 q 620 178 654 191 q 762 283 637 198 q 783 298 777 294 q 772 270 777 283 m 758 225 q 705 200 746 225 l 766 250 q 758 225 761 237 m 743 177 q 703 156 741 178 q 749 196 733 180 q 744 177 746 184 l 743 177 m 636 104 q 699 141 671 125 l 694 137 q 643 94 659 107 q 636 104 638 100 m 623 134 q 751 213 719 200 q 631 115 729 186 q 623 134 626 125 m 617 318 q 629 325 614 316 q 833 445 791 423 q 612 291 787 403 q 617 318 614 304 m 732 347 q 607 248 616 264 q 609 275 608 263 q 609 275 608 271 l 732 347 m 608 205 q 606 243 606 223 q 612 239 608 239 q 680 268 626 236 l 612 215 q 610 208 608 212 q 618 206 614 203 q 773 304 721 279 q 755 292 774 305 q 610 182 627 205 q 608 205 608 195 m 614 165 q 699 210 629 166 l 619 145 q 614 165 616 155 m 735 136 q 654 90 687 109 q 701 129 669 102 q 741 162 734 157 l 737 146 q 735 136 736 141 m 732 119 q 730 96 730 107 l 728 94 q 673 61 692 72 l 732 119 m 728 58 q 712 47 720 52 q 728 68 719 56 l 728 58 m 722 17 q 703 30 713 22 q 729 45 711 34 q 730 34 730 39 q 729 31 731 36 q 722 17 723 19 m 817 550 q 873 557 840 557 l 899 556 q 920 553 903 556 q 902 535 910 544 q 791 479 880 533 l 882 545 q 883 552 886 548 q 876 554 880 557 l 711 459 q 749 493 724 470 q 789 529 784 524 q 793 537 794 534 q 789 540 791 539 q 817 550 803 546 m 1001 528 l 1000 528 q 999 530 1002 524 l 1001 528 m 1031 509 q 1011 498 1026 507 q 1007 511 1009 505 q 1013 522 1011 519 l 1017 519 q 1031 509 1023 515 m 1088 455 q 1101 436 1095 447 l 1099 435 l 1042 403 q 1080 456 1086 446 q 1076 459 1079 458 q 1038 437 1072 460 q 1012 420 1021 425 l 1013 423 q 1060 470 1026 438 q 1068 477 1065 474 q 1088 455 1080 465 m 1128 377 q 1003 300 1053 329 q 1120 400 1116 387 q 1120 399 1122 395 q 1128 377 1124 389 m 1116 193 q 981 108 1087 181 q 883 45 900 52 q 1122 212 913 81 q 1116 193 1120 203 m 925 140 q 931 140 928 138 q 1098 243 1038 211 l 909 102 q 907 95 905 99 l 911 92 q 946 109 914 91 q 890 66 909 83 q 903 92 897 79 q 925 140 913 113 m 946 186 q 1098 279 1042 248 l 930 153 q 943 184 937 168 l 946 186 m 950 201 q 962 231 956 218 q 1000 255 968 235 q 1135 336 1104 320 q 950 201 1092 298 m 1135 348 q 1077 315 1118 340 q 1132 361 1116 345 q 1135 348 1133 354 m 1138 302 q 1134 306 1137 305 q 1093 289 1126 307 q 1137 325 1122 311 l 1138 302 m 1135 264 q 1131 267 1133 267 q 1040 222 1118 270 l 1137 296 l 1138 294 q 1135 264 1137 279 m 1133 256 q 1127 228 1131 241 q 976 138 1038 174 l 1133 256 m 977 274 q 1095 344 1010 290 q 968 250 1048 306 q 977 274 972 262 m 1106 429 q 1118 406 1112 419 l 1112 406 l 1046 368 q 1106 429 1102 418 m 996 341 q 1003 370 1000 355 q 1008 370 1006 369 l 1074 409 q 1001 341 1046 381 q 1000 334 997 338 q 1007 333 1003 330 l 1081 375 q 985 300 1046 347 q 996 341 992 323 m 1010 406 q 1044 429 1019 411 q 1063 441 1057 437 q 1006 383 1044 419 q 1010 406 1008 395 m 1026 468 q 1040 503 1039 496 q 1058 487 1049 494 l 1026 468 m 1017 450 l 1035 460 q 1015 441 1023 449 q 1015 450 1015 446 l 1017 450 m 1015 471 q 1014 487 1015 479 q 1025 494 1021 492 q 1015 471 1023 487 m 829 -17 l 827 -17 q 866 28 855 12 q 871 35 866 27 l 875 33 q 987 99 886 30 q 1112 180 1081 164 l 829 -17 m 1141 407 q 1105 468 1127 441 q 1029 537 1074 508 q 983 559 1013 549 l 979 560 l 972 562 q 940 572 964 568 q 930 574 935 574 l 927 574 q 900 577 905 577 l 873 578 q 811 570 838 578 q 720 526 762 557 q 655 457 682 496 q 606 355 628 416 q 595 318 600 336 l 591 315 q 588 309 587 313 q 592 305 589 306 q 588 278 589 290 l 587 275 q 587 269 585 273 q 586 203 583 234 q 602 129 589 164 q 627 79 611 103 q 621 64 618 69 q 624 62 621 62 q 635 66 626 61 q 639 60 640 59 q 647 50 642 56 l 642 45 q 641 39 639 43 q 645 36 642 37 q 657 40 648 35 q 684 17 668 28 q 747 -20 717 -8 q 812 -37 776 -31 l 815 -38 l 829 -39 q 869 -41 848 -41 q 918 -36 895 -41 q 1000 -3 965 -26 q 1062 54 1027 14 q 1105 115 1088 83 q 1135 182 1121 144 l 1140 186 q 1141 193 1144 189 l 1140 195 q 1145 212 1143 205 q 1159 292 1156 248 q 1158 335 1161 313 q 1141 407 1153 375 z "},"&":{"ha":1523,"x_min":33,"x_max":1506,"o":"m 1455 176 q 1288 90 1430 181 q 1400 170 1342 129 q 1401 178 1404 173 q 1466 205 1428 186 l 1467 205 l 1470 207 q 1455 176 1464 192 m 1334 58 q 1213 14 1293 33 q 1186 7 1196 9 q 1447 165 1403 157 q 1431 144 1439 154 q 1334 58 1385 88 m 1145 4 q 1120 5 1135 5 q 1274 94 1166 31 q 1162 5 1173 21 l 1145 4 m 1025 37 q 1274 186 1224 165 q 1276 185 1272 187 q 1132 83 1251 163 q 1038 17 1050 28 q 1006 24 1019 21 q 1025 37 1013 29 m 970 37 q 1006 57 983 43 q 978 33 988 43 q 970 37 975 35 m 975 77 q 946 49 953 60 q 935 55 940 52 q 975 77 952 64 m 894 81 l 892 82 q 911 94 891 81 q 1166 249 1093 215 l 1167 248 l 913 68 q 897 79 906 73 l 894 81 m 806 151 q 1069 313 990 274 l 821 136 q 806 151 809 146 m 789 168 q 779 177 784 173 q 966 284 795 182 l 800 161 l 798 160 l 796 162 q 789 168 791 167 m 762 149 q 719 142 745 148 l 717 142 q 630 134 659 133 q 489 167 549 139 q 424 207 456 182 q 429 218 431 215 q 425 221 427 220 l 420 221 l 413 216 q 381 248 394 233 q 340 319 356 277 q 349 336 353 330 q 345 338 348 338 l 336 334 q 332 342 331 347 q 329 355 331 349 q 329 364 331 360 l 327 366 q 321 449 319 407 q 339 526 324 490 l 345 529 q 347 537 349 532 l 345 539 q 380 589 359 568 q 395 599 385 593 l 397 600 q 404 604 400 602 q 419 606 414 606 q 446 568 429 594 q 441 565 444 566 q 440 557 437 562 q 448 555 443 552 l 453 558 q 465 541 458 550 q 454 524 450 530 q 462 522 456 519 l 473 528 q 568 393 528 448 q 566 385 563 391 q 574 383 568 380 l 574 384 l 576 382 q 589 366 583 373 q 579 359 582 362 q 576 351 574 355 l 579 348 q 584 349 582 347 l 596 356 q 751 172 690 235 q 769 155 760 162 q 762 149 766 152 m 732 113 q 726 113 728 115 q 600 33 640 51 q 669 107 663 98 q 672 113 672 111 q 721 119 690 114 l 723 119 q 746 123 736 122 q 732 113 741 120 m 508 95 l 397 4 q 357 8 378 5 l 508 95 m 382 185 q 213 60 321 137 q 211 56 210 58 q 185 71 197 63 l 382 185 m 160 91 q 256 147 195 109 l 172 81 q 160 91 164 87 m 250 232 q 120 132 143 152 q 107 149 113 140 q 250 232 192 199 m 128 481 q 160 513 141 498 l 161 511 q 165 508 162 509 q 219 536 172 507 q 105 447 182 505 q 128 481 117 467 m 247 567 q 170 522 189 530 q 247 567 201 545 m 319 541 q 318 537 322 546 q 96 401 268 517 l 93 399 q 330 562 140 447 q 319 541 324 551 m 302 479 q 236 437 286 469 q 66 332 104 350 l 66 337 q 307 505 122 382 q 302 479 304 492 m 299 394 q 201 337 292 395 q 113 282 140 298 q 159 313 127 292 q 295 426 303 411 q 291 429 294 428 q 252 407 289 429 q 122 329 168 356 q 299 457 263 430 q 298 450 298 444 q 299 394 296 422 m 100 199 q 210 270 125 218 q 310 336 288 318 q 315 323 310 337 q 100 199 267 296 m 88 178 q 215 252 162 221 q 93 170 124 195 q 88 178 90 175 m 79 214 l 288 334 q 203 280 264 317 q 80 196 99 216 q 74 214 77 205 l 79 214 m 113 247 q 300 382 176 296 q 304 357 302 369 l 113 247 m 66 254 q 71 250 68 251 q 161 298 81 248 q 71 222 79 237 q 63 283 64 250 q 256 395 94 297 q 152 323 227 374 q 66 254 61 262 m 64 319 q 197 397 96 332 q 63 301 136 353 l 64 319 m 76 378 q 103 391 80 376 q 313 522 258 496 q 187 438 245 477 q 70 354 104 381 q 76 378 73 366 m 99 430 q 123 439 104 429 q 86 407 100 421 q 97 431 92 420 l 99 430 m 153 144 q 328 276 215 191 q 330 284 333 279 q 326 287 329 286 q 321 286 325 287 q 100 158 300 275 q 99 159 97 163 q 249 260 134 187 q 321 305 300 292 q 345 258 331 280 q 153 144 221 182 m 139 111 q 132 119 132 118 q 193 152 152 129 q 139 111 157 127 m 366 224 q 357 225 362 228 q 151 99 218 134 q 147 103 142 107 q 321 227 187 137 q 352 248 346 243 q 363 233 360 237 q 391 204 375 219 l 227 109 l 364 216 q 366 224 368 219 m 418 182 q 331 131 400 174 q 407 191 383 170 q 418 182 414 186 m 418 109 q 451 151 456 141 q 447 153 450 153 l 443 153 q 277 52 330 80 q 431 173 322 91 q 479 146 456 157 l 484 144 q 418 109 461 134 m 509 134 q 536 125 522 129 l 423 60 q 509 134 495 113 m 498 137 q 335 12 475 109 q 302 20 319 15 q 498 137 465 128 m 248 38 q 220 50 234 43 q 307 102 230 54 q 374 144 351 130 q 248 38 254 52 m 286 25 q 262 33 274 28 q 414 121 293 43 q 287 24 371 83 l 286 25 m 557 121 q 589 115 574 117 q 427 14 482 42 l 557 121 m 528 34 q 600 113 607 99 q 629 111 616 111 l 654 111 q 528 34 578 62 m 479 6 q 433 3 456 4 q 572 89 479 26 q 481 12 539 57 q 479 6 479 10 m 578 24 q 507 9 545 14 q 633 83 543 27 q 580 28 610 59 l 578 24 m 367 608 q 364 606 365 606 q 347 585 355 597 q 206 505 332 583 q 172 482 190 494 q 260 569 268 557 l 256 572 l 262 574 q 367 608 301 593 m 467 940 q 486 956 474 947 q 485 949 483 952 q 490 945 486 946 q 430 895 449 911 q 467 940 445 921 m 492 957 q 488 957 490 958 q 539 987 511 974 q 530 980 534 983 q 492 957 498 959 m 597 1008 q 650 1016 618 1013 q 450 897 591 986 q 511 945 469 913 q 561 993 565 987 q 558 995 560 994 q 597 1008 578 1002 m 720 1018 q 435 849 655 995 q 687 1018 511 909 l 720 1018 m 846 992 q 856 994 852 994 q 863 992 860 993 l 865 989 q 872 979 867 985 l 875 976 l 879 970 q 899 941 895 951 q 908 884 909 913 l 908 877 q 902 847 906 863 q 894 828 890 833 q 880 793 888 807 q 859 767 874 782 l 854 762 q 834 744 848 756 l 829 740 q 817 730 822 734 l 816 728 q 793 722 799 724 q 766 769 776 749 q 729 880 730 844 q 752 962 729 935 q 804 985 764 974 q 816 987 810 986 q 838 991 824 990 l 846 992 m 888 996 q 890 996 886 998 l 888 996 m 937 941 l 932 972 q 928 975 931 975 q 924 975 926 976 q 914 968 920 972 q 917 984 915 973 q 960 955 945 970 l 937 941 m 972 941 l 972 940 q 980 927 976 935 q 941 903 965 918 l 972 941 m 991 893 q 928 856 969 881 q 987 909 951 880 q 991 893 989 901 m 994 850 l 994 850 q 936 819 987 852 l 995 871 l 994 850 m 972 799 q 897 752 932 774 q 989 829 967 805 q 975 800 983 814 l 972 799 m 923 748 q 892 736 913 742 q 958 777 919 752 q 923 748 944 760 m 901 783 q 937 806 911 790 q 971 827 960 821 q 881 755 944 803 q 901 783 894 769 m 924 840 q 978 872 955 859 l 917 818 q 924 840 921 829 m 932 884 q 959 901 945 892 q 931 877 944 888 l 932 884 m 904 990 q 905 989 903 990 l 903 977 q 897 985 901 980 q 904 990 905 990 m 917 956 q 923 960 920 958 q 926 931 924 949 q 930 926 927 928 q 935 927 932 925 l 954 937 l 930 910 q 920 950 928 931 l 917 956 m 736 572 q 823 638 799 616 q 831 627 804 664 l 736 572 m 852 597 q 848 596 850 597 q 587 436 629 436 q 839 616 614 466 q 853 597 845 608 l 852 597 m 779 516 q 858 590 861 574 q 859 589 859 589 q 873 570 863 585 l 779 516 m 910 520 l 913 515 q 735 414 869 496 q 798 458 755 428 q 894 528 886 520 q 897 536 899 532 q 888 538 893 541 l 819 498 q 887 551 868 532 l 910 520 m 899 437 q 945 473 931 461 l 951 465 q 899 437 930 456 m 977 431 q 829 342 954 423 q 728 279 753 294 q 861 369 758 301 q 969 441 943 423 q 977 431 970 439 m 1025 374 q 922 326 1008 377 l 1010 391 q 1025 374 1017 383 m 1001 401 q 854 319 968 387 q 987 418 971 404 q 1001 401 994 410 m 768 358 q 682 297 726 328 q 681 290 678 294 l 684 287 q 758 332 690 286 q 958 456 908 433 q 962 451 953 463 q 854 379 935 432 q 699 267 708 282 q 666 307 681 288 q 768 358 693 313 m 673 334 q 654 321 658 324 q 639 340 646 331 q 916 505 853 475 q 673 334 876 468 m 937 484 q 670 319 732 339 q 680 325 680 326 q 926 498 888 463 q 937 484 931 492 m 798 472 q 791 467 792 468 q 631 350 644 364 q 616 368 623 359 l 798 472 m 718 548 q 574 431 566 444 q 582 425 576 427 q 824 564 617 418 q 588 406 759 509 q 553 453 574 424 l 718 548 m 793 628 q 547 463 715 567 q 538 475 544 467 q 793 628 600 499 m 680 648 l 509 522 q 507 520 507 522 q 493 541 499 532 l 680 648 m 744 726 q 535 584 720 696 q 485 553 500 563 q 473 570 480 559 l 744 726 m 587 676 q 716 756 685 739 q 466 581 652 707 q 456 597 460 590 q 587 676 477 606 m 435 629 l 695 779 q 448 609 637 726 q 439 623 442 618 q 433 628 437 627 l 435 629 m 422 662 q 707 834 653 818 q 429 639 667 794 l 427 643 q 418 657 421 652 q 416 661 421 652 l 422 662 m 481 735 q 412 671 416 688 q 405 692 408 682 q 481 735 422 701 m 397 728 l 601 846 l 401 705 q 397 724 398 715 l 397 728 m 396 769 l 669 926 l 396 743 l 396 769 m 772 999 q 737 979 749 991 l 661 935 q 745 1017 755 999 q 798 1015 772 1017 l 772 999 m 707 921 l 531 820 l 717 944 q 710 922 713 932 l 707 921 m 707 867 q 710 846 708 857 q 441 688 664 838 q 707 867 505 745 m 706 880 q 645 844 696 874 q 488 752 543 784 l 707 907 q 706 880 706 893 m 720 800 q 712 802 718 805 l 584 728 q 715 827 690 802 q 736 779 722 806 q 663 739 720 773 q 720 800 728 787 m 750 743 l 578 644 q 743 764 718 740 q 745 759 746 758 q 753 743 749 752 l 750 743 m 687 666 q 759 732 756 713 q 772 711 764 724 q 766 711 769 713 l 687 666 m 790 684 q 529 522 591 546 l 772 702 q 775 707 775 703 l 779 701 q 785 696 781 698 q 787 689 785 692 q 790 684 785 692 m 527 491 q 692 604 552 516 q 797 674 791 664 q 811 654 804 665 q 532 485 595 509 l 527 491 m 515 509 q 536 514 522 509 q 521 500 527 507 l 515 509 m 401 813 q 405 814 403 813 q 734 1010 696 1010 q 475 833 730 986 q 397 786 412 795 q 401 813 398 799 m 410 853 q 413 860 410 853 q 562 952 490 909 q 535 935 547 942 q 406 838 433 866 q 410 853 408 846 m 881 559 q 627 389 839 519 q 608 378 620 385 q 595 395 602 388 l 881 559 m 770 185 q 768 189 768 189 q 708 256 747 211 q 836 332 724 260 q 950 404 919 386 q 730 244 880 352 q 729 236 726 241 q 737 234 732 231 q 952 363 868 315 l 753 216 q 751 208 748 212 q 760 206 755 203 q 1021 363 984 361 q 838 231 1013 342 q 770 185 775 191 m 1043 355 q 1050 347 1047 350 q 976 303 1039 341 q 923 272 943 284 q 1032 366 1034 346 q 1035 363 1036 361 q 1040 360 1037 361 l 1043 355 m 1071 327 q 956 262 1034 310 l 1059 338 q 1071 327 1066 331 m 1137 269 q 1131 273 1135 272 q 985 189 1114 277 q 873 117 893 125 q 1003 208 890 135 q 1115 288 1106 275 q 1155 256 1135 271 q 1096 224 1131 245 q 1137 269 1141 260 m 881 139 q 859 108 853 117 q 864 104 860 104 q 991 178 878 100 q 1121 260 1098 252 q 897 99 1086 227 q 882 89 888 93 q 841 119 861 104 q 881 139 857 126 m 1087 312 q 1104 296 1096 304 q 831 127 897 151 l 1087 312 m 1202 227 q 1225 213 1217 217 q 1095 130 1192 195 q 956 43 977 50 q 1116 158 969 64 q 1202 224 1206 216 q 1198 227 1200 227 l 1193 227 q 926 64 1012 109 l 1177 241 q 1192 233 1186 236 l 1202 227 m 1238 205 q 1158 155 1218 192 q 1112 127 1132 139 q 1236 206 1204 189 q 1238 205 1238 205 m 990 29 q 1164 145 1022 58 q 1249 199 1230 186 q 1260 193 1255 195 q 1019 47 1205 167 q 991 29 998 33 l 990 29 m 1066 12 q 1198 92 1097 28 q 1233 115 1223 109 l 1094 8 q 1066 12 1079 10 m 1348 166 q 1379 171 1360 166 q 1146 33 1231 82 l 1308 157 q 1310 165 1312 161 q 1305 168 1308 168 q 1192 102 1298 170 q 1076 31 1109 50 q 1138 73 1095 44 q 1289 180 1266 159 q 1345 166 1320 168 l 1348 166 m 1506 319 l 1506 321 q 1489 337 1504 337 l 1487 336 q 1471 319 1471 335 l 1471 313 q 1471 311 1471 313 l 1468 279 q 1465 231 1468 247 l 1457 227 l 1455 226 q 1348 189 1379 189 l 1346 189 q 1267 216 1315 191 l 1267 221 q 1261 226 1265 224 q 1251 224 1257 227 q 1214 247 1236 233 l 1204 252 q 1198 256 1207 250 l 1199 257 q 1201 264 1204 260 q 1194 269 1199 268 q 1181 267 1190 270 q 1105 327 1143 293 l 1105 331 q 1099 335 1103 334 l 1096 335 q 1067 363 1081 349 q 1075 372 1071 368 q 1097 393 1082 379 q 1169 469 1149 442 q 1240 602 1193 502 l 1244 609 l 1245 612 q 1251 618 1249 614 l 1251 620 q 1393 621 1334 621 q 1417 621 1408 621 l 1428 621 q 1445 640 1447 623 q 1431 654 1444 652 l 1425 655 q 1295 656 1411 656 l 1253 655 q 1046 652 1131 654 l 1030 652 q 1013 633 1013 652 q 1031 617 1015 616 l 1047 618 q 1210 620 1070 618 q 1208 617 1215 631 l 1206 612 q 1141 490 1161 517 q 1077 422 1124 467 l 1065 411 q 1049 396 1053 400 q 1043 389 1046 392 q 987 456 1019 416 q 994 471 998 465 q 987 475 992 475 q 973 474 983 477 q 929 534 958 494 l 905 566 q 902 571 907 564 q 901 580 903 576 q 898 583 900 582 l 894 582 q 880 601 878 602 q 859 629 867 617 l 863 632 q 865 640 868 635 q 857 642 862 645 l 851 639 q 838 657 844 648 q 836 664 838 661 l 832 667 l 831 667 q 813 692 821 681 l 823 694 l 834 696 q 935 727 912 715 q 988 777 966 745 q 1019 857 1017 819 q 1016 890 1019 872 l 1022 895 q 1023 903 1025 899 q 1019 905 1021 905 l 1013 904 q 1006 925 1010 915 l 1014 932 q 1016 939 1018 935 q 1012 942 1015 941 q 1000 939 1008 943 q 992 953 996 947 q 923 1007 972 983 q 826 1035 882 1028 q 711 1042 773 1042 q 591 1030 637 1042 q 451 958 508 1009 q 388 861 408 920 q 374 722 366 797 q 397 647 377 692 q 401 640 399 643 q 391 637 395 640 q 252 596 307 621 q 110 496 151 548 q 41 329 55 427 q 41 320 38 323 q 61 180 33 243 q 75 153 66 168 q 67 132 62 140 q 71 130 68 130 q 75 130 73 129 q 87 136 88 138 q 122 95 102 115 q 117 79 113 85 q 121 76 118 77 q 138 80 125 75 q 153 66 145 73 l 151 66 q 151 58 147 62 q 158 56 153 53 l 163 58 q 264 7 202 28 l 264 4 q 269 -1 264 0 q 273 1 271 -1 l 277 3 q 278 3 280 2 q 310 -7 294 -3 l 311 -12 q 315 -15 312 -15 q 318 -14 317 -15 l 326 -10 q 412 -20 369 -20 l 418 -20 q 608 10 529 -20 q 740 90 655 28 l 743 92 q 794 129 775 116 q 863 74 814 109 l 864 70 q 871 68 867 65 q 881 62 878 64 l 884 60 q 892 54 888 57 l 885 49 q 884 41 881 45 q 888 37 885 38 q 909 43 893 36 q 966 13 940 24 q 968 8 966 10 l 971 5 q 979 8 974 5 q 1145 -19 1055 -18 l 1149 -19 q 1219 -9 1177 -19 q 1345 37 1302 12 q 1449 129 1401 71 q 1496 209 1484 171 q 1503 277 1503 231 l 1506 309 l 1506 311 l 1506 319 z "},"'":{"ha":311,"x_min":34,"x_max":277,"o":"m 185 644 q 159 598 155 604 q 163 595 161 595 l 166 596 l 177 602 q 168 571 172 584 q 149 623 161 593 l 185 644 m 89 788 q 81 808 85 800 q 199 876 148 847 l 89 788 m 73 838 q 213 920 109 855 q 82 825 171 888 q 77 821 43 797 q 73 838 75 829 m 68 854 q 65 871 66 863 q 171 932 98 888 l 68 854 m 65 935 q 72 951 68 943 q 91 963 77 954 q 94 965 100 969 q 66 918 62 926 q 74 916 69 913 l 144 957 q 62 890 113 930 q 65 935 60 916 m 109 987 q 90 975 103 984 l 93 978 q 109 987 99 983 m 85 935 q 121 981 98 954 q 121 987 123 983 l 117 989 l 115 989 q 159 998 138 998 q 189 995 174 998 l 85 935 m 198 988 q 200 991 199 990 q 227 979 217 987 q 83 893 136 924 q 197 987 186 977 l 198 987 l 198 988 m 245 952 q 102 866 159 899 l 236 968 q 245 952 241 961 m 248 844 q 168 795 237 844 q 129 769 141 777 l 252 865 q 248 844 251 854 m 233 790 q 228 793 231 793 q 162 760 217 796 q 244 826 197 789 q 234 787 240 808 l 233 790 m 222 751 q 208 744 220 752 q 132 698 154 710 q 180 736 144 709 q 233 782 227 773 q 223 751 229 767 l 222 751 m 158 678 q 182 699 166 686 q 217 729 208 721 q 210 709 216 726 l 158 678 m 111 725 q 105 742 109 732 q 174 787 121 750 q 199 804 189 798 q 111 725 117 740 m 119 718 q 217 780 187 766 q 174 745 208 771 q 120 701 131 713 q 114 718 116 712 l 119 718 m 256 908 l 256 888 q 174 837 237 880 q 135 811 148 820 l 256 908 m 252 919 q 222 903 247 916 q 155 863 199 889 q 252 937 227 915 q 255 920 254 928 l 252 919 m 93 776 q 180 828 104 778 q 229 861 213 850 l 99 759 q 93 776 96 766 m 131 673 q 129 678 130 675 l 127 684 q 191 721 142 690 q 175 707 185 715 q 132 668 140 677 l 131 673 m 195 687 l 144 636 q 138 654 144 639 l 195 687 m 174 650 l 201 677 l 196 663 l 174 650 m 178 615 q 184 623 180 618 l 182 617 l 178 615 m 277 911 q 269 954 275 935 q 268 960 269 957 q 265 962 267 961 q 254 981 260 972 l 258 985 q 260 993 262 988 q 252 994 256 997 q 245 990 249 992 l 242 994 q 159 1019 213 1019 q 80 995 113 1019 q 44 940 55 977 q 43 874 37 914 q 37 870 36 869 q 36 863 34 867 q 40 861 37 861 l 45 861 q 50 840 47 851 q 50 833 48 837 q 52 831 50 833 q 59 808 55 821 q 58 807 58 807 q 54 799 52 802 q 62 797 57 794 q 111 665 76 758 l 115 654 q 152 553 141 585 q 159 545 154 547 q 165 541 161 542 l 170 540 q 186 552 182 540 q 223 677 195 591 l 224 682 q 277 884 272 832 l 277 911 z "},"(":{"ha":652,"x_min":34,"x_max":618,"o":"m 414 -127 q 427 -119 418 -125 q 440 -137 435 -130 q 414 -127 427 -132 m 374 -111 q 393 -99 388 -102 q 399 -122 395 -106 q 376 -113 384 -116 l 374 -111 m 328 -62 q 349 -47 342 -52 q 322 -85 329 -73 q 306 -77 314 -81 q 328 -62 313 -72 m 305 3 q 265 -49 269 -41 q 263 -47 249 -36 q 246 -33 255 -41 l 305 3 m 262 16 q 286 32 273 24 q 230 -18 248 1 q 221 -9 226 -14 q 262 16 233 -2 m 307 82 q 211 1 272 50 q 199 16 205 8 q 307 82 233 35 m 277 111 q 184 34 210 57 q 176 45 180 40 q 277 111 239 89 m 203 136 q 149 86 165 104 q 142 98 146 92 q 203 136 165 112 m 125 130 q 277 225 227 197 l 277 218 q 135 111 235 180 q 125 130 130 121 m 112 157 q 178 202 131 169 q 263 258 242 246 q 119 142 225 224 q 112 157 116 148 m 267 292 q 106 172 228 253 q 98 192 102 182 l 267 292 m 180 276 q 93 211 111 227 l 91 218 q 180 276 116 232 m 206 336 q 85 241 159 298 q 81 260 83 250 l 206 336 m 252 442 q 75 309 206 398 q 73 333 73 321 l 252 442 m 68 410 q 90 425 78 416 q 253 530 199 500 l 74 386 q 72 379 70 383 q 78 374 74 376 q 129 395 89 372 l 71 351 q 68 410 69 380 m 245 556 q 92 439 203 517 q 68 423 79 431 q 68 449 68 437 q 79 455 73 452 l 245 556 m 71 489 l 151 538 q 70 475 98 500 l 71 489 m 74 528 q 233 625 98 534 q 72 505 180 581 l 74 528 m 92 620 q 239 707 105 618 q 250 715 248 714 q 185 669 231 701 q 86 584 79 597 q 91 580 88 581 q 201 646 103 577 q 278 699 258 687 l 278 696 q 76 546 227 652 q 77 552 78 562 q 92 620 82 585 m 176 795 q 179 792 177 793 l 183 793 q 355 906 306 884 q 144 747 309 869 q 152 761 149 756 q 175 798 161 779 l 176 795 m 245 871 q 222 852 233 861 q 243 872 231 861 l 245 871 m 443 989 q 393 945 408 964 q 373 920 384 935 l 370 921 q 199 819 349 926 q 397 962 250 867 q 399 970 402 965 l 397 972 q 443 989 420 983 m 170 720 q 321 833 227 763 q 309 804 313 817 l 170 720 m 281 713 q 195 656 262 703 q 100 593 117 602 q 191 660 113 607 q 285 730 270 713 q 281 713 283 722 m 339 865 q 253 808 319 854 q 171 753 197 769 q 355 892 317 861 q 339 865 347 879 m 128 716 q 223 774 147 722 q 117 691 140 712 q 128 716 123 705 m 109 672 q 114 673 112 671 l 288 778 q 97 637 232 730 q 109 672 104 657 m 288 750 q 233 717 285 751 q 187 686 203 697 q 297 772 264 742 q 290 749 293 760 l 288 750 m 269 655 q 265 658 267 657 q 237 641 262 659 q 139 576 176 601 q 275 680 235 645 q 271 659 273 668 q 266 621 268 641 l 178 568 q 269 655 277 641 m 262 579 q 73 465 62 457 q 264 604 131 511 q 262 579 263 593 m 260 545 q 233 530 249 540 q 261 556 252 546 l 260 545 m 259 497 q 96 390 144 412 l 260 520 q 260 511 260 514 l 259 497 m 259 460 l 126 379 l 259 482 l 259 460 m 264 323 q 266 307 265 315 l 115 215 q 198 275 138 233 q 264 323 247 309 m 261 369 q 262 346 262 357 q 201 304 248 337 q 92 232 122 250 q 261 369 245 350 m 260 414 q 252 416 257 419 q 183 371 218 394 q 259 435 237 412 l 260 414 m 260 409 l 261 380 q 256 379 258 380 l 100 284 q 258 407 152 330 l 260 409 m 76 298 q 77 298 78 297 q 135 328 83 296 q 79 279 96 297 q 76 298 77 290 m 269 274 q 253 265 262 271 q 269 279 261 273 l 269 274 m 275 237 q 203 194 250 223 q 272 252 252 233 q 275 237 273 245 m 231 166 q 280 206 262 189 q 282 198 281 201 q 231 166 257 182 m 165 87 q 285 185 202 122 q 290 164 288 174 q 165 87 205 111 m 166 60 q 159 71 165 62 q 255 129 184 84 q 236 115 251 125 q 166 60 185 77 m 299 134 q 220 89 279 127 q 242 105 229 95 q 296 146 280 134 q 299 134 298 138 m 192 24 q 286 104 217 49 q 304 119 300 115 q 311 98 307 109 q 192 24 232 48 m 322 68 q 270 35 306 58 q 319 78 301 61 q 322 68 320 75 m 351 3 q 347 3 349 3 q 290 -34 313 -19 q 334 21 307 -12 q 334 28 337 25 q 327 30 331 33 l 240 -23 q 329 52 269 5 q 352 3 340 26 l 351 3 m 340 -93 q 380 -66 367 -74 q 353 -102 361 -90 q 338 -94 346 -98 q 340 -93 338 -94 m 382 -51 q 338 -80 370 -58 q 372 -35 351 -61 q 382 -51 377 -41 m 288 -66 q 274 -55 281 -61 q 328 -23 284 -51 q 288 -66 312 -41 m 355 -3 q 366 -24 360 -13 q 321 -52 359 -26 q 306 -63 310 -60 q 355 -3 353 -14 m 397 -86 q 367 -103 392 -85 q 393 -67 376 -89 q 421 -110 406 -88 q 409 -117 414 -115 q 401 -89 402 -91 l 397 -86 m 604 -176 q 587 -174 596 -170 q 467 -135 519 -153 l 466 -132 q 458 -125 463 -127 q 446 -108 453 -117 l 452 -104 q 453 -96 456 -101 q 446 -94 450 -92 q 439 -98 442 -97 q 372 11 392 -28 q 347 66 359 37 q 353 72 354 73 q 355 79 357 75 l 351 82 q 341 79 349 83 q 335 96 338 86 q 340 110 343 105 q 337 113 339 112 l 333 112 l 330 110 q 313 161 321 136 q 319 175 322 170 q 315 178 318 177 l 311 177 l 309 176 q 298 225 303 201 q 307 246 311 240 q 303 250 306 249 q 295 247 301 250 q 288 299 291 270 l 288 304 q 288 314 290 310 l 286 315 l 285 340 q 288 353 291 348 q 284 356 287 355 l 283 356 q 281 499 280 424 l 282 500 q 283 508 287 503 l 281 509 l 281 511 q 282 538 281 524 l 286 542 q 288 549 290 545 q 283 553 286 552 q 288 621 284 590 l 293 624 q 294 632 297 627 q 290 635 293 635 q 292 655 291 646 q 302 710 297 686 q 303 712 303 711 q 328 795 313 760 q 362 862 341 827 q 366 869 367 865 q 409 930 388 906 q 458 973 422 947 l 459 975 q 471 983 465 978 l 473 985 l 475 986 q 555 999 502 991 l 568 1000 l 587 1002 q 603 1021 603 1002 q 587 1036 602 1036 l 562 1034 l 551 1032 q 438 1012 471 1021 q 363 980 406 1002 q 239 899 279 935 q 133 772 170 839 q 56 555 73 667 q 49 490 51 526 q 43 486 46 488 q 41 478 39 483 q 48 475 44 474 l 47 455 q 37 435 34 441 q 47 436 39 432 q 51 334 47 385 l 42 328 q 41 320 38 325 q 48 319 44 316 l 52 321 q 66 227 57 268 q 58 220 62 223 q 56 212 54 216 q 62 208 58 210 l 71 210 q 87 159 77 184 q 77 153 79 154 q 75 145 73 150 q 80 142 77 142 q 94 146 84 141 q 101 128 97 136 l 100 127 q 99 119 96 124 q 106 118 102 115 q 117 99 111 110 q 106 92 106 92 q 104 85 102 90 q 109 82 106 82 q 123 87 111 81 q 150 45 135 67 q 143 29 140 35 q 146 26 144 27 q 151 28 149 26 q 159 33 154 30 q 169 18 163 26 q 163 3 161 7 q 167 0 165 0 q 180 4 170 -1 q 194 -12 186 -3 q 193 -19 190 -15 q 196 -22 193 -22 l 201 -21 q 216 -35 208 -27 q 214 -46 211 -42 q 220 -48 216 -51 l 226 -45 q 250 -65 237 -55 q 273 -82 260 -73 q 271 -89 269 -85 q 275 -92 273 -92 q 285 -90 279 -93 q 343 -121 310 -106 l 344 -123 q 347 -127 345 -126 q 352 -126 349 -127 q 368 -133 360 -130 q 593 -210 493 -191 l 605 -210 q 614 -199 611 -206 q 606 -179 618 -186 l 604 -176 z "},")":{"ha":656,"x_min":34,"x_max":622,"o":"m 395 -69 q 275 -147 358 -103 l 273 -148 q 205 -178 235 -169 q 254 -134 239 -153 q 258 -136 256 -136 q 437 -28 277 -136 q 395 -69 418 -50 m 330 -14 q 413 40 338 -12 q 502 98 474 81 l 312 -48 q 330 -14 321 -32 m 366 94 q 370 92 368 92 q 465 142 382 88 l 358 58 q 357 50 355 55 q 360 47 358 48 q 400 73 363 47 q 537 163 498 141 l 340 9 q 366 94 355 46 m 390 319 l 390 339 q 490 401 422 357 l 390 319 m 390 382 q 547 482 497 453 q 481 435 530 469 q 391 371 415 391 l 390 382 m 473 750 q 360 655 442 717 q 359 662 357 666 q 355 677 357 665 l 473 750 m 353 834 q 374 849 368 844 q 355 833 368 844 q 312 793 324 805 q 307 804 308 801 q 353 834 321 812 m 298 823 q 290 837 294 829 q 338 866 294 837 q 368 885 357 878 l 369 884 q 299 820 347 859 l 298 823 m 274 865 q 326 897 292 876 q 315 884 325 896 q 286 846 288 851 q 274 865 280 854 m 296 920 q 264 881 283 903 q 256 895 260 888 l 296 920 m 212 960 q 211 962 212 960 l 212 960 m 224 943 q 218 951 220 949 l 222 953 q 223 947 222 951 l 224 943 m 250 904 l 245 911 l 252 933 q 250 940 254 937 q 243 940 247 943 q 237 935 240 937 q 233 954 236 940 q 275 937 262 943 q 291 929 283 933 l 250 904 m 326 911 q 279 881 298 892 q 311 919 300 906 q 326 911 318 915 m 357 892 q 333 876 348 885 q 311 861 318 866 q 323 877 315 866 q 343 901 338 895 q 357 892 351 897 m 387 871 q 347 844 375 864 q 336 837 342 840 q 378 878 363 861 q 387 871 382 874 m 330 794 q 362 824 340 804 q 401 859 392 850 q 414 846 407 853 l 330 794 m 458 798 q 377 745 443 791 l 372 742 q 439 815 442 809 q 435 819 437 818 q 370 783 425 821 q 426 836 394 806 q 458 798 443 818 m 349 697 q 345 709 347 703 q 383 736 355 715 q 427 766 412 757 q 349 697 373 720 m 391 819 q 331 749 326 758 q 334 746 332 747 q 338 747 336 745 q 412 797 383 779 q 339 726 387 772 q 319 775 330 750 l 391 819 m 364 696 q 467 785 404 732 q 475 776 472 779 q 480 768 471 781 l 364 696 m 437 701 q 489 753 477 736 q 498 739 494 745 l 437 701 m 581 378 q 581 352 581 365 q 401 234 460 266 l 581 378 m 578 311 q 435 228 562 312 q 580 337 492 273 q 578 311 578 323 m 374 138 q 380 138 377 136 l 511 218 l 368 104 q 374 138 371 119 m 463 347 q 389 286 412 308 q 390 302 389 289 l 463 347 m 389 262 q 541 361 483 326 l 387 237 l 389 262 m 383 197 q 385 214 385 206 q 429 237 399 220 q 383 197 397 212 m 475 229 q 377 153 390 168 q 381 178 379 166 q 563 294 513 268 q 475 229 544 278 m 421 176 q 481 219 440 190 q 576 291 561 276 q 573 269 574 279 l 421 176 m 581 393 q 411 291 557 389 q 581 419 469 340 l 581 393 m 579 458 q 581 432 580 446 l 579 431 l 443 348 l 579 458 m 572 532 q 576 503 574 517 q 572 505 574 505 q 452 437 564 508 q 572 532 505 479 m 567 568 q 571 545 569 555 q 409 437 462 465 l 567 568 m 389 418 q 444 444 403 419 q 390 400 407 414 l 389 418 m 377 572 q 518 662 466 630 q 380 550 472 623 q 377 572 379 561 m 379 614 q 492 688 458 667 q 375 585 452 652 q 371 608 374 596 l 379 614 m 514 712 q 480 693 504 708 q 510 720 499 709 l 514 712 m 521 699 q 530 682 525 692 q 437 625 503 666 q 521 699 510 688 m 446 588 q 538 665 513 642 q 545 648 543 652 l 446 588 m 388 460 l 507 533 l 389 435 l 388 460 m 490 562 q 461 538 471 547 q 387 475 399 486 q 385 498 387 487 l 490 562 m 382 535 l 469 588 q 384 517 408 541 l 382 535 m 560 599 q 564 581 562 590 l 437 503 q 554 602 492 549 q 555 609 558 605 q 548 611 553 614 l 408 525 q 549 636 458 567 q 560 599 556 616 m 505 729 q 399 646 481 706 q 368 624 376 629 q 363 643 366 633 l 505 729 m 391 357 q 486 426 416 378 q 576 495 572 484 q 578 468 578 483 q 574 468 576 469 q 391 352 450 387 l 391 357 m 564 223 q 562 222 565 223 q 403 117 450 144 l 570 250 q 564 223 567 235 m 553 183 q 485 144 534 176 l 559 203 q 553 183 557 195 m 535 131 q 425 62 513 121 l 544 154 q 535 131 539 142 m 305 -67 l 307 -66 q 494 48 323 -58 q 490 41 492 44 q 269 -116 426 -15 q 300 -68 285 -94 l 305 -67 m 464 3 q 439 -14 457 -1 l 435 -16 q 468 9 453 -3 q 464 3 465 5 m 506 68 q 382 -8 437 26 l 522 100 q 506 68 513 83 m 554 687 q 551 690 553 690 q 525 737 538 713 q 526 749 528 745 q 518 751 523 754 l 517 751 q 492 789 506 768 q 442 850 469 823 q 444 858 446 854 q 436 860 441 863 l 434 859 q 401 888 418 873 q 391 896 397 890 q 391 905 393 901 q 388 907 390 907 q 378 905 385 908 q 322 939 354 922 l 321 941 q 318 944 320 943 l 313 943 q 284 958 300 950 q 58 1036 158 1016 l 47 1035 q 38 1025 41 1031 q 46 1004 34 1012 q 48 1002 47 1002 q 64 999 56 995 q 184 960 127 979 l 186 956 q 193 949 189 951 q 229 896 210 926 l 227 888 q 228 882 225 884 q 234 881 231 879 l 237 883 q 250 863 243 873 l 249 857 l 252 854 q 255 854 253 854 q 279 812 271 829 l 282 806 q 278 802 274 799 q 277 795 274 799 q 281 791 278 792 q 288 793 283 791 q 296 774 292 784 q 296 767 295 770 q 300 764 298 765 q 331 680 318 723 q 326 666 323 670 q 329 663 327 664 l 335 665 l 338 656 q 349 606 345 632 q 351 602 349 605 q 361 520 357 566 q 369 382 368 463 q 366 374 365 376 q 369 372 367 372 l 369 353 q 359 330 355 338 q 363 327 360 328 l 368 328 l 368 302 q 368 294 365 298 l 368 294 q 357 159 366 216 q 320 19 341 69 q 239 -117 288 -60 q 189 -161 225 -135 q 178 -170 183 -166 q 174 -173 176 -172 q 99 -185 149 -178 l 82 -188 l 61 -190 q 49 -195 54 -190 q 45 -208 44 -201 q 61 -224 45 -224 l 87 -222 l 96 -220 q 210 -200 176 -210 q 283 -169 242 -191 l 285 -168 q 410 -87 370 -122 q 515 41 477 -26 q 593 260 576 146 q 581 604 622 441 q 554 682 572 643 l 554 687 z "},"*":{"ha":628,"x_min":34,"x_max":594,"o":"m 536 740 q 497 739 522 736 q 542 766 510 747 q 568 781 561 777 q 564 764 567 770 q 536 740 557 747 m 402 758 q 471 800 414 764 q 529 837 510 826 q 439 750 433 759 q 418 755 432 751 q 402 758 409 757 m 359 766 q 402 800 379 781 q 449 835 434 824 l 450 831 l 454 828 q 465 832 457 827 q 446 817 458 826 q 387 761 387 768 q 359 766 371 764 m 399 685 q 422 677 412 681 q 372 647 391 657 q 389 688 392 683 l 399 685 m 517 619 l 437 573 l 492 630 q 493 637 495 633 l 490 640 q 458 621 487 640 q 415 595 431 604 q 479 653 468 637 q 496 644 490 648 q 516 622 512 633 l 517 619 m 517 594 q 504 570 514 583 q 497 570 500 573 q 447 538 469 551 q 519 601 472 560 q 517 594 518 597 m 493 593 q 428 534 442 549 q 414 543 420 537 q 412 546 413 544 l 493 593 m 395 570 q 454 606 413 581 l 404 555 q 395 570 400 562 m 382 601 q 433 633 391 604 q 469 657 460 651 q 391 589 454 640 l 388 587 q 382 601 385 593 m 438 671 q 458 663 449 667 q 427 642 449 656 q 395 620 405 627 q 399 625 397 623 q 438 671 433 661 m 391 633 q 376 616 380 621 q 370 633 374 623 q 417 661 382 640 q 391 633 409 652 m 366 698 q 382 692 376 694 q 368 684 378 691 l 366 698 m 344 707 l 345 701 q 355 700 348 696 l 359 673 q 362 669 359 671 q 368 670 365 668 q 375 675 371 673 q 363 652 371 667 q 342 707 350 689 l 344 707 m 334 728 q 330 723 331 726 l 324 723 q 304 720 313 719 l 298 722 l 297 722 q 344 751 315 733 l 345 743 q 334 728 343 735 m 264 621 q 176 566 214 589 l 275 648 l 273 644 q 267 622 271 634 l 264 621 m 254 577 q 180 535 246 574 q 262 606 208 562 q 254 577 258 589 m 239 541 q 218 519 229 524 q 191 515 205 512 q 177 520 184 517 q 248 562 227 551 q 239 541 243 549 m 149 540 q 199 568 164 546 q 161 530 172 543 q 151 538 155 534 l 149 540 m 130 563 q 204 610 146 571 q 248 640 234 631 l 140 549 q 130 563 134 556 m 132 614 q 136 618 133 616 q 136 615 136 616 q 140 612 138 613 q 176 631 146 611 l 179 634 q 123 581 157 612 q 132 614 120 597 m 177 646 q 170 641 173 643 q 142 623 146 625 l 141 623 q 177 646 153 633 m 234 673 q 289 699 272 690 q 281 669 286 688 q 198 619 269 668 q 136 578 154 589 q 208 656 213 648 q 205 659 207 659 q 234 673 214 663 m 215 753 q 172 746 188 749 l 236 783 l 232 774 q 222 755 225 760 q 215 753 212 753 m 94 741 q 195 801 170 791 q 138 741 182 783 l 94 741 m 77 848 q 85 845 80 842 l 110 859 q 62 809 90 838 q 64 817 62 814 q 77 848 68 834 m 84 857 q 87 860 85 859 q 103 867 94 865 l 84 857 m 90 823 q 130 865 119 853 q 149 857 138 863 l 90 823 m 117 801 q 166 844 151 828 q 178 836 172 841 l 117 801 m 61 770 q 60 793 59 780 l 62 794 l 154 847 q 61 770 123 818 m 76 747 q 66 759 70 752 l 180 825 q 130 787 165 813 q 77 747 88 757 l 76 747 m 170 757 q 208 810 214 800 q 203 813 206 812 q 149 788 194 815 q 195 823 182 812 q 222 801 203 817 q 232 793 227 796 l 170 757 m 266 765 q 269 763 270 762 q 264 762 256 761 q 266 765 266 764 m 236 758 q 241 769 238 762 q 247 780 245 777 q 259 771 253 775 l 258 770 q 236 758 245 763 m 287 846 q 342 879 322 867 q 299 827 326 858 l 298 824 q 289 841 293 833 q 287 846 288 844 m 280 859 q 274 871 277 865 q 328 903 294 881 l 280 859 m 259 901 q 326 942 273 908 q 328 943 331 945 l 266 888 q 259 901 262 895 m 243 970 q 290 998 273 988 q 245 945 275 977 l 244 943 q 243 970 240 961 m 261 994 q 262 994 268 998 q 263 995 261 994 l 261 994 m 307 1004 q 340 1000 325 1004 l 277 964 q 307 1004 302 992 m 245 938 q 252 937 248 935 l 323 979 q 254 916 299 954 q 245 938 248 928 m 367 980 q 319 951 358 976 q 288 930 298 937 q 345 998 352 987 q 354 994 351 996 q 367 980 362 988 m 288 732 q 300 743 292 736 q 330 773 321 764 q 336 768 334 770 l 338 765 l 342 762 q 289 730 312 744 l 288 732 m 281 753 l 312 770 q 292 751 307 765 q 282 741 286 744 q 280 749 280 746 l 281 753 m 298 775 l 294 772 l 297 775 l 298 775 m 307 805 q 300 819 304 812 l 302 819 q 317 825 304 818 l 319 827 l 307 805 m 335 846 l 334 846 q 329 846 332 847 q 342 861 335 852 l 336 849 l 335 846 m 357 899 q 313 873 348 895 l 365 922 q 357 899 361 911 m 370 943 q 279 886 315 905 l 371 967 l 370 943 m 472 850 q 455 839 458 840 q 476 853 467 848 q 472 850 467 846 m 524 868 q 544 859 535 866 q 465 810 524 848 q 418 779 431 787 q 452 808 427 787 q 507 864 512 857 q 505 867 507 866 q 524 868 514 870 m 521 772 q 566 813 559 804 q 568 793 568 803 q 536 775 563 791 q 498 752 510 759 q 521 772 505 759 m 555 844 q 562 827 559 836 q 475 777 555 824 q 555 844 505 804 m 473 743 q 447 748 461 745 q 540 802 507 783 q 514 780 532 795 q 473 743 480 751 m 571 859 q 571 864 572 861 q 567 867 570 866 l 566 867 q 564 869 564 869 q 528 890 549 886 q 486 882 510 893 q 389 817 462 873 q 349 786 368 800 q 339 792 345 789 l 337 794 q 355 836 342 808 l 357 840 q 393 963 397 935 q 366 1012 391 995 q 307 1026 345 1026 q 252 1013 274 1026 q 224 981 233 1002 q 223 938 217 964 q 249 873 227 918 l 248 873 q 247 866 245 869 q 251 863 248 863 l 254 863 q 264 844 258 854 q 264 838 262 840 l 267 836 q 270 831 269 833 q 288 795 280 812 q 276 785 282 792 q 236 817 260 797 q 209 839 218 832 q 210 848 212 844 l 206 850 l 202 850 l 198 848 q 180 861 189 855 l 180 869 q 172 870 177 873 l 170 869 q 128 888 144 885 q 73 876 96 895 q 43 823 54 860 q 40 766 34 793 q 62 730 44 745 q 102 718 77 720 l 111 718 q 219 732 138 718 q 260 739 236 735 q 267 725 262 732 q 258 708 255 713 q 226 692 243 701 l 225 692 q 115 627 132 650 q 102 572 95 601 q 136 522 108 547 q 186 494 160 500 q 199 492 192 492 q 228 499 214 492 q 258 530 244 507 q 294 637 270 551 l 299 656 q 311 699 308 687 l 322 700 q 343 643 330 682 q 371 572 361 595 q 369 565 367 568 q 373 562 370 563 l 376 562 q 400 527 388 537 q 444 509 420 509 q 453 510 446 509 q 506 540 478 513 q 538 587 530 562 q 539 619 543 602 l 543 622 q 544 629 547 625 q 537 631 541 633 l 536 630 q 508 662 529 647 q 407 705 488 675 l 391 711 q 359 724 370 720 q 366 739 364 732 l 366 743 q 414 733 384 740 q 518 716 490 716 q 542 720 531 716 q 585 755 573 728 q 587 816 594 779 q 571 859 583 839 z "},"+":{"ha":966,"x_min":34,"x_max":932,"o":"m 812 530 q 755 473 789 507 q 709 471 737 471 l 812 530 m 595 469 l 581 469 l 578 469 q 623 497 595 479 q 688 537 669 526 q 614 469 623 482 l 595 469 m 505 155 q 536 174 517 163 l 536 156 l 505 155 m 433 151 q 519 203 488 186 q 477 155 484 163 q 433 151 446 153 m 433 279 l 432 299 q 496 337 454 311 l 433 279 m 431 378 q 526 435 502 425 q 434 353 507 412 q 433 346 431 350 q 437 343 434 344 q 483 365 444 341 q 432 322 449 337 l 431 378 m 430 404 q 474 424 446 409 q 430 395 446 406 l 430 404 m 475 513 q 426 468 439 484 l 422 469 l 421 469 q 397 469 413 469 l 475 513 m 277 469 q 360 520 302 484 q 383 535 375 530 q 315 471 322 480 l 277 469 m 149 470 q 265 538 184 487 q 186 471 232 509 l 149 470 m 71 467 l 186 533 q 122 469 124 480 q 95 468 111 469 l 71 467 m 68 557 q 77 557 72 557 q 66 551 70 553 l 68 557 m 90 553 q 82 542 87 549 q 63 511 64 517 q 64 537 63 526 q 83 549 68 539 l 87 551 q 90 553 89 552 m 145 559 q 79 519 102 532 q 91 536 83 524 q 106 558 104 553 l 145 559 m 65 481 q 63 511 64 494 q 64 507 63 509 q 68 504 66 505 q 102 519 73 503 q 65 481 75 494 m 210 559 l 84 486 q 153 552 109 513 q 154 559 157 555 l 210 559 m 342 560 q 226 490 271 516 q 304 560 288 543 l 342 560 m 141 477 q 234 560 167 504 q 279 560 254 560 q 141 477 178 495 m 210 470 q 299 521 239 484 l 241 469 l 210 470 m 404 560 q 354 530 390 552 q 260 473 286 487 l 353 555 q 355 560 356 557 l 404 560 m 490 699 q 434 648 444 661 l 433 666 q 490 699 454 677 m 434 782 q 526 840 491 819 l 439 759 q 438 752 435 755 q 445 751 441 748 q 540 809 502 787 q 437 721 503 775 q 435 714 433 718 q 439 711 437 712 q 485 736 443 710 l 491 740 l 433 689 l 434 782 m 439 871 q 436 869 435 869 l 439 871 m 513 877 q 435 827 460 840 l 435 836 l 452 867 l 452 872 q 494 876 475 874 l 513 877 m 434 814 q 474 838 448 821 l 434 800 l 434 814 m 539 878 q 541 873 539 875 l 541 859 q 467 816 520 850 l 526 872 q 528 878 528 874 l 539 878 m 542 839 l 543 822 q 491 792 523 812 l 542 839 m 541 589 l 540 570 q 542 564 540 568 l 431 500 l 541 589 m 427 555 l 428 555 l 431 555 q 542 624 511 609 l 541 599 l 539 600 q 362 501 522 604 q 424 557 389 526 l 427 555 m 543 707 l 463 661 q 543 728 489 684 l 543 707 m 543 656 q 543 635 543 646 q 446 578 519 627 q 543 656 477 608 m 543 674 q 482 635 530 669 q 461 621 469 626 q 543 692 494 649 l 543 674 m 435 583 q 435 592 435 588 q 469 613 444 597 q 435 583 447 595 m 538 773 q 534 776 536 775 q 494 754 530 777 q 543 797 525 781 q 543 744 543 771 q 444 684 483 707 l 536 766 q 538 773 540 769 m 434 633 l 437 634 l 504 673 q 434 612 450 625 l 434 633 m 374 469 q 332 469 355 469 q 511 578 452 547 l 374 469 m 431 451 q 536 511 475 476 l 430 429 l 431 451 m 541 444 l 540 445 l 541 447 l 541 444 m 539 412 q 476 373 503 389 q 540 439 536 424 q 539 412 540 429 m 538 376 q 444 318 483 340 q 538 397 479 347 l 538 376 m 536 187 q 500 165 515 174 q 536 208 501 167 l 536 187 m 533 254 q 526 256 530 259 l 463 220 q 535 287 490 248 l 536 225 q 467 186 524 220 q 533 254 537 247 m 434 225 q 486 257 446 231 q 437 199 431 207 q 439 196 437 197 l 444 197 l 498 228 q 434 172 473 205 l 434 225 m 538 336 l 536 336 q 481 309 529 338 l 538 360 l 538 336 m 537 292 q 532 296 535 296 q 485 269 528 298 q 453 249 465 256 l 538 325 q 537 292 537 323 m 433 265 q 506 311 475 292 l 433 245 l 433 265 m 668 561 q 430 414 484 432 l 430 415 l 603 550 q 604 557 607 553 q 597 558 602 561 l 595 557 q 570 543 591 555 q 509 509 545 529 q 441 469 481 492 q 546 555 473 500 q 549 559 549 556 l 554 559 q 587 561 562 561 l 668 561 m 709 561 q 658 532 695 555 q 686 561 684 551 l 709 561 m 641 470 q 743 530 704 508 l 741 529 l 739 528 q 675 471 690 484 l 641 470 m 905 560 l 904 520 q 848 487 871 500 q 903 552 907 544 q 897 555 901 555 q 804 506 882 559 q 842 554 845 549 q 834 556 839 559 l 700 478 q 746 519 714 491 q 782 557 784 553 q 779 559 781 559 q 642 483 770 562 q 694 528 658 498 q 724 561 727 556 l 758 560 q 892 559 871 558 l 905 560 m 772 472 q 888 543 858 532 q 818 473 870 522 l 772 472 m 846 473 q 899 505 865 484 l 873 473 l 846 473 m 894 478 q 890 476 899 481 l 903 492 q 903 484 903 488 l 894 478 m 928 523 q 927 530 930 527 l 927 560 l 928 562 q 918 582 932 576 q 907 582 912 583 q 900 581 904 582 l 892 581 q 759 582 869 580 l 562 582 q 564 817 566 644 q 571 829 573 826 l 567 832 q 564 832 566 832 l 562 887 q 536 899 558 899 l 492 897 q 434 892 461 895 l 427 892 q 424 891 426 892 q 412 874 412 886 l 412 872 q 414 867 413 869 l 414 857 q 410 854 411 855 q 406 846 404 851 q 410 844 408 844 l 414 844 q 413 819 413 833 l 412 670 l 408 667 q 407 660 405 664 q 411 657 408 658 q 414 582 412 604 l 368 582 q 191 581 295 582 q 44 564 45 579 q 45 555 43 559 q 46 461 34 511 l 46 460 q 52 448 46 453 q 56 445 54 446 q 74 445 64 439 l 96 446 q 147 448 125 448 l 279 448 q 410 447 385 446 l 409 380 q 401 365 398 370 q 405 362 402 363 l 410 363 l 410 303 q 406 292 404 296 q 409 290 406 290 l 411 290 q 412 158 414 184 q 408 142 406 150 q 420 130 410 133 q 427 129 424 129 q 433 130 430 129 q 530 134 470 134 q 541 130 535 130 l 547 132 l 550 133 q 560 146 559 136 q 557 158 560 154 l 557 188 q 558 194 559 191 q 562 447 559 411 l 581 447 l 596 448 l 661 448 q 667 447 663 445 l 670 449 q 865 451 806 451 l 896 451 q 899 448 897 450 l 901 448 q 920 452 912 444 l 922 454 q 926 460 924 456 l 926 462 q 924 473 927 468 l 925 484 q 926 485 926 485 l 928 486 q 930 493 932 488 q 926 495 928 494 l 928 523 z "},",":{"ha":454,"x_min":34,"x_max":420,"o":"m 267 -143 q 195 -170 243 -157 l 184 -172 l 344 -80 q 267 -143 316 -113 m 138 -179 q 154 -170 144 -176 q 212 -131 197 -146 q 245 -91 230 -115 l 248 -92 q 252 -92 250 -93 q 361 -28 323 -50 q 165 -170 310 -75 q 162 -176 161 -172 q 151 -178 149 -178 l 138 -179 m 236 16 q 321 70 266 34 q 267 20 282 36 q 250 21 258 26 q 236 16 242 18 m 157 14 q 285 87 193 30 q 184 10 237 50 q 159 12 169 10 q 157 14 164 12 m 337 174 q 136 22 155 39 q 114 38 124 28 q 337 174 264 134 m 248 155 l 104 48 q 90 64 97 56 l 248 155 m 73 91 q 182 151 107 106 l 81 77 q 73 91 77 84 m 87 193 q 97 204 90 198 l 98 200 q 106 199 101 195 q 114 204 111 202 q 64 153 75 164 q 87 193 71 174 m 60 127 q 159 187 76 134 q 182 201 178 199 q 142 171 170 192 q 64 111 82 126 q 60 127 61 121 m 159 239 q 224 250 192 250 q 268 243 249 250 q 290 233 277 239 q 73 103 132 132 q 149 161 92 118 q 242 242 246 235 q 238 245 241 244 q 153 197 231 247 q 79 151 100 164 q 135 208 100 172 q 152 232 155 228 q 147 235 151 235 q 159 239 154 237 m 150 113 l 302 225 q 321 212 313 218 l 150 113 m 344 190 q 212 115 303 170 l 332 203 q 344 190 338 197 m 365 163 q 369 155 366 161 q 164 30 228 63 q 357 174 220 73 q 365 163 362 167 m 210 14 q 376 142 349 119 q 382 123 380 132 q 326 87 376 120 q 210 14 243 33 m 294 30 q 386 110 330 62 q 391 85 389 98 l 294 30 m 323 5 q 392 68 351 31 q 392 45 393 56 l 323 5 m 262 -62 q 279 -8 279 -28 q 277 6 279 -2 l 355 52 q 279 -27 276 -22 q 288 -29 282 -33 l 340 1 q 262 -62 281 -45 m 383 -4 q 312 -43 378 -4 q 285 -58 301 -49 q 347 -9 306 -41 q 391 25 381 18 q 383 -4 388 11 m 303 -90 q 372 -33 351 -54 q 359 -57 366 -45 l 303 -90 m 393 163 l 391 165 q 385 175 387 173 q 377 188 382 180 l 381 191 q 382 199 385 194 q 378 202 381 201 q 367 200 375 203 q 323 240 347 223 l 323 241 q 325 249 328 244 q 317 251 322 254 l 315 249 l 312 248 q 275 266 292 260 q 224 273 253 273 q 153 262 189 273 q 68 209 98 245 q 37 126 34 168 q 45 94 37 111 q 45 87 43 90 l 50 84 q 62 63 55 74 l 56 58 q 54 50 52 55 q 62 48 58 45 l 69 52 q 84 34 77 43 l 79 31 q 78 22 75 27 q 86 21 81 18 q 93 25 100 29 q 153 -11 120 -1 q 184 -14 166 -14 q 239 -8 212 -14 q 254 -3 247 -7 l 255 -8 q 241 -51 255 -22 q 196 -114 222 -89 q 142 -150 182 -127 q 110 -168 121 -161 q 102 -180 104 -172 q 104 -193 100 -187 q 115 -201 108 -199 q 126 -205 120 -205 l 129 -205 q 144 -203 134 -203 l 154 -201 q 203 -193 185 -197 q 279 -163 253 -180 q 372 -83 342 -125 q 416 40 412 -24 q 393 160 420 104 l 393 163 z "},"-":{"ha":496,"x_min":34,"x_max":462,"o":"m 395 441 l 425 458 q 427 466 430 461 q 420 468 425 471 l 395 454 l 431 496 q 430 441 431 446 l 395 441 m 408 486 l 370 440 q 328 439 350 440 l 408 486 m 58 433 q 225 538 154 496 q 87 433 112 464 q 60 431 66 431 l 58 433 m 63 548 l 68 551 l 63 545 l 63 548 m 66 564 q 71 564 68 564 l 64 560 l 64 562 l 66 564 m 199 567 q 100 508 177 555 q 90 502 106 512 q 100 510 95 506 q 159 567 158 557 l 199 567 m 431 564 l 431 549 q 429 547 430 548 q 261 444 319 474 l 402 557 q 403 564 406 560 l 431 564 m 431 511 l 429 511 l 343 460 q 431 535 417 521 l 431 511 m 275 528 q 167 435 176 460 q 121 434 141 435 q 275 528 213 492 m 393 564 l 184 444 q 343 560 220 481 q 345 565 346 562 l 393 564 m 323 566 q 102 435 271 543 q 289 566 146 477 l 323 566 m 223 567 q 254 566 236 567 q 169 517 221 549 q 223 567 222 555 m 58 471 q 106 498 64 473 q 205 557 182 545 q 123 498 188 543 q 57 451 70 463 l 58 471 m 138 556 q 94 518 126 545 q 60 490 68 498 l 61 510 q 138 556 112 542 m 135 567 q 62 524 113 555 l 62 527 q 96 566 77 545 q 135 567 112 567 m 193 436 l 340 522 l 236 437 l 193 436 m 273 438 q 368 495 309 457 q 299 439 338 470 l 273 438 m 456 576 q 446 584 452 583 l 429 585 q 168 589 260 589 q 59 584 71 589 l 54 584 q 43 576 47 583 q 41 566 40 572 l 42 562 q 40 515 42 554 q 37 502 35 506 l 39 500 q 35 436 37 461 l 34 433 q 38 420 34 425 l 39 417 q 54 407 43 407 q 60 408 58 407 l 62 409 q 283 417 84 412 q 289 417 286 416 q 416 419 378 419 l 424 419 q 433 419 429 417 q 441 422 438 420 l 444 424 l 445 425 q 451 438 450 429 q 452 505 452 445 l 454 557 q 457 575 462 565 l 456 576 z "},".":{"ha":1050,"x_min":68,"x_max":974,"o":"m 68 -191 l 68 968 l 974 968 l 974 -191 l 68 -191 m 92 -164 l 949 -164 l 949 948 l 92 948 l 92 -164 m 492 320 l 494 320 l 502 319 l 502 307 q 503 221 503 259 l 498 220 l 494 220 q 492 313 492 269 l 492 316 l 492 320 m 830 320 l 831 320 l 841 319 q 840 311 840 313 q 842 221 840 273 l 834 220 l 831 220 q 830 308 830 259 q 830 320 830 316 m 536 316 l 538 316 q 544 308 538 315 q 541 288 541 296 l 541 275 q 551 236 541 245 l 552 236 q 575 316 566 236 l 576 316 q 586 313 585 313 q 582 255 582 274 q 590 233 582 233 q 591 220 591 222 l 586 220 q 572 241 576 220 l 571 241 q 553 222 564 222 l 549 222 q 532 264 536 222 q 530 279 530 267 l 530 286 q 536 316 530 304 m 742 316 l 746 316 q 765 297 754 316 q 773 267 773 282 l 773 262 q 746 222 773 236 q 736 220 742 220 l 732 220 q 708 250 712 220 l 708 255 q 735 315 708 289 q 742 316 741 316 m 170 313 l 175 313 q 194 286 194 311 q 172 254 194 263 q 153 248 164 250 l 153 224 l 153 224 q 144 225 149 224 l 144 248 l 140 248 l 137 250 q 140 262 137 256 l 144 262 l 144 262 q 140 290 144 290 q 136 297 136 294 q 170 313 148 313 m 719 255 l 719 250 q 735 233 719 236 q 761 252 750 233 q 764 264 764 258 l 764 266 q 746 302 764 285 q 745 304 745 302 q 720 270 732 304 q 719 255 719 262 m 152 296 q 153 263 153 271 q 153 262 153 263 q 179 274 174 266 q 184 286 184 281 q 174 300 184 298 l 170 300 q 152 296 152 298 m 274 297 q 293 264 288 297 q 283 262 293 264 q 274 283 279 283 q 260 233 263 278 q 262 222 262 224 q 251 221 255 221 q 243 281 243 269 q 252 282 251 282 l 252 281 q 255 269 252 278 l 255 269 q 274 297 262 297 m 365 293 q 387 271 378 293 q 388 260 388 266 l 388 258 q 365 222 388 233 q 358 221 361 221 q 340 247 340 224 q 357 292 340 281 q 365 293 358 292 m 416 293 q 441 233 430 293 q 442 228 442 233 q 434 224 437 224 q 418 278 423 266 q 406 231 412 269 q 403 224 406 231 l 397 224 q 392 262 393 224 q 391 278 391 271 q 400 279 395 279 q 401 266 401 267 l 403 266 q 416 293 407 293 m 804 293 q 827 228 815 293 q 819 224 822 224 q 803 278 808 269 q 789 228 799 270 q 787 224 788 224 l 783 224 q 776 278 779 224 q 787 279 780 279 q 787 264 787 266 l 788 264 q 804 293 792 293 m 320 292 q 332 281 332 289 l 332 279 q 326 274 332 278 l 326 274 q 316 279 323 279 q 305 271 308 279 q 326 267 305 269 q 339 244 339 260 q 326 221 339 228 l 320 220 l 316 220 q 293 236 300 220 l 293 236 q 300 244 294 239 l 300 244 q 319 233 308 233 q 328 244 328 236 q 315 255 326 255 q 296 270 296 255 l 296 271 q 320 292 296 292 m 618 292 q 632 279 628 292 l 632 279 q 623 274 625 274 q 616 279 623 278 q 604 273 608 279 l 604 271 q 624 267 604 269 q 636 243 636 262 q 620 220 636 225 l 614 220 q 591 236 600 220 l 591 236 q 598 244 597 244 l 598 244 q 617 233 606 233 q 627 244 627 236 q 616 255 627 252 q 595 262 598 255 q 594 271 594 270 q 618 292 594 292 m 848 292 l 848 292 q 857 290 856 290 q 856 273 856 278 l 856 266 q 865 243 857 243 l 865 243 q 878 288 878 251 l 878 288 l 888 288 l 888 286 q 892 227 892 233 q 872 189 892 195 q 869 189 871 189 l 865 189 q 850 201 853 189 q 849 208 849 205 l 849 208 q 852 218 849 218 l 852 218 q 860 214 859 214 l 860 208 q 865 202 860 202 l 867 202 q 883 231 883 202 q 882 244 883 233 l 882 244 q 864 228 876 228 l 863 228 q 846 260 850 228 l 846 271 q 848 292 846 278 m 225 290 q 240 275 240 288 l 240 271 q 214 247 240 258 l 208 247 q 218 236 208 240 q 233 248 227 236 l 236 248 q 241 239 241 240 q 221 224 229 224 l 216 224 q 195 254 198 224 q 217 290 195 281 l 225 290 m 463 290 l 469 290 q 488 260 488 285 q 487 236 487 245 q 488 225 487 236 q 480 220 483 220 l 479 220 l 477 228 q 463 222 469 222 l 457 222 q 442 236 442 224 l 442 241 q 464 266 442 262 q 477 262 472 264 l 477 262 q 467 279 475 279 q 454 273 460 279 l 452 273 q 446 279 450 273 l 446 281 q 463 290 454 290 m 667 290 q 684 275 684 288 q 655 247 684 255 l 650 247 l 650 245 q 661 236 655 236 q 677 248 667 236 l 677 248 q 684 240 678 248 q 669 225 684 235 q 663 224 666 224 l 658 224 q 639 254 642 224 q 659 290 639 281 l 667 290 m 350 248 q 358 236 351 236 l 361 236 q 378 259 377 240 l 378 262 q 365 279 374 279 l 363 279 q 351 258 354 279 q 350 248 350 252 m 208 262 q 229 274 220 262 l 229 275 q 224 277 225 277 q 208 263 213 277 l 208 262 m 650 262 l 652 262 q 673 274 663 262 q 667 277 669 277 l 665 277 q 650 262 654 277 l 650 262 m 453 240 l 453 239 q 460 235 453 236 q 476 245 471 235 q 464 251 471 251 q 453 240 453 248 m 419 172 q 430 149 429 172 l 430 148 l 426 146 l 425 146 q 419 161 422 161 q 414 148 415 161 q 414 145 414 146 q 415 119 414 138 q 422 121 419 121 l 423 121 l 423 111 l 416 109 q 419 62 419 71 l 412 62 q 410 106 410 99 l 408 106 q 401 104 406 104 l 401 117 q 408 118 406 117 q 407 153 407 132 q 418 172 408 172 l 419 172 m 553 172 q 564 148 562 172 l 559 146 l 557 146 l 557 148 q 553 161 557 157 q 548 151 548 157 q 549 119 548 145 q 549 119 549 119 q 556 121 553 121 l 557 121 l 557 115 l 557 111 q 549 109 557 111 l 551 107 q 553 62 551 99 l 547 62 q 544 106 547 66 q 536 104 537 104 l 536 117 l 543 117 q 541 152 541 148 q 553 172 541 172 m 481 161 l 484 161 l 488 161 l 488 155 q 490 65 488 114 l 483 65 q 481 134 481 110 l 481 161 m 499 161 l 499 161 l 505 161 l 505 141 q 507 65 505 119 l 499 65 q 498 157 498 110 l 498 160 q 499 161 498 161 m 359 159 q 366 157 365 157 q 365 129 365 138 l 366 129 l 374 130 l 374 119 q 365 118 373 119 l 368 68 l 366 66 l 361 66 q 357 117 358 85 l 349 117 l 349 127 l 355 129 l 357 129 l 357 141 q 359 159 357 159 m 674 159 q 682 157 677 159 q 681 138 681 149 l 681 129 l 682 129 l 690 130 l 690 119 l 689 119 l 681 118 l 684 68 l 681 66 l 677 66 q 674 117 674 109 l 665 117 l 665 122 l 665 127 l 673 129 l 673 129 l 673 129 q 674 159 673 144 m 773 159 q 781 157 776 159 q 780 134 780 145 l 780 129 l 781 129 l 789 130 l 789 125 l 789 119 q 780 118 789 119 l 780 114 q 783 68 780 103 l 781 66 l 776 66 l 773 117 l 764 117 l 764 127 l 772 129 l 772 129 l 773 159 m 274 157 l 281 157 q 297 141 290 157 q 293 136 293 137 l 290 136 q 277 145 285 145 q 252 127 264 145 q 247 104 247 115 l 247 102 q 263 77 247 81 q 269 77 264 77 q 289 91 289 79 l 289 98 q 281 99 286 99 l 274 99 l 274 111 q 297 104 293 111 q 298 99 298 100 q 297 79 297 81 q 300 61 297 72 q 294 58 298 61 l 293 58 q 289 73 290 58 q 270 65 285 68 l 269 65 q 239 99 243 65 l 239 102 q 270 156 239 141 l 274 157 m 587 136 q 610 110 604 136 l 610 100 q 587 66 610 77 l 583 65 q 567 79 572 65 q 566 91 566 87 l 566 94 q 578 132 566 121 q 587 136 583 136 m 640 136 q 663 72 650 136 l 662 72 q 656 69 659 69 q 640 122 646 114 q 624 69 635 118 l 623 68 l 620 68 q 614 119 616 68 l 620 121 l 621 121 q 623 99 623 110 l 624 99 q 640 136 629 136 m 331 133 q 345 119 345 130 q 345 118 345 119 q 321 94 345 102 q 311 91 317 91 l 311 91 q 323 79 311 83 l 323 79 q 339 90 330 79 l 340 90 q 345 84 340 88 l 345 83 q 326 68 335 68 l 321 68 q 302 90 308 68 l 302 100 q 320 132 302 122 q 331 133 324 133 m 735 133 l 742 133 q 758 114 753 133 q 761 102 760 103 q 758 84 760 98 q 760 68 760 81 l 755 65 l 754 65 l 751 73 q 735 66 745 66 l 732 66 q 718 80 718 68 l 718 85 q 738 107 720 107 q 753 102 746 107 l 753 103 q 741 123 753 121 l 738 123 q 727 118 734 123 l 726 118 q 722 122 726 118 l 722 123 q 735 133 728 133 m 430 132 q 438 129 431 132 q 448 79 438 79 q 467 123 460 87 q 467 132 467 127 l 468 132 q 475 129 469 132 q 472 99 472 113 l 472 91 q 476 77 472 84 q 472 71 472 73 l 471 71 q 465 88 467 73 l 464 88 q 452 68 461 77 l 445 68 q 431 119 431 68 l 431 126 l 430 132 m 572 94 q 582 77 574 77 l 583 77 q 601 95 594 77 q 604 102 604 100 q 589 123 600 123 l 586 123 q 572 94 575 123 m 311 102 q 336 117 326 102 q 330 121 335 121 l 327 121 q 311 102 315 121 m 724 83 q 732 77 727 77 l 736 77 q 751 90 746 77 q 739 95 745 95 l 738 95 q 724 83 724 94 m 345 31 q 355 28 345 31 q 353 -34 353 3 q 359 -81 353 -57 q 351 -88 351 -88 l 350 -88 q 346 -79 349 -88 l 345 -79 q 331 -90 345 -84 q 298 -61 308 -90 q 297 -42 297 -53 q 320 -3 297 -9 l 323 -3 q 342 -14 332 -3 l 342 -14 q 345 31 342 -8 m 214 27 l 225 23 q 224 -1 224 8 l 224 -11 q 233 -8 232 -8 q 235 -24 235 -22 l 233 -24 q 224 -26 228 -26 q 227 -87 225 -68 q 216 -88 218 -88 l 216 -88 q 212 -28 212 -46 l 210 -27 l 201 -27 l 201 -11 l 212 -11 l 212 -4 q 214 27 212 27 m 457 27 l 458 27 l 468 23 q 467 -7 467 4 l 467 -11 q 477 -8 476 -8 l 479 -18 l 479 -24 q 468 -26 468 -26 q 471 -87 468 -42 q 460 -88 463 -88 l 460 -88 q 456 -27 456 -37 l 444 -27 l 444 -11 l 456 -11 q 457 27 456 12 m 370 24 q 378 15 377 24 l 378 15 q 373 4 378 7 l 368 4 q 362 15 362 7 q 370 24 363 24 m 412 -3 q 439 -28 429 -3 q 441 -41 441 -37 l 441 -46 q 415 -87 441 -73 q 406 -88 412 -88 q 384 -61 388 -88 l 384 -52 q 404 -4 384 -16 q 412 -3 411 -3 m 543 -3 l 547 -3 q 553 -5 553 -3 l 553 -7 q 567 -3 560 -3 q 589 -33 583 -3 q 590 -42 589 -41 q 568 -85 587 -77 l 563 -87 l 556 -87 l 557 -92 q 557 -119 557 -96 l 547 -119 q 543 -3 543 -30 m 621 -3 q 647 -27 636 -3 q 650 -43 650 -35 q 624 -87 650 -72 q 614 -88 618 -88 q 594 -71 600 -88 q 593 -54 593 -62 q 613 -4 593 -18 q 621 -3 620 -3 m 758 -3 q 784 -27 774 -3 q 787 -39 787 -33 l 787 -45 q 761 -87 787 -75 q 751 -88 758 -88 q 730 -61 732 -88 l 730 -52 q 750 -4 730 -16 q 758 -3 757 -3 m 822 -3 q 840 -42 833 -3 l 841 -42 q 859 -3 846 -3 l 860 -3 q 887 -83 876 -3 l 886 -83 q 876 -87 878 -87 l 876 -87 q 859 -20 863 -20 q 848 -76 852 -35 q 841 -83 845 -83 q 833 -72 836 -83 q 821 -20 825 -20 q 810 -84 810 -60 q 798 -87 803 -87 l 798 -85 l 789 -15 q 802 -11 799 -11 q 804 -33 803 -16 l 806 -33 q 822 -3 811 -3 m 175 -4 q 191 -18 191 -7 l 191 -19 q 183 -24 191 -20 l 182 -24 q 172 -19 182 -20 l 172 -19 q 159 -26 163 -19 l 159 -28 q 179 -33 159 -33 q 198 -58 198 -41 l 198 -62 q 183 -88 198 -81 q 176 -90 179 -90 l 170 -90 q 144 -73 155 -90 q 151 -62 144 -69 l 153 -62 q 174 -75 159 -75 q 186 -61 186 -75 q 171 -49 186 -50 q 149 -41 153 -49 q 146 -33 146 -35 l 146 -27 q 175 -4 146 -4 m 484 -4 q 494 -7 492 -7 q 494 -30 494 -23 l 494 -34 q 502 -64 494 -57 l 505 -64 q 519 -15 519 -52 l 519 -8 l 532 -8 l 532 -9 q 537 -79 537 -69 l 537 -85 q 518 -126 537 -115 q 507 -129 511 -129 q 487 -115 492 -129 q 486 -110 486 -113 l 486 -103 q 488 -94 486 -94 l 498 -98 l 498 -103 l 498 -106 q 505 -113 498 -111 l 507 -113 q 525 -91 521 -113 q 525 -83 525 -88 l 525 -69 l 525 -60 l 524 -60 q 505 -80 517 -80 l 503 -80 q 483 -46 487 -80 q 481 -33 481 -41 l 481 -27 q 484 -4 481 -4 m 701 -5 l 707 -5 q 716 -11 711 -5 q 724 -23 724 -19 q 716 -33 716 -33 l 716 -33 q 704 -22 708 -22 l 703 -22 q 690 -41 694 -26 l 688 -56 q 697 -72 688 -71 l 699 -72 q 722 -61 707 -72 l 723 -61 q 727 -76 727 -75 q 694 -88 709 -88 q 675 -57 680 -88 q 689 -14 675 -34 q 701 -5 697 -5 m 365 -7 l 373 -7 l 377 -7 q 376 -12 377 -9 q 378 -87 377 -58 l 366 -87 l 366 -81 q 365 -7 365 -35 m 237 -7 q 250 -11 250 -11 l 250 -24 q 258 -71 250 -71 l 260 -71 q 277 -33 273 -57 q 281 -7 281 -26 l 282 -7 q 293 -11 293 -8 q 290 -52 290 -39 l 290 -58 q 294 -72 290 -65 q 288 -84 294 -76 l 288 -84 q 279 -66 279 -76 l 278 -66 q 259 -87 271 -87 l 258 -87 q 237 -23 237 -87 l 237 -7 m 308 -45 q 328 -72 308 -68 l 331 -72 q 340 -54 339 -72 l 340 -53 q 327 -20 340 -28 l 323 -19 l 321 -19 q 308 -43 309 -19 l 308 -45 m 396 -56 q 406 -72 396 -71 l 408 -72 q 429 -53 419 -72 q 430 -46 430 -50 l 430 -41 q 414 -19 425 -19 l 412 -19 q 396 -56 397 -19 m 553 -24 q 556 -71 553 -27 l 560 -71 q 578 -42 575 -71 q 567 -19 576 -19 l 566 -19 q 553 -24 559 -19 m 604 -56 l 604 -58 q 614 -72 604 -71 l 616 -72 q 636 -54 627 -72 q 639 -42 639 -49 q 620 -19 635 -19 q 604 -56 606 -19 m 741 -56 q 753 -72 741 -72 l 754 -72 q 774 -52 764 -72 q 776 -45 776 -47 l 776 -41 q 758 -19 770 -19 l 758 -19 q 741 -56 745 -19 m 663 -65 q 671 -75 669 -65 l 671 -77 q 663 -87 669 -87 q 655 -76 656 -87 q 663 -65 656 -65 m 487 928 l 487 764 l 309 764 q 240 738 273 764 l 240 745 q 487 928 339 928 m 543 928 l 549 928 q 739 827 639 928 q 777 764 777 781 l 543 764 l 543 928 m 290 707 l 487 707 l 487 643 q 435 656 463 656 l 290 656 q 278 669 278 656 l 278 694 q 290 707 279 707 m 543 707 l 803 707 l 808 643 l 808 631 q 720 429 808 506 l 606 429 q 543 492 543 437 l 543 707 m 221 656 l 227 656 q 321 600 227 608 l 442 600 q 487 555 487 600 l 487 486 q 416 429 487 429 l 309 429 q 221 618 221 510 l 221 656 m 511 410 l 518 410 q 644 372 559 372 l 644 365 q 518 340 571 340 l 511 340 q 385 365 457 340 l 385 372 q 511 410 475 372 z "},"/":{"ha":624,"x_min":0,"x_max":621,"o":"m 81 -49 l 79 -47 l 83 -45 l 81 -49 m 84 -7 q 50 -46 59 -33 l 25 -46 q 24 -43 25 -45 l 84 -7 m 104 125 q 105 123 104 123 q 109 120 106 121 q 116 121 111 119 q 92 99 102 109 q 102 119 99 113 l 104 125 m 541 1015 q 536 1013 527 1007 l 534 1011 q 537 1017 536 1015 l 541 1015 m 557 948 q 519 929 554 949 q 578 980 561 964 q 560 945 570 965 q 557 948 559 947 m 484 796 q 427 763 468 787 q 483 811 442 778 q 497 823 493 820 q 484 796 488 806 m 404 743 q 407 741 405 741 q 411 741 409 740 q 438 758 425 749 q 386 713 405 730 q 395 731 389 719 q 403 748 400 742 l 404 743 m 435 793 q 468 813 456 806 q 408 758 418 772 q 420 784 410 764 q 435 793 425 787 m 471 888 q 518 916 494 901 l 456 857 q 471 888 464 874 m 524 993 q 541 1002 527 995 q 507 952 502 962 q 512 949 509 949 q 543 963 519 947 q 483 912 516 941 q 524 993 510 966 m 448 840 q 456 842 451 839 q 484 859 471 851 q 437 819 455 835 q 448 840 443 830 l 448 840 m 448 725 q 355 650 413 695 l 370 680 q 389 692 373 682 q 450 728 428 716 l 448 725 m 430 690 q 411 680 425 688 q 435 700 423 690 q 433 695 434 699 q 430 690 431 692 m 404 635 q 374 622 399 637 l 416 662 q 404 635 410 649 m 304 543 q 306 547 305 545 q 395 618 337 576 q 379 586 385 596 l 304 543 m 355 536 q 307 508 339 527 q 366 559 330 529 q 355 536 361 549 m 327 484 q 332 488 326 482 l 331 486 l 327 484 m 280 380 q 247 361 273 376 q 252 366 250 363 q 290 399 278 389 q 280 380 285 389 m 202 216 q 199 219 201 218 q 148 193 193 220 q 219 250 172 213 q 203 215 235 283 l 202 216 m 123 165 q 177 197 155 184 q 107 130 151 171 q 123 165 133 184 m 205 330 q 208 327 206 328 l 212 328 q 245 347 228 337 q 183 279 179 286 q 186 277 184 277 q 234 301 191 275 q 159 235 201 271 q 159 228 156 232 q 166 227 162 224 q 189 240 182 235 q 140 200 159 216 q 203 333 163 248 l 205 330 m 246 422 q 256 429 249 424 q 315 465 296 453 l 233 389 q 231 382 229 386 q 235 379 233 380 q 269 395 241 378 q 245 374 260 387 q 205 336 209 342 q 246 422 224 376 m 279 478 q 347 519 317 501 l 345 515 q 343 511 344 513 q 257 444 311 484 q 265 462 260 450 q 273 479 271 473 l 279 478 m 327 586 q 332 584 329 583 q 318 572 325 578 q 322 581 319 575 q 326 589 325 586 l 327 586 m 345 629 q 400 661 375 647 l 329 594 q 345 629 324 585 m 339 551 q 283 500 299 516 l 296 525 l 339 551 m 180 168 q 173 168 177 171 q 142 149 158 158 q 197 203 184 188 q 180 168 191 190 m 136 73 q 88 46 121 66 l 146 94 q 136 73 140 83 m 50 10 q 84 31 68 22 q 43 -3 60 12 q 46 3 44 -1 q 50 10 48 7 m 159 122 q 90 81 113 94 q 174 156 113 107 q 159 122 172 149 m 75 64 q 118 85 80 62 l 64 39 q 75 64 67 47 l 75 64 m 40 -20 q 125 49 67 5 q 112 21 117 31 l 40 -20 m 90 -29 q 67 -41 83 -32 q 99 -9 79 -28 q 90 -29 94 -18 m 232 277 q 210 264 224 273 q 238 290 225 278 q 232 277 234 281 m 256 327 q 212 301 230 311 q 268 353 233 321 q 256 327 268 353 m 301 429 q 269 408 284 417 l 313 448 q 304 429 310 441 l 301 429 m 458 746 q 399 711 440 736 q 469 768 426 734 q 458 746 464 757 m 509 846 q 445 812 504 848 q 527 882 479 842 q 509 846 517 863 m 533 892 q 530 895 532 895 q 494 878 525 897 l 554 935 q 533 892 545 917 m 588 1010 q 597 1009 594 1010 l 595 1006 l 593 1007 q 560 988 589 1008 q 520 962 530 967 q 566 1013 531 978 q 578 1012 572 1013 l 588 1010 m 607 1030 q 601 1031 604 1031 q 591 1031 599 1031 l 580 1033 q 549 1036 563 1035 q 541 1041 546 1040 l 536 1042 q 351 690 521 1042 q 83 129 250 480 q 16 -9 28 16 q 8 -24 12 -18 q 2 -47 0 -40 q 5 -61 0 -55 q 10 -66 7 -64 l 12 -67 q 19 -68 16 -68 l 72 -69 q 85 -75 77 -75 q 102 -62 98 -75 l 102 -56 q 376 528 138 34 q 380 539 380 536 q 447 675 421 623 q 479 739 460 703 q 486 752 488 749 q 607 987 575 930 q 616 997 614 989 l 618 1001 q 619 1010 619 1006 q 617 1023 621 1018 q 607 1030 614 1029 z "},":":{"ha":444,"x_min":42,"x_max":392,"o":"m 367 119 q 346 66 366 94 q 340 60 343 63 q 283 28 334 61 q 259 14 269 20 q 363 103 298 49 q 365 111 367 106 q 359 114 363 113 q 178 11 342 118 q 365 144 223 54 q 367 119 368 130 m 186 3 q 328 89 279 62 q 231 4 252 26 l 186 3 m 161 7 q 149 12 155 9 q 195 41 165 21 q 161 7 170 21 m 241 103 q 127 23 187 64 q 115 31 121 26 q 241 103 157 49 m 106 210 q 110 208 107 208 l 120 210 q 75 164 86 177 q 106 212 85 189 l 106 210 m 148 241 q 114 221 124 226 q 125 231 121 227 q 148 241 132 235 m 205 253 q 216 256 211 252 l 245 256 q 96 168 146 197 q 164 237 124 197 q 164 245 168 241 l 163 246 q 200 256 188 254 l 205 253 m 296 243 q 125 144 191 182 l 257 249 l 259 255 q 286 250 276 254 q 296 243 290 248 m 157 122 l 308 235 q 324 219 316 227 l 157 122 m 73 101 q 229 191 97 114 l 79 79 q 73 101 75 90 m 68 127 q 68 140 68 134 q 181 204 80 144 l 70 115 l 68 127 m 93 52 q 84 66 89 58 l 333 208 q 97 47 281 158 q 93 52 95 50 m 347 189 q 107 39 178 71 q 340 199 290 149 q 346 191 343 195 l 347 189 m 353 176 q 359 164 356 170 q 243 90 332 152 q 198 58 214 68 q 353 176 326 147 m 387 165 q 382 169 386 168 q 366 203 376 187 q 355 219 361 211 q 356 231 359 227 q 348 233 353 235 l 346 231 q 323 253 335 243 l 321 255 q 295 271 307 266 q 239 280 276 280 l 202 279 q 112 250 155 279 q 53 175 74 224 q 44 125 42 151 q 73 38 48 73 l 77 34 q 75 26 72 31 q 82 21 77 22 l 89 21 q 139 -9 108 4 q 199 -22 167 -22 l 201 -22 q 292 -5 255 -22 q 365 52 337 16 q 391 118 390 85 q 386 157 392 136 q 387 165 390 161 m 367 533 q 346 481 366 508 q 340 474 343 477 q 283 443 334 475 q 259 428 269 434 q 363 517 298 463 q 365 525 367 520 q 359 528 363 528 q 178 425 342 532 q 365 558 223 469 q 367 533 368 545 m 186 417 q 328 503 279 477 q 231 418 252 440 l 186 417 m 161 422 q 149 427 155 424 q 195 455 165 435 q 161 422 170 435 m 241 517 q 127 437 187 479 q 115 445 121 441 q 241 517 157 463 m 106 625 q 110 622 107 623 l 120 625 q 75 578 86 591 q 106 626 85 604 l 106 625 m 148 655 q 114 635 124 640 q 125 645 121 641 q 148 655 132 650 m 205 667 q 216 670 211 666 l 245 670 q 96 583 146 612 q 164 652 124 612 q 164 660 168 655 l 163 661 q 200 670 188 669 l 205 667 m 296 658 q 125 559 191 597 l 257 663 l 259 669 q 286 664 276 668 q 296 658 290 662 m 157 536 l 308 649 q 324 633 316 642 l 157 536 m 73 515 q 229 605 97 528 l 79 494 q 73 515 75 504 m 68 541 q 68 555 68 548 q 181 618 80 559 l 70 530 l 68 541 m 93 467 q 84 481 89 472 l 333 623 q 97 461 281 572 q 93 467 95 464 m 347 604 q 107 453 178 486 q 340 614 290 564 q 346 605 343 609 l 347 604 m 353 591 q 359 578 356 585 q 243 504 332 566 q 198 472 214 483 q 353 591 326 562 m 387 580 q 382 583 386 582 q 366 618 376 602 q 355 633 361 625 q 356 645 359 641 q 348 647 353 650 l 346 646 q 323 667 335 657 l 321 669 q 295 686 307 680 q 239 694 276 694 l 202 694 q 112 665 155 694 q 53 589 74 638 q 44 539 42 566 q 73 452 48 487 l 77 448 q 75 441 72 445 q 82 435 77 437 l 89 435 q 139 405 108 418 q 199 393 167 393 l 201 393 q 292 410 255 393 q 365 467 337 430 q 391 532 390 500 q 386 572 392 550 q 387 580 390 575 z "},";":{"ha":472,"x_min":34,"x_max":420,"o":"m 267 -143 q 195 -170 243 -157 l 184 -172 l 344 -80 q 267 -143 316 -113 m 138 -179 q 154 -170 144 -176 q 212 -131 197 -146 q 245 -91 230 -115 l 248 -92 q 252 -92 250 -93 q 361 -28 323 -50 q 165 -170 310 -75 q 162 -176 161 -172 q 151 -178 149 -178 l 138 -179 m 236 16 q 321 70 266 34 q 267 20 282 36 q 250 21 258 26 q 236 16 242 18 m 157 14 q 285 87 193 30 q 184 10 237 50 q 159 12 169 10 q 157 14 164 12 m 337 174 q 136 22 155 39 q 114 38 124 28 q 337 174 264 134 m 248 155 l 104 48 q 90 64 97 56 l 248 155 m 73 91 q 182 151 107 106 l 81 77 q 73 91 77 84 m 87 193 q 97 204 90 198 l 98 200 q 106 199 101 195 q 114 204 111 202 q 64 153 75 164 q 87 193 71 174 m 60 127 q 159 187 76 134 q 182 201 178 199 q 142 171 170 192 q 64 111 82 126 q 60 127 61 121 m 159 239 q 224 250 192 250 q 268 243 249 250 q 290 233 277 239 q 73 103 132 132 q 149 161 92 118 q 242 242 246 235 q 238 245 241 244 q 153 197 231 247 q 79 151 100 164 q 135 208 100 172 q 152 232 155 228 q 147 235 151 235 q 159 239 154 237 m 150 113 l 302 225 q 321 212 313 218 l 150 113 m 344 190 q 212 115 303 170 l 332 203 q 344 190 338 197 m 365 163 q 369 155 366 161 q 164 30 228 63 q 357 174 220 73 q 365 163 362 167 m 210 14 q 376 142 349 119 q 382 123 380 132 q 326 87 376 120 q 210 14 243 33 m 294 30 q 386 110 330 62 q 391 85 389 98 l 294 30 m 323 5 q 392 68 351 31 q 392 45 393 56 l 323 5 m 262 -62 q 279 -8 279 -28 q 277 6 279 -2 l 355 52 q 279 -27 276 -22 q 288 -29 282 -33 l 340 1 q 262 -62 281 -45 m 383 -4 q 312 -43 378 -4 q 285 -58 301 -49 q 347 -9 306 -41 q 391 25 381 18 q 383 -4 388 11 m 303 -90 q 372 -33 351 -54 q 359 -57 366 -45 l 303 -90 m 393 163 l 391 165 q 385 175 387 173 q 377 188 382 180 l 381 191 q 382 199 385 194 q 378 202 381 201 q 367 200 375 203 q 323 240 347 223 l 323 241 q 325 249 328 244 q 317 251 322 254 l 315 249 l 312 248 q 275 266 292 260 q 224 273 253 273 q 153 262 189 273 q 68 209 98 245 q 37 126 34 168 q 45 94 37 111 q 45 87 43 90 l 50 84 q 62 63 55 74 l 56 58 q 54 50 52 55 q 62 48 58 45 l 69 52 q 84 34 77 43 l 79 31 q 78 22 75 27 q 86 21 81 18 q 93 25 100 29 q 153 -11 120 -1 q 184 -14 166 -14 q 239 -8 212 -14 q 254 -3 247 -7 l 255 -8 q 241 -51 255 -22 q 196 -114 222 -89 q 142 -150 182 -127 q 110 -168 121 -161 q 102 -180 104 -172 q 104 -193 100 -187 q 115 -201 108 -199 q 126 -205 120 -205 l 129 -205 q 144 -203 134 -203 l 154 -201 q 203 -193 185 -197 q 279 -163 253 -180 q 372 -83 342 -125 q 416 40 412 -24 q 393 160 420 104 l 393 163 m 367 533 q 346 481 366 508 q 340 474 343 477 q 283 443 334 475 q 259 428 269 434 q 363 517 298 463 q 365 525 367 520 q 359 528 363 528 q 178 425 342 532 q 365 558 223 469 q 367 533 368 545 m 186 417 q 328 503 279 477 q 231 418 252 440 l 186 417 m 161 422 q 149 427 155 424 q 195 455 165 435 q 161 422 170 435 m 241 517 q 127 437 187 479 q 115 445 121 441 q 241 517 157 463 m 106 625 q 110 622 107 623 l 120 625 q 75 578 86 591 q 106 626 85 604 l 106 625 m 148 655 q 114 635 124 640 q 125 645 121 641 q 148 655 132 650 m 205 667 q 216 670 211 666 l 245 670 q 96 583 146 612 q 164 652 124 612 q 164 660 168 655 l 163 661 q 200 670 188 669 l 205 667 m 296 658 q 125 559 191 597 l 257 663 l 259 669 q 286 664 276 668 q 296 658 290 662 m 157 536 l 308 649 q 324 633 316 642 l 157 536 m 73 515 q 229 605 97 528 l 79 494 q 73 515 75 504 m 68 541 q 68 555 68 548 q 181 618 80 559 l 70 530 l 68 541 m 93 467 q 84 481 89 472 l 333 623 q 97 461 281 572 q 93 467 95 464 m 347 604 q 107 453 178 486 q 340 614 290 564 q 346 605 343 609 l 347 604 m 353 591 q 359 578 356 585 q 243 504 332 566 q 198 472 214 483 q 353 591 326 562 m 387 580 q 382 583 386 582 q 366 618 376 602 q 355 633 361 625 q 356 645 359 641 q 348 647 353 650 l 346 646 q 323 667 335 657 l 321 669 q 295 686 307 680 q 239 694 276 694 l 202 694 q 112 665 155 694 q 53 589 74 638 q 44 539 42 566 q 73 452 48 487 l 77 448 q 75 441 72 445 q 82 435 77 437 l 89 435 q 139 405 108 418 q 199 393 167 393 l 201 393 q 292 410 255 393 q 365 467 337 430 q 391 532 390 500 q 386 572 392 550 q 387 580 390 575 z "},"<":{"ha":939,"x_min":34,"x_max":905,"o":"m 876 247 l 874 244 q 873 248 875 246 q 869 252 872 251 q 798 212 860 254 q 775 197 783 202 q 844 262 801 222 q 845 265 845 264 q 875 252 869 256 l 876 247 m 838 163 q 816 170 829 165 q 848 190 829 178 q 838 163 840 170 m 781 264 q 720 205 729 215 q 695 214 708 210 l 781 264 m 672 271 q 638 235 647 245 l 623 240 q 672 271 642 251 m 349 387 q 395 416 382 408 q 336 359 379 398 q 325 347 326 350 q 300 357 309 353 q 349 387 315 366 m 209 393 l 208 390 q 175 401 191 396 q 252 448 227 435 l 209 393 m 138 415 q 196 450 172 435 q 155 409 169 424 l 138 415 m 71 441 q 121 463 90 447 q 86 435 88 442 q 74 439 81 436 l 71 441 m 63 534 l 66 536 q 59 531 64 534 l 58 532 l 63 534 m 180 551 l 64 463 q 64 484 64 474 l 180 551 m 81 538 l 79 541 q 238 597 130 559 l 64 496 l 64 504 l 81 532 l 81 538 m 408 659 l 413 661 q 64 448 132 467 l 253 593 q 254 601 257 596 l 252 602 l 252 602 q 377 647 283 613 l 408 659 m 846 800 q 850 785 848 796 q 742 718 833 776 q 585 624 615 638 l 581 623 q 827 793 616 663 q 829 801 831 797 l 827 803 q 835 804 832 804 q 841 800 838 802 l 846 800 m 854 769 q 856 762 855 765 q 859 748 857 753 q 751 682 790 703 l 854 769 m 867 720 q 871 716 869 718 q 787 690 857 713 q 861 737 819 709 q 867 720 865 724 m 412 566 l 411 566 q 412 567 412 566 l 412 566 m 227 488 q 233 481 229 484 q 155 438 227 480 q 227 488 179 456 m 255 543 q 410 646 328 589 q 255 543 384 619 m 480 623 q 449 602 462 611 q 358 547 398 570 q 269 515 293 525 q 615 728 414 610 q 617 734 618 730 q 677 755 649 745 q 480 623 578 686 m 482 589 q 426 570 452 580 q 449 589 431 577 q 495 619 470 602 q 555 654 515 631 q 701 764 709 745 q 798 795 766 786 q 667 709 771 781 q 482 589 534 619 m 566 618 q 530 606 541 609 q 585 641 554 621 q 566 618 566 625 m 720 669 q 640 642 681 656 q 747 709 674 663 q 823 757 802 744 l 721 671 q 720 669 720 670 m 424 665 q 541 707 490 688 q 408 629 494 681 q 427 663 433 651 l 424 665 m 123 420 q 99 429 107 427 q 205 494 111 436 q 476 657 388 606 q 361 587 414 620 q 123 420 138 448 m 285 463 q 309 454 301 457 l 311 454 q 235 410 289 441 l 271 455 q 271 461 273 458 q 267 464 270 463 q 176 415 255 467 q 237 472 201 440 q 238 479 240 475 q 273 468 244 478 q 285 463 275 467 m 408 317 q 380 328 396 321 q 435 362 393 334 q 442 366 437 363 q 408 317 406 324 m 515 383 q 425 328 452 341 q 473 385 439 348 q 475 391 476 388 l 471 394 q 430 371 466 395 q 383 341 397 349 q 414 370 392 350 q 450 406 444 398 q 456 404 450 405 q 515 383 481 395 m 608 312 q 634 329 625 323 q 604 304 625 321 q 557 264 565 274 q 539 270 553 265 q 608 312 553 276 m 570 328 q 524 275 528 281 q 496 286 503 283 q 570 328 503 288 m 529 342 q 490 288 487 293 q 457 300 475 293 q 529 342 475 311 m 595 355 q 514 308 546 326 q 541 339 523 319 q 559 366 561 362 l 555 368 q 551 368 553 368 q 474 323 509 343 q 525 380 525 369 q 595 355 559 368 m 602 353 q 634 342 612 349 q 602 321 625 336 q 547 286 562 296 q 602 347 568 310 q 602 353 604 350 m 353 359 q 412 418 400 404 q 434 411 424 414 q 353 359 384 376 m 406 378 q 363 334 366 341 q 340 342 321 349 q 411 382 361 350 l 406 378 m 369 433 q 391 426 379 429 q 343 396 377 418 q 304 372 317 380 q 369 433 356 418 m 329 447 q 352 439 341 443 l 280 397 q 329 447 318 433 m 218 387 q 309 440 275 421 q 242 378 285 416 q 218 387 236 380 m 340 420 q 279 364 317 397 q 269 368 275 366 q 257 372 261 370 l 340 420 m 418 314 q 495 357 436 319 q 439 306 473 336 q 418 314 433 309 m 575 257 q 585 264 578 260 q 667 315 648 307 q 598 249 651 295 q 575 257 590 252 m 673 222 q 665 224 671 222 q 656 228 660 227 q 688 248 666 233 q 735 277 722 269 q 697 242 724 267 q 673 222 681 228 m 704 234 q 755 292 760 283 l 751 295 q 683 257 745 297 q 661 243 667 248 q 720 303 684 267 q 720 310 723 307 q 713 311 717 314 q 612 247 650 268 q 680 323 687 312 q 675 327 679 326 q 593 282 665 330 q 610 296 599 287 q 656 334 647 325 q 795 284 745 303 l 695 227 q 704 234 687 219 m 802 239 q 755 192 768 205 q 734 199 749 195 l 802 239 m 754 223 q 812 278 779 246 q 835 270 824 274 l 754 223 m 796 177 q 776 184 779 183 q 804 203 785 190 q 856 236 842 229 q 796 177 838 216 m 856 207 q 854 206 854 207 q 821 186 837 195 q 871 239 863 226 q 856 207 863 223 m 892 264 q 463 424 882 280 q 317 474 360 458 q 292 483 308 477 q 280 488 283 487 q 271 492 273 490 q 299 504 283 496 q 871 694 688 643 q 883 692 877 691 q 893 699 890 694 q 896 711 897 705 q 895 718 896 714 l 895 721 q 890 732 895 728 q 884 735 887 734 q 880 749 882 740 l 884 752 q 886 760 888 755 q 878 761 882 764 q 877 767 877 765 q 858 821 867 814 q 848 823 853 823 q 836 826 843 826 q 401 679 806 826 l 370 667 q 245 623 276 633 q 60 556 106 574 l 55 554 q 50 552 51 553 l 44 550 q 35 534 34 545 q 35 529 34 530 l 36 525 q 41 516 37 519 l 43 490 l 36 480 q 37 473 34 476 q 43 472 39 471 q 43 446 43 458 l 42 435 q 58 422 45 422 l 60 422 l 63 420 l 66 420 q 83 412 75 416 q 140 391 98 407 q 138 385 137 387 l 142 382 l 146 382 q 153 387 159 391 q 266 346 196 371 q 269 343 267 343 l 273 343 q 433 286 333 321 q 583 232 507 259 l 583 230 q 588 227 585 227 l 594 227 q 658 204 622 218 l 659 199 q 666 197 661 195 l 671 200 q 785 158 741 174 l 787 157 l 789 157 q 831 141 818 146 q 838 137 834 138 l 842 136 q 848 136 846 136 q 864 147 861 136 l 865 152 q 862 165 866 159 q 895 237 873 197 l 896 239 l 896 239 q 895 261 905 252 l 892 264 z "},"=":{"ha":643,"x_min":34,"x_max":607,"o":"m 517 576 l 558 594 q 561 602 564 597 q 551 604 557 606 l 519 589 l 566 631 q 564 576 566 582 l 517 576 m 536 622 l 485 576 q 428 575 458 576 l 536 622 m 66 568 q 290 673 195 632 q 106 568 138 600 q 68 566 78 567 l 66 568 m 73 684 l 79 686 l 73 681 l 73 684 m 77 699 q 83 700 79 700 l 73 696 l 73 698 l 77 699 m 256 703 q 123 644 226 690 q 109 637 131 648 q 123 646 116 642 q 201 703 200 692 l 256 703 m 567 699 l 566 684 q 563 683 564 684 q 338 579 415 610 l 527 692 q 529 700 532 696 l 567 699 m 566 647 l 564 646 l 448 596 q 566 671 548 656 l 566 647 m 356 663 q 212 571 224 596 q 151 570 177 570 q 356 663 274 628 m 515 700 l 235 579 q 448 696 283 617 q 451 701 452 697 l 515 700 m 421 701 q 126 570 352 678 q 376 702 184 612 l 421 701 m 288 703 q 329 702 304 703 q 215 652 285 685 q 288 703 287 690 m 67 606 q 130 634 75 609 q 262 693 232 681 q 153 634 240 678 q 65 587 82 598 l 67 606 m 174 692 q 114 654 158 681 q 68 626 80 633 l 71 646 q 174 692 138 677 m 170 703 q 71 659 140 690 l 72 663 q 118 702 91 681 q 170 703 139 703 m 247 572 l 445 657 l 304 573 l 247 572 m 355 574 q 481 631 402 593 q 389 574 441 606 l 355 574 m 600 712 q 586 720 595 719 l 563 721 q 214 724 337 724 q 68 720 83 724 l 60 720 q 46 712 52 718 q 43 701 42 707 l 45 697 q 42 650 45 690 q 38 637 35 642 l 41 635 q 35 572 37 597 l 34 568 q 40 556 34 561 l 41 553 q 61 543 47 543 q 69 544 66 543 l 71 545 q 369 553 101 548 q 376 553 372 551 q 546 555 496 555 l 556 555 q 570 555 563 553 q 580 558 575 555 l 583 559 l 585 560 q 593 574 591 565 q 595 641 594 581 l 596 692 q 601 711 607 701 l 600 712 m 517 305 l 558 323 q 561 330 564 326 q 551 332 557 335 l 519 318 l 566 360 q 564 305 566 311 l 517 305 m 536 351 l 485 304 q 428 304 458 304 l 536 351 m 66 297 q 290 402 195 361 q 106 297 138 328 q 68 295 78 296 l 66 297 m 73 412 l 79 415 l 73 410 l 73 412 m 77 428 q 83 429 79 429 l 73 425 l 73 427 l 77 428 m 256 431 q 123 372 226 419 q 109 366 131 376 q 123 374 116 370 q 201 431 200 421 l 256 431 m 567 428 l 566 413 q 563 412 564 412 q 338 308 415 338 l 527 421 q 529 429 532 425 l 567 428 m 566 376 l 564 375 l 448 325 q 566 399 548 385 l 566 376 m 356 392 q 212 300 224 325 q 151 298 177 299 q 356 392 274 357 m 515 429 l 235 308 q 448 425 283 346 q 451 429 452 426 l 515 429 m 421 430 q 126 299 352 407 q 376 431 184 341 l 421 430 m 288 431 q 329 431 304 431 q 215 381 285 414 q 288 431 287 419 m 67 335 q 130 363 75 338 q 262 422 232 410 q 153 363 240 407 q 65 315 82 327 l 67 335 m 174 420 q 114 382 158 410 q 68 355 80 362 l 71 374 q 174 420 138 406 m 170 431 q 71 388 140 419 l 72 391 q 118 431 91 410 q 170 431 139 431 m 247 300 l 445 386 l 304 302 l 247 300 m 355 302 q 481 359 402 321 q 389 303 441 334 l 355 302 m 600 441 q 586 448 595 448 l 563 450 q 214 453 337 453 q 68 448 83 453 l 60 448 q 46 441 52 447 q 43 430 42 436 l 45 426 q 42 379 45 418 q 38 366 35 370 l 41 364 q 35 300 37 326 l 34 297 q 40 285 34 290 l 41 281 q 61 271 47 271 q 69 273 66 271 l 71 273 q 369 281 101 277 q 376 281 372 280 q 546 283 496 283 l 556 283 q 570 283 563 281 q 580 287 575 284 l 583 288 l 585 289 q 593 302 591 294 q 595 370 594 309 l 596 421 q 601 439 607 429 l 600 441 z "}}}
